<svg xmlns="http://www.w3.org/2000/svg" width="30" height="24" fill="currentColor"><path fill="url(#a)" fill-rule="evenodd" d="M16.293 8.141a3.86 3.86 0 0 1-3.86 3.857 3.858 3.858 0 1 1 0-7.714 3.86 3.86 0 0 1 3.86 3.857" clip-rule="evenodd"/><path fill="url(#b)" fill-rule="evenodd" d="M17.738 20.974h-.06a.28.28 0 0 1-.276-.227l-.051-.261-.168-.812a3.6 3.6 0 0 1-.666-.384l-.831.277-.26.081a.28.28 0 0 1-.327-.127l-.134-.23-.665-1.114-.135-.232a.28.28 0 0 1 .058-.353l.2-.175.625-.532a2.4 2.4 0 0 1-.039-.394c0-.14.02-.275.04-.395l-.629-.534-.197-.173a.3.3 0 0 1-.076-.107h.07c1.239 0 2.329.624 2.957 1.567.058.234.171.445.326.62.154.386.238.806.238 1.244zm-1.202.024H6v-2.285c0-1.895 1.577-3.431 3.521-3.431h3.71c.026.295.163.579.4.786l.196.172.281.24v.022l-.269.23-.209.182a1.18 1.18 0 0 0-.244 1.484l.134.232.669 1.117.13.225c.277.479.848.701 1.376.537l.26-.082.017-.005.417-.14.078.382.051.257q.007.04.018.077" clip-rule="evenodd"/><path fill="url(#c)" fill-rule="evenodd" d="M17.678 12.008a.28.28 0 0 0-.276.227l-.051.26-.168.813c-.24.104-.461.235-.666.384l-.826-.276-.265-.082a.28.28 0 0 0-.327.127l-.134.23-.664 1.11-.136.235a.28.28 0 0 0 .058.353l.197.173.628.534c-.02.12-.039.256-.039.395s.02.275.04.394l-.626.532-.2.175a.28.28 0 0 0-.058.353l.135.232.665 1.113.134.23a.28.28 0 0 0 .327.128l.26-.08.83-.278c.206.148.428.279.668.384l.167.812.051.26a.28.28 0 0 0 .276.228h1.869c.134 0 .25-.095.276-.227l.052-.26v-.002l.167-.811c.24-.105.461-.236.666-.384l.826.276.265.082a.28.28 0 0 0 .327-.127l.134-.23.664-1.11.136-.235a.28.28 0 0 0-.058-.354l-.197-.172-.628-.534c.02-.12.039-.256.039-.395 0-.14-.019-.275-.039-.395l.625-.532.2-.174a.28.28 0 0 0 .059-.354l-.136-.232-.665-1.113-.134-.23a.28.28 0 0 0-.327-.127l-.26.08-.83.278a3.6 3.6 0 0 0-.667-.384l-.167-.812v-.001l-.052-.26a.28.28 0 0 0-.276-.227zm.935 3a1.483 1.483 0 1 0 0 2.966 1.483 1.483 0 0 0 0-2.965" clip-rule="evenodd"/><defs><linearGradient id="a" x1="12.433" x2="12.433" y1="4.284" y2="11.998" gradientUnits="userSpaceOnUse"><stop stop-color="#A55282"/><stop offset="1" stop-color="#F27C34"/></linearGradient><linearGradient id="b" x1="11.869" x2="11.869" y1="15.282" y2="20.998" gradientUnits="userSpaceOnUse"><stop stop-color="#A55282"/><stop offset="1" stop-color="#F27C34"/></linearGradient><linearGradient id="c" x1="10.955" x2="23.099" y1="30.927" y2="16.256" gradientUnits="userSpaceOnUse"><stop stop-color="#151823"/><stop offset="1" stop-color="#CCD1E5"/></linearGradient></defs></svg>