<svg width="24" height="24" viewBox="0 0 24 24" fill="currentColor" xmlns="http://www.w3.org/2000/svg">
<path d="M20.25 3.9375H3.75C3.4019 3.9375 3.06806 4.07578 2.82192 4.32192C2.57578 4.56806 2.4375 4.9019 2.4375 5.25V18.75C2.4375 19.0981 2.57578 19.4319 2.82192 19.6781C3.06806 19.9242 3.4019 20.0625 3.75 20.0625H20.25C20.5981 20.0625 20.9319 19.9242 21.1781 19.6781C21.4242 19.4319 21.5625 19.0981 21.5625 18.75V5.25C21.5625 4.9019 21.4242 4.56806 21.1781 4.32192C20.9319 4.07578 20.5981 3.9375 20.25 3.9375ZM20.4375 18.75C20.4375 18.7997 20.4177 18.8474 20.3826 18.8826C20.3474 18.9177 20.2997 18.9375 20.25 18.9375H3.75C3.70027 18.9375 3.65258 18.9177 3.61742 18.8826C3.58225 18.8474 3.5625 18.7997 3.5625 18.75V5.25C3.5625 5.20027 3.58225 5.15258 3.61742 5.11742C3.65258 5.08225 3.70027 5.0625 3.75 5.0625H20.25C20.2997 5.0625 20.3474 5.08225 20.3826 5.11742C20.4177 5.15258 20.4375 5.20027 20.4375 5.25V18.75ZM7.3125 7.875C7.3125 8.06042 7.25752 8.24168 7.1545 8.39585C7.05149 8.55002 6.90507 8.67018 6.73377 8.74114C6.56246 8.81209 6.37396 8.83066 6.1921 8.79449C6.01025 8.75831 5.8432 8.66902 5.71209 8.53791C5.58098 8.4068 5.49169 8.23975 5.45551 8.0579C5.41934 7.87604 5.43791 7.68754 5.50886 7.51623C5.57982 7.34493 5.69998 7.19851 5.85415 7.0955C6.00832 6.99248 6.18958 6.9375 6.375 6.9375C6.62364 6.9375 6.8621 7.03627 7.03791 7.21209C7.21373 7.3879 7.3125 7.62636 7.3125 7.875ZM11.0625 7.875C11.0625 8.06042 11.0075 8.24168 10.9045 8.39585C10.8015 8.55002 10.6551 8.67018 10.4838 8.74114C10.3125 8.81209 10.124 8.83066 9.9421 8.79449C9.76025 8.75831 9.5932 8.66902 9.46209 8.53791C9.33098 8.4068 9.24169 8.23975 9.20551 8.0579C9.16934 7.87604 9.18791 7.68754 9.25886 7.51623C9.32982 7.34493 9.44998 7.19851 9.60415 7.0955C9.75832 6.99248 9.93958 6.9375 10.125 6.9375C10.3736 6.9375 10.6121 7.03627 10.7879 7.21209C10.9637 7.3879 11.0625 7.62636 11.0625 7.875Z" />
</svg>
