<svg width="32" height="32" viewBox="0 0 32 32" fill="currentColor" xmlns="http://www.w3.org/2000/svg"><path d="M30 14.77v14.769c0 .652-.268 1.278-.745 1.74a2.6 2.6 0 0 1-1.8.721H4.544a2.6 2.6 0 0 1-1.8-.72A2.42 2.42 0 0 1 2 29.537V14.77c0-.653.268-1.28.746-1.74a2.6 2.6 0 0 1 1.8-.722h3.818c.337 0 .66.13.9.36.238.232.372.545.372.871s-.134.64-.372.87c-.24.231-.563.36-.9.36H4.545v14.77h22.91v-14.77h-3.819c-.337 0-.66-.129-.9-.36a1.2 1.2 0 0 1-.372-.87c0-.326.134-.64.372-.87.24-.231.563-.36.9-.36h3.819c.675 0 1.322.259 1.8.72.477.462.745 1.088.745 1.74M10.537 8.256l4.19-4.054v14.26c0 .326.134.64.373.87.239.231.563.36.9.36s.661-.129.9-.36a1.2 1.2 0 0 0 .373-.87V4.202l4.19 4.054c.239.231.563.36.9.36s.662-.129.901-.36.373-.544.373-.87c0-.327-.134-.64-.373-.871L16.901.36a1.31 1.31 0 0 0-1.801 0L8.736 6.515c-.239.23-.373.544-.373.87 0 .327.134.64.373.871s.563.36.9.36.662-.129.9-.36" fill="#A0A8B8"/></svg>
