<svg width="24" height="24" viewBox="0 0 24 24" fill="currentColor" xmlns="http://www.w3.org/2000/svg"><path d="M10.313 20.25a.56.56 0 0 1-.563.563H4.5A1.313 1.313 0 0 1 3.188 19.5v-15A1.313 1.313 0 0 1 4.5 3.188h5.25a.562.562 0 1 1 0 1.124H4.5a.187.187 0 0 0-.187.188v15a.19.19 0 0 0 .187.188h5.25a.56.56 0 0 1 .563.562m10.335-8.647-3.75-3.75a.563.563 0 0 0-.796.795l2.79 2.79H9.75a.563.563 0 0 0 0 1.124h9.142l-2.79 2.79a.561.561 0 1 0 .796.796l3.75-3.75a.563.563 0 0 0 0-.796" fill="#fff"/></svg>
