<svg width="24" height="24" viewBox="0 0 24 24" fill="currentColor" xmlns="http://www.w3.org/2000/svg"><path d="M20.063 4.5V9a.563.563 0 0 1-1.125 0V5.858l-4.29 4.29a.562.562 0 0 1-.796-.796l4.29-4.29H15a.562.562 0 1 1 0-1.125h4.5a.56.56 0 0 1 .563.563m-10.71 9.353-4.29 4.29V15a.562.562 0 1 0-1.125 0v4.5a.56.56 0 0 0 .562.563H9a.563.563 0 0 0 0-1.125H5.858l4.29-4.29a.562.562 0 0 0-.796-.796m10.147.585a.56.56 0 0 0-.562.562v3.142l-4.29-4.29a.562.562 0 0 0-.796.796l4.29 4.29H15a.562.562 0 1 0 0 1.125h4.5a.56.56 0 0 0 .563-.563V15a.56.56 0 0 0-.563-.562M5.858 5.063H9a.563.563 0 1 0 0-1.125H4.5a.563.563 0 0 0-.562.562V9a.563.563 0 1 0 1.124 0V5.858l4.29 4.29a.562.562 0 0 0 .796-.796z" fill="#fff"/></svg>
