<svg width="33" height="32" viewBox="0 0 33 32" fill="none" xmlns="http://www.w3.org/2000/svg">
<path d="M26.4998 9.24983H16.2498V3.99983C16.2497 3.85159 16.2056 3.70671 16.1232 3.5835C16.0408 3.46028 15.9237 3.36425 15.7868 3.30754C15.6498 3.25083 15.4991 3.23598 15.3537 3.26486C15.2083 3.29375 15.0747 3.36507 14.9698 3.46983L2.96983 15.4698C2.82938 15.6105 2.75049 15.8011 2.75049 15.9998C2.75049 16.1986 2.82938 16.3892 2.96983 16.5298L14.9698 28.5298C15.0747 28.6346 15.2083 28.7059 15.3537 28.7348C15.4991 28.7637 15.6498 28.7488 15.7868 28.6921C15.9237 28.6354 16.0408 28.5394 16.1232 28.4162C16.2056 28.2929 16.2497 28.1481 16.2498 27.9998V22.7498H26.4998C26.964 22.7498 27.4091 22.5655 27.7373 22.2373C28.0655 21.9091 28.2498 21.464 28.2498 20.9998V10.9998C28.2498 10.5357 28.0655 10.0906 27.7373 9.76239C27.4091 9.4342 26.964 9.24983 26.4998 9.24983ZM26.7498 20.9998C26.7498 21.0661 26.7235 21.1297 26.6766 21.1766C26.6297 21.2235 26.5661 21.2498 26.4998 21.2498H15.4998C15.3009 21.2498 15.1102 21.3288 14.9695 21.4695C14.8288 21.6101 14.7498 21.8009 14.7498 21.9998V26.1886L4.56108 15.9998L14.7498 5.81108V9.99983C14.7498 10.1987 14.8288 10.3895 14.9695 10.5302C15.1102 10.6708 15.3009 10.7498 15.4998 10.7498H26.4998C26.5661 10.7498 26.6297 10.7762 26.6766 10.8231C26.7235 10.8699 26.7498 10.9335 26.7498 10.9998V20.9998Z" fill="white"/>
</svg>
