<svg width="24" height="24" viewBox="0 0 24 24" fill="currentColor" xmlns="http://www.w3.org/2000/svg"><path d="M4.916 3.375a.562.562 0 0 0-.832.75l1.664 1.834a7.26 7.26 0 0 0-1.06 3.791c0 3.35-.79 5.925-1.32 6.838A1.313 1.313 0 0 0 4.5 18.562h3.984a3.563 3.563 0 0 0 7.032 0h1.687l1.875 2.063a.563.563 0 0 0 .833-.758zM12 20.438a2.44 2.44 0 0 1-2.37-1.875h4.741A2.44 2.44 0 0 1 12 20.438m-7.5-3a.18.18 0 0 1-.16-.094.19.19 0 0 1 0-.188c.71-1.218 1.473-4.06 1.473-7.406a6.15 6.15 0 0 1 .729-2.917l9.641 10.605zm15.496-.809a.55.55 0 0 1-.523-.058.56.56 0 0 1-.206-.26c-.675-1.716-1.078-4.17-1.078-6.562a6.187 6.187 0 0 0-9.24-5.383.562.562 0 1 1-.556-.978 7.312 7.312 0 0 1 10.92 6.362c0 3.347.765 5.554.999 6.15a.563.563 0 0 1-.318.73z" fill="#fff"/></svg>
