<svg fill="currentColor" height="24" viewBox="0 0 24 24" width="24" xmlns="http://www.w3.org/2000/svg"><path d="m20.6316 16.5881c-.5307-.9131-1.3191-3.4884-1.3191-6.8381 0-1.9394-.7704-3.79936-2.1418-5.17072-1.3713-1.37136-3.2313-2.14178-5.1707-2.14178s-3.79937.77042-5.17073 2.14178c-1.37135 1.37136-2.14178 3.23132-2.14178 5.17072 0 3.3506-.78937 5.925-1.32 6.8381-.11642.1994-.1782.4259-.1791.6568-.00089.2309.05912.4579.17399.6581.11487.2003.28053.3667.48027.4825.19973.1158.42648.1768.65734.177h3.9825c.13663.8339.5652 1.592 1.20918 2.1391.64403.547 1.46143.8474 2.30643.8474s1.6625-.3004 2.3065-.8474c.644-.5471 1.0725-1.3052 1.2091-2.1391h3.9863c.2307-.0005.4572-.0618.6567-.1777s.3648-.2824.4795-.4826c.1146-.2002.1745-.4271.1735-.6578s-.0627-.457-.1791-.6563zm-8.6316 3.8494c-.5485-.0002-1.081-.1854-1.5112-.5256-.4303-.3403-.73316-.8157-.85974-1.3494h4.74184c-.1266.5337-.4295 1.0091-.8597 1.3494-.4302.3402-.9627.5254-1.5112.5256zm7.6603-3.0937c-.0154.0287-.0385.0526-.0666.0691-.0281.0166-.0602.0251-.0928.0246h-15.00091c-.0326.0005-.0647-.008-.0928-.0246-.0281-.0165-.05113-.0404-.06657-.0691-.01646-.0286-.02512-.0609-.02512-.0938s.00866-.0652.02512-.0938c.70969-1.2187 1.47187-4.0603 1.47187-7.4062 0-1.64103.6519-3.21484 1.81228-4.37522s2.73423-1.81228 4.37523-1.81228 3.2148.6519 4.3752 1.81228 1.8123 2.73419 1.8123 4.37522c0 3.345.7631 6.1828 1.4728 7.4062.0165.0286.0251.0609.0251.0938s-.0086.0652-.0251.0938z" fill="#fff"/></svg>
