<svg width="44" height="44" viewBox="0 0 44 44" fill="none" xmlns="http://www.w3.org/2000/svg">
<path d="M8.78125 10.2812C8.3125 9.85938 7.60938 9.95312 7.23438 10.4688C6.8125 10.9375 6.90625 11.6406 7.42188 12.0156L35.1719 33.7656C35.6406 34.1875 36.3438 34.0938 36.7188 33.5781C37.1406 33.1094 37.0469 32.4062 36.5312 32.0312L28.0938 25.375L30.3906 23.4062C30.7656 23.0781 31 22.6562 31 22.1406C31 21.25 30.25 20.5469 29.3594 20.5469H25.3281L27.8594 11.7344C28.0938 10.8906 27.4375 10 26.5469 10C26.2188 10 25.9375 10.1406 25.7031 10.3281L17.6406 17.2188L8.78125 10.2812ZM19.4688 18.625L24.8594 13.9844L22.7969 21.25L19.4688 18.625ZM24.7656 22.75H27.6719L26.2656 23.9688L24.7656 22.75ZM22.75 26.9688L19.0938 30.0625L20.5 25.1406L18.5781 23.6406L16.0938 32.3125C15.8594 33.1562 16.5156 34 17.4062 34C17.7344 34 18.0156 33.9062 18.25 33.7188L24.5312 28.375L22.75 26.9688ZM14.1719 20.1719L13.5156 20.7344C13.1875 21.0156 12.9531 21.4844 12.9531 21.9531C12.9531 22.7969 13.7031 23.5 14.5469 23.5H18.3906L14.1719 20.1719Z" fill="white"/>
</svg>
