<svg fill="currentColor" height="24" viewBox="0 0 24 24" width="24" xmlns="http://www.w3.org/2000/svg"><path d="m17.25 3.1875h-10.5c-.3481 0-.68194.13828-.92808.38442s-.38442.57998-.38442.92808v16.5c-.00003.1004.02682.199.07777.2856.05095.0865.12414.1578.21197.2065.08782.0487.18709.073.28748.0704s.19824-.0321.28341-.0853l5.70097-3.5625 5.7028 3.5625c.0851.0532.183.0827.2834.0853s.1996-.0217.2875-.0704c.0878-.0487.161-.12.2119-.2065.051-.0866.0778-.1852.0778-.2856v-16.5c0-.3481-.1383-.68194-.3844-.92808-.2462-.24614-.58-.38442-.9281-.38442zm.1875 16.7972-5.1403-3.2119c-.0894-.0559-.1927-.0855-.2981-.0855-.1055 0-.2088.0296-.2982.0855l-5.1384 3.2119v-15.4847c0-.04973.01975-.09742.05492-.13258.03516-.03517.08285-.05492.13258-.05492h10.5c.0497 0 .0974.01975.1326.05492.0351.03516.0549.08285.0549.13258z" fill="#fff"/></svg>
