<svg width="32" height="32" viewBox="0 0 32 32" xmlns="http://www.w3.org/2000/svg">
  <path d="M3.24996 15C3.25161 13.4755 3.85795 12.0139 4.93592 10.936C6.0139 9.85799 7.47547 9.25165 8.99996 9.25H13.9812C14.3037 9.2325 20.7437 8.805 26.875 3.6625C27.1299 3.4485 27.4407 3.31167 27.7707 3.26806C28.1007 3.22444 28.4363 3.27586 28.7381 3.41627C29.0399 3.55668 29.2955 3.78027 29.4747 4.06078C29.6539 4.3413 29.7494 4.66712 29.75 5V25C29.7522 25.3333 29.6582 25.6601 29.4793 25.9412C29.3004 26.2224 29.0441 26.4459 28.7412 26.585C28.509 26.693 28.2561 26.7493 28 26.75C27.5879 26.7502 27.1892 26.604 26.875 26.3375C21.875 22.1475 16.6787 21.0875 14.75 20.8288V25.0788C14.75 25.3668 14.679 25.6505 14.5432 25.9045C14.4073 26.1585 14.2108 26.3751 13.9712 26.535L12.5962 27.4513C12.3636 27.6061 12.0974 27.7031 11.8197 27.734C11.542 27.7648 11.2609 27.7288 11 27.6288C10.7391 27.5288 10.5059 27.3678 10.32 27.1593C10.134 26.9507 10.0007 26.7006 9.93121 26.43L8.41496 20.7162C7.00006 20.5696 5.6895 19.9044 4.73583 18.849C3.78217 17.7935 3.25288 16.4225 3.24996 15ZM27.8387 25.19C27.8751 25.2207 27.9194 25.2404 27.9665 25.2467C28.0137 25.2531 28.0616 25.2459 28.1048 25.2259C28.148 25.206 28.1846 25.1741 28.2103 25.1341C28.236 25.0941 28.2498 25.0476 28.25 25V5C28.2513 4.95241 28.2383 4.90551 28.2127 4.86539C28.1871 4.82527 28.15 4.79377 28.1062 4.775C28.073 4.75924 28.0367 4.75072 28 4.75C27.9419 4.75019 27.8859 4.77152 27.8425 4.81C22.3425 9.425 16.7175 10.4587 14.7537 10.685V19.31C16.7137 19.5413 22.3375 20.5763 27.8387 25.19ZM11.3837 26.065C11.3934 26.1039 11.4123 26.1399 11.4388 26.1699C11.4653 26.2 11.4987 26.2232 11.5361 26.2377C11.5734 26.2521 11.6137 26.2574 11.6536 26.253C11.6934 26.2486 11.7316 26.2347 11.765 26.2125L13.14 25.2962C13.1743 25.2733 13.2024 25.2423 13.2218 25.2059C13.2412 25.1694 13.2513 25.1288 13.2512 25.0875V20.75H9.97621L11.3837 26.065ZM8.99996 19.25H13.25V10.75H8.99996C7.87279 10.75 6.79179 11.1978 5.99476 11.9948C5.19773 12.7918 4.74996 13.8728 4.74996 15C4.74996 16.1272 5.19773 17.2082 5.99476 18.0052C6.79179 18.8022 7.87279 19.25 8.99996 19.25Z" fill="currentColor" />
</svg>