<svg width="20" height="20" viewBox="0 0 20 20" fill="none" xmlns="http://www.w3.org/2000/svg">
<circle cx="10" cy="10" r="10" fill="#E9973C"/>
<g clip-path="url(#clip0_1243_16023)">
<path fill-rule="evenodd" clip-rule="evenodd" d="M13.1588 10.3314C13.7929 10.1718 14.1901 9.77151 14.3579 9.13365C14.5752 8.30826 14.3532 7.66234 13.6686 7.15955C13.3088 6.89526 12.9051 6.71737 12.488 6.56856C12.4084 6.54017 12.3903 6.50553 12.4096 6.43091C12.4817 6.15209 12.552 5.87284 12.622 5.59352C12.6628 5.43042 12.7029 5.26714 12.7441 5.09981C12.7627 5.0239 12.7816 4.94716 12.8008 4.86922L11.7965 4.61917L11.3919 6.23607L10.5773 6.04241L10.9816 4.41565L9.983 4.16675C9.97791 4.18189 9.97307 4.19548 9.96857 4.20809C9.9599 4.23243 9.95251 4.25315 9.9472 4.2744C9.92158 4.37692 9.89587 4.47942 9.87016 4.58192C9.77521 4.96043 9.68026 5.33893 9.58996 5.71854C9.56844 5.80904 9.53848 5.82481 9.45101 5.80172C9.17687 5.72938 8.9015 5.66173 8.62614 5.59409C8.55172 5.57581 8.47731 5.55753 8.40293 5.53916C8.19746 5.4884 7.99187 5.43816 7.78355 5.38724C7.69665 5.36601 7.60927 5.34465 7.52122 5.32309L7.25383 6.3942C7.28243 6.40114 7.31034 6.40766 7.33774 6.41406C7.39572 6.42761 7.4514 6.44062 7.50645 6.45596C7.56922 6.47349 7.63255 6.48973 7.69589 6.50596C7.85458 6.54664 8.01336 6.58735 8.16373 6.64855C8.40316 6.74603 8.50144 6.99013 8.43945 7.23999C8.38691 7.45174 8.33445 7.66349 8.28198 7.87525C8.17046 8.32535 8.05894 8.77544 7.94679 9.22537C7.88116 9.48859 7.81512 9.75171 7.74907 10.0148C7.60999 10.5689 7.47092 11.123 7.33574 11.6781C7.29135 11.8603 7.09052 12.0327 6.87607 11.9703C6.70459 11.9205 6.52982 11.882 6.35323 11.8431C6.27602 11.826 6.19847 11.809 6.12069 11.7908L5.625 12.9334L7.66178 13.4487L7.2442 15.1314L8.24303 15.3796C8.24822 15.3603 8.25298 15.343 8.2574 15.3269C8.26597 15.2956 8.27327 15.2689 8.28001 15.2422C8.30402 15.1465 8.32807 15.0509 8.35211 14.9553C8.44778 14.5748 8.54344 14.1944 8.63694 13.8134C8.65144 13.7544 8.66802 13.7167 8.73676 13.7351C8.92407 13.785 9.11141 13.8347 9.30596 13.8864C9.36106 13.901 9.41673 13.9158 9.47315 13.9308L9.06335 15.5852L10.0601 15.8334C10.065 15.819 10.0697 15.8059 10.0741 15.7936C10.0828 15.7694 10.0904 15.7483 10.0957 15.7267C10.1196 15.6309 10.1436 15.535 10.1675 15.4392C10.2647 15.0503 10.3619 14.6614 10.4552 14.2716C10.4767 14.1818 10.5096 14.1516 10.6023 14.1746C10.6688 14.1911 10.737 14.2005 10.8053 14.2098C10.838 14.2143 10.8708 14.2188 10.9034 14.224C11.4233 14.3081 11.9446 14.3388 12.4657 14.2422C12.9362 14.1549 13.3389 13.9443 13.6405 13.5615C13.9649 13.1497 14.1316 12.6753 14.203 12.162C14.2762 11.6353 14.1433 11.1707 13.7578 10.8003C13.6332 10.6807 13.4925 10.5779 13.351 10.4745C13.2866 10.4275 13.2221 10.3803 13.1588 10.3314ZM10.3078 9.39121C10.7557 9.49721 11.206 9.579 11.6693 9.50442C12.3408 9.39635 12.5393 8.80498 12.427 8.37416C12.3479 8.07033 12.1235 7.881 11.8618 7.73196C11.4536 7.49955 11.0035 7.39494 10.5535 7.29034C10.4963 7.27704 10.4389 7.26372 10.3818 7.25015C10.3049 7.23189 10.2913 7.28077 10.277 7.34019C10.2365 7.50803 10.1944 7.67549 10.1523 7.84294C10.1294 7.93396 10.1065 8.02498 10.0838 8.11605C10.0193 8.37578 9.95503 8.63557 9.88972 8.89956L9.80026 9.26104C9.8583 9.27599 9.91446 9.29075 9.96939 9.30519C10.0856 9.33574 10.1964 9.36485 10.3078 9.39121ZM9.36469 11.0022C9.2452 11.4791 9.12572 11.9559 9.00518 12.4325C8.98696 12.5045 9.01799 12.5173 9.07911 12.5306C9.21995 12.5612 9.36035 12.5944 9.50073 12.6275C9.76438 12.6897 10.028 12.7518 10.2945 12.7976C10.6596 12.8603 11.031 12.8695 11.3987 12.7839C12.1222 12.6155 12.3315 11.8091 11.9726 11.3217C11.8042 11.093 11.5761 10.9381 11.3254 10.814C10.8281 10.5677 10.2934 10.4452 9.76018 10.323C9.69318 10.3076 9.62621 10.2923 9.55934 10.2767C9.55627 10.2805 9.55329 10.2837 9.55062 10.2865C9.54567 10.2918 9.54181 10.2959 9.54062 10.3007C9.48197 10.5342 9.42344 10.7678 9.36492 11.0013L9.36469 11.0022Z" fill="white"/>
</g>
<defs>
<clipPath id="clip0_1243_16023">
<rect width="11.6667" height="11.6667" fill="white" transform="translate(4.16699 4.16675)"/>
</clipPath>
</defs>
</svg>
