<svg width="24" height="24" viewBox="0 0 24 24" fill="currentColor" xmlns="http://www.w3.org/2000/svg"><path d="M19.5 5.438h-2.7l-1.331-2a.56.56 0 0 0-.469-.25H9a.56.56 0 0 0-.469.25l-1.333 2H4.5A2.063 2.063 0 0 0 2.438 7.5V18A2.063 2.063 0 0 0 4.5 20.063h15A2.06 2.06 0 0 0 21.563 18V7.5A2.06 2.06 0 0 0 19.5 5.438M20.438 18a.94.94 0 0 1-.938.938h-15A.94.94 0 0 1 3.563 18V7.5a.937.937 0 0 1 .937-.937h3a.56.56 0 0 0 .469-.25l1.332-2h5.397l1.333 2a.56.56 0 0 0 .469.25h3a.937.937 0 0 1 .938.937zM12 8.438a3.938 3.938 0 1 0 0 7.875 3.938 3.938 0 0 0 0-7.875m0 6.75a2.812 2.812 0 1 1 0-5.624 2.812 2.812 0 0 1 0 5.624" fill="#fff"/></svg>
