<svg width="24" height="24" viewBox="0 0 24 24" fill="currentColor" xmlns="http://www.w3.org/2000/svg"><path d="M19.5 5.438h-2.7l-1.331-2a.56.56 0 0 0-.469-.25H9a.56.56 0 0 0-.469.25l-1.333 2H4.5A2.063 2.063 0 0 0 2.438 7.5V18A2.063 2.063 0 0 0 4.5 20.063h15A2.06 2.06 0 0 0 21.563 18V7.5A2.06 2.06 0 0 0 19.5 5.438M20.438 18a.94.94 0 0 1-.938.938h-15A.94.94 0 0 1 3.563 18V7.5a.937.937 0 0 1 .937-.937h3a.56.56 0 0 0 .469-.25l1.332-2h5.397l1.333 2a.56.56 0 0 0 .469.25h3a.937.937 0 0 1 .938.937zm-4.125-9v2.25a.56.56 0 0 1-.563.563H13.5a.562.562 0 1 1 0-1.126h.938l-.188-.195a3.2 3.2 0 0 0-4.16-.293.565.565 0 0 1-.884-.309.56.56 0 0 1 .207-.59 4.33 4.33 0 0 1 5.647.41l.127.134V9a.563.563 0 0 1 1.126 0M14.7 14.663a.563.563 0 0 1-.112.787 4.33 4.33 0 0 1-5.638-.4l-.01-.01-.127-.134v.844a.562.562 0 1 1-1.126 0V13.5a.56.56 0 0 1 .563-.562h2.25a.562.562 0 1 1 0 1.124h-.937l.187.196a3.2 3.2 0 0 0 4.16.293.563.563 0 0 1 .79.111" fill="#fff"/></svg>
