<?xml version="1.0" encoding="UTF-8"?><svg fill="none" viewBox="0 0 201 160" xmlns="http://www.w3.org/2000/svg"><path d="m175.69 80c0 44.044-35.75 79.75-79.851 79.75-44.101 0-79.851-35.706-79.851-79.75 0-44.044 35.75-79.75 79.851-79.75 44.101 0 79.851 35.706 79.851 79.75z" fill="url(#e)" fill-opacity=".1" stroke="url(#d)" stroke-width=".5"/><path d="m48.887 116.44h6.6409m-7.9691-3.983h9.2973m-7.305 9.283 2.6564 3.979 2.6563-3.979h5.3128c0.7345 0 1.3282-0.593 1.3282-1.327v-11.939c0-0.733-0.5937-1.326-1.3282-1.326h-15.938c-0.7345 0-1.3282 0.593-1.3282 1.326v11.939c0 0.734 0.5937 1.327 1.3282 1.327h5.3128z" stroke="#E37444" stroke-linecap="round" stroke-linejoin="round" stroke-opacity=".2"/><path d="m126.29 20.102h3.874v18.367c0 0.8453-0.694 1.5306-1.549 1.5306h-15.496c-0.856 0-1.55-0.6853-1.55-1.5306v-18.367h3.874m1.55 10.714 3.099 3.0612 5.423-6.1224m-9.297-9.1837h9.297v3.0612c0 0.8454-0.693 1.5306-1.549 1.5306h-6.198c-0.856 0-1.55-0.6852-1.55-1.5306v-3.0612z" stroke="#E37444" stroke-linecap="round" stroke-linejoin="round" stroke-opacity=".2"/><path d="m106.99 65.306c0 6.0869-4.995 11.02-11.157 11.02-6.1623 0-11.157-4.9335-11.157-11.02 0-6.087 4.9946-11.02 11.157-11.02 6.162 0 11.157 4.9334 11.157 11.02z" clip-rule="evenodd" fill="url(#a)" fill-rule="evenodd"/><path d="m114.43 105.71h-37.19v-7.3413c0-6.0904 4.9951-11.026 11.157-11.026h14.876c6.162 0 11.157 4.9353 11.157 11.026v7.3413z" clip-rule="evenodd" fill="url(#a)" fill-rule="evenodd"/><ellipse cx="24.316" cy="55.714" rx="24.316" ry="24.286" fill="url(#c)"/><path d="m18.038 53.416c0.086 0.083 0.2129 0.0851 0.3012 5e-3l6.8557-6.2195c0.0905-0.0821 0.2211-0.0776 0.3069 0.0106l6.0174 6.189c0.0877 0.0902 0.222 0.0926 0.3122 0.0056l6.197-5.9741c0.152-0.1466 0.3879-0.0259 0.3879 0.1986v13.572c0 0.0967-0.0456 0.1846-0.1223 0.2293-6.5297 3.8042-20.194 3.8042-26.724 0-0.0767-0.0447-0.1223-0.1325-0.1223-0.2292l-4e-3 -13.572c-1e-4 -0.2246 0.2358-0.3454 0.3879-0.1988l6.2064 5.9833z" clip-rule="evenodd" fill-rule="evenodd" stroke="#FCF7F7" stroke-linejoin="round"/><ellipse cx="175.94" cy="104.29" rx="24.316" ry="24.286" fill="url(#b)"/><path d="m167.71 94.993v-1e-4l-0.01-0.0033-0.762-0.2359c-0.582-0.1803-1.212 0.0651-1.518 0.5922l-0.382 0.6571-1.904 3.1806v0l-3e-3 0.0057-0.392 0.6736c-0.314 0.5412-0.201 1.2292 0.271 1.6412v0l0.565 0.494v0l5e-3 4e-3 1.589 1.351c-0.041 0.286-0.074 0.604-0.074 0.933 0 0.328 0.033 0.647 0.074 0.932l-1.581 1.344v0l-5e-3 5e-3 -0.573 0.501c-0.472 0.412-0.585 1.1-0.271 1.641v0l0.386 0.664v0l4e-3 6e-3 1.909 3.189 0.381 0.658c0.306 0.529 0.938 0.775 1.521 0.593l0.745-0.232v0l0.01-4e-3 2.143-0.716c0.487 0.336 1.005 0.639 1.558 0.898l0.427 2.074 1e-3 4e-3 0.147 0.745c0.12 0.613 0.658 1.055 1.283 1.055h5.362c0.624 0 1.161-0.44 1.283-1.052l-0.491-0.098 0.491 0.098 0.148-0.746 1e-3 -2e-3v-2e-3 -1e-3l0.427-2.075c0.552-0.259 1.07-0.562 1.557-0.898l2.128 0.712v0l9e-3 3e-3 0.76 0.237c0.583 0.181 1.214-0.063 1.521-0.591l0.384-0.659 1.902-3.182v0l3e-3 -4e-3 0.392-0.672c0.316-0.542 0.203-1.232-0.27-1.645v0l-0.567-0.494v0l-5e-3 -4e-3 -1.588-1.349c0.041-0.286 0.074-0.604 0.074-0.933 0-0.33-0.033-0.647-0.074-0.933l1.58-1.344h1e-3l4e-3 -4e-3 0.575-0.5c0.473-0.412 0.586-1.102 0.27-1.6444l-0.388-0.6645v0l-3e-3 -0.0047-1.905-3.1871-3e-3 -0.0046-0.383-0.6562c-0.307-0.5256-0.936-0.77-1.517-0.5899l-0.745 0.2304v-1e-4l-0.01 0.0035-2.145 0.7169c-0.486-0.3357-1.005-0.639-1.557-0.8976l-0.427-2.0755v-0.0013-0.0017l-1e-3 -0.0016-0.148-0.7461c-0.122-0.6117-0.659-1.0519-1.283-1.0519h-5.362c-0.625 0-1.163 0.4416-1.283 1.0547l-0.148 0.7467-0.427 2.0765c-0.553 0.2586-1.071 0.562-1.558 0.8978l-2.128-0.7114zm4.47 9.2931c0-2.07 1.682-3.75 3.755-3.75s3.755 1.68 3.755 3.75-1.682 3.75-3.755 3.75-3.755-1.68-3.755-3.75z" stroke="#FCF7F7" stroke-linecap="round" stroke-linejoin="round"/><path d="m115.86 132.86v-10c0-0.789 0.641-1.428 1.431-1.428h4.291l2.861 2.857h5.721c0.79 0 1.431 0.639 1.431 1.428v7.143c0 0.789-0.641 1.429-1.431 1.429h-12.873m-1.431-1.429c0 0.789 0.641 1.429 1.431 1.429m-1.431-1.429v-4.286h-2.86c-0.79 0-1.431 0.64-1.431 1.429v10c0 0.789 0.641 1.429 1.431 1.429h12.873c0.79 0 1.43-0.64 1.43-1.429v-5.714h-10.012" stroke="#E37444" stroke-linecap="round" stroke-linejoin="round" stroke-opacity=".2"/><defs><linearGradient id="e" x1="95.835" x2="95.835" y2="160" gradientUnits="userSpaceOnUse"><stop stop-color="#5D384D" offset="0"/><stop stop-color="#706031" offset="1"/></linearGradient><linearGradient id="d" x1="95.835" x2="95.835" y2="160" gradientUnits="userSpaceOnUse"><stop stop-color="#A55282" offset="0"/><stop stop-color="#F27C34" offset="1"/></linearGradient><linearGradient id="a" x1="95.835" x2="95.835" y1="54.286" y2="105.71" gradientUnits="userSpaceOnUse"><stop stop-color="#A55282" offset="0"/><stop stop-color="#F27C34" offset="1"/></linearGradient><linearGradient id="c" x1="24.316" x2="24.316" y1="31.429" y2="80" gradientUnits="userSpaceOnUse"><stop stop-color="#3B2C39" offset="0"/><stop stop-color="#4A342A" offset="1"/></linearGradient><linearGradient id="b" x1="175.94" x2="175.94" y1="80" y2="128.57" gradientUnits="userSpaceOnUse"><stop stop-color="#3B2C39" offset="0"/><stop stop-color="#4A342A" offset="1"/></linearGradient></defs></svg>