<svg xmlns="http://www.w3.org/2000/svg" width="28" height="28" viewBox="0 0 28 28" fill="none"><path fill="currentColor" d="M10.752 14.27a.657.657 0 0 0-.716.141l-2.433 2.433H5.25a.656.656 0 0 0-.656.656v4.375a.656.656 0 0 0 .656.656h2.353l2.433 2.433a.656.656 0 0 0 1.12-.464v-9.625a.655.655 0 0 0-.404-.606Zm-.908 8.64L8.339 21.41a.656.656 0 0 0-.464-.192H5.906v-3.063h1.969c.174 0 .34-.07.464-.192l1.505-1.504v6.45Zm6.562-3.223a4.214 4.214 0 0 1-2.078 3.63.656.656 0 0 1-.656-1.134 2.898 2.898 0 0 0 0-4.991.657.657 0 0 1 .656-1.134 4.214 4.214 0 0 1 2.078 3.63Zm6.808-10.526-6.125-6.125a.656.656 0 0 0-.464-.192h-10.5a1.531 1.531 0 0 0-1.531 1.531v8.75a.656.656 0 1 0 1.312 0v-8.75a.219.219 0 0 1 .219-.219h9.844v5.469a.656.656 0 0 0 .656.656h5.469v13.344a.219.219 0 0 1-.219.219h-3.5a.656.656 0 1 0 0 1.312h3.5a1.532 1.532 0 0 0 1.531-1.531v-14c0-.174-.07-.34-.192-.464ZM17.28 5.084l3.885 3.885h-3.885V5.084Z"/></svg>
