<svg fill="currentColor" height="56" viewBox="0 0 46 56" width="46" xmlns="http://www.w3.org/2000/svg"><rect fill="#31333a" height="56" rx="8" width="46"/><path d="m20.2906 31.0562c-.1141-.1714-.2688-.312-.4503-.4093-.1816-.0972-.3843-.1481-.5903-.1481s-.4087.0509-.5903.1481c-.1815.0973-.3362.2379-.4503.4093l-3.2578 4.8891-1.525-2.3719c-.1132-.1761-.2688-.3209-.4525-.4213-.1838-.1003-.3898-.1529-.5991-.1529s-.4153.0526-.5991.1529c-.1837.1004-.3393.2452-.4525.4213l-5.62497 8.75c-.12155.1889-.18999.407-.1981.6314-.00812.2245.04438.4469.15198.6441.1076.1971.26632.3616.45948.4762s.41362.175.63821.1749h20c.2264.0001.4485-.0612.6427-.1774.1943-.1163.3533-.2831.4601-.4826.1069-.1996.1575-.4244.1465-.6505-.0109-.2261-.083-.445-.2087-.6333zm-11.25154 10.6938 3.33594-5.1891 1.5047 2.3438c.1122.1747.2662.3187.448.419s.3858.1537.5934.1554c.2077.0017.4125-.0484.5959-.1457.1835-.0972.3398-.2387.4549-.4115l3.2812-4.9172 5.161 7.7453zm27.34374-20.8844-8.75-8.75c-.2342-.234-.5517-.3654-.8828-.3656h-15c-.663 0-1.2989.2634-1.76777.7322-.46884.4689-.73223 1.1048-.73223 1.7678v15c0 .3315.13169.6495.36611.8839s.55239.3661.88389.3661.6495-.1317.8839-.3661.3661-.5524.3661-.8839v-15h13.75v7.5c0 .3315.1317.6495.3661.8839s.5524.3661.8839.3661h7.5v18.75h-1.25c-.3315 0-.6495.1317-.8839.3661s-.3661.5524-.3661.8839.1317.6495.3661.8839.5524.3661.8839.3661h1.25c.663 0 1.2989-.2634 1.7678-.7322.4688-.4689.7322-1.1048.7322-1.7678v-20c.0001-.1642-.0321-.3268-.0948-.4786-.0628-.1517-.1548-.2896-.2708-.4058zm-8.3828-4.8484 4.4828 4.4828h-4.4828z" fill="#727781"/></svg>
