<svg xmlns="http://www.w3.org/2000/svg" width="24" height="24" fill="currentColor">
  <path fill="#fff" d="M20.25 3.938H3.75A1.313 1.313 0 0 0 2.437 5.25v12a1.313 1.313 0 0 0 1.313 1.313h5.575a.188.188 0 0 1 .16.093l1.39 2.269a1.312 1.312 0 0 0 2.25.005l1.39-2.274a.188.188 0 0 1 .16-.093h5.575a1.313 1.313 0 0 0 1.313-1.313v-12a1.313 1.313 0 0 0-1.313-1.313Zm.188 13.312a.188.188 0 0 1-.188.188h-5.575a1.312 1.312 0 0 0-1.125.632l-1.389 2.274a.188.188 0 0 1-.324 0l-1.388-2.27a1.321 1.321 0 0 0-1.125-.636H3.75a.187.187 0 0 1-.188-.187V5.25a.187.187 0 0 1 .188-.188h16.5a.188.188 0 0 1 .188.188v12Zm-7.5-6a.937.937 0 1 1-1.875 0 .937.937 0 0 1 1.874 0Zm-4.126 0a.937.937 0 1 1-1.874 0 .937.937 0 0 1 1.875 0Zm8.25 0a.937.937 0 1 1-1.874 0 .937.937 0 0 1 1.874 0Z"/>
</svg>
