<svg fill="currentColor" height="56" viewBox="0 0 46 56" width="46" xmlns="http://www.w3.org/2000/svg"><rect fill="#31333a" height="56" rx="8" width="46"/><path d="m26.1609 31.9391c-.1801-.1121-.3857-.1765-.5975-.1872-.2119-.0106-.423.0328-.6134.1262l-3.3156 1.6235c-.1593-.5077-.4765-.9514-.9053-1.2664s-.947-.485-1.4791-.4852h-8.75c-.66304 0-1.29893.2634-1.76777.7322-.46884.4689-.73223 1.1048-.73223 1.7678v6.25c0 .663.26339 1.2989.73223 1.7678.46884.4688 1.10473.7322 1.76777.7322h8.75c.5502-.0006 1.0848-.1827 1.5209-.518.4362-.3353.7496-.8052.8916-1.3367l3.2563 1.7188c.191.1003.4048.1495.6205.1427s.426-.0693.6104-.1815c.1844-.1121.3366-.2701.4418-.4586.1052-.1884.1598-.4009.1585-.6167v-8.75c0-.2123-.0541-.4211-.1572-.6067-.103-.1857-.2517-.342-.4319-.4542zm-6.9109 8.5609h-8.75v-6.25h8.75v4.8438.0593zm5-.8188-2.5-1.3156v-2.1375l2.5-1.2234zm12.1344-18.8156-8.75-8.75c-.1162-.116-.2541-.208-.4058-.2708-.1518-.0627-.3144-.0949-.4786-.0948h-15c-.663 0-1.2989.2634-1.76777.7322-.46884.4689-.73223 1.1048-.73223 1.7678v13.75c0 .3315.1317.6495.36612.8839s.55238.3661.88388.3661.6495-.1317.8839-.3661.3661-.5524.3661-.8839v-13.75h13.75v7.5c0 .3315.1317.6495.3661.8839s.5524.3661.8839.3661h7.5v18.75h-3.75c-.3315 0-.6495.1317-.8839.3661s-.3661.5524-.3661.8839.1317.6495.3661.8839.5524.3661.8839.3661h3.75c.663 0 1.2989-.2634 1.7678-.7322.4688-.4689.7322-1.1048.7322-1.7678v-20c.0001-.1642-.0321-.3268-.0948-.4786-.0628-.1517-.1548-.2896-.2708-.4058zm-8.3844-4.8484 4.4828 4.4828h-4.4828z" fill="#727781"/></svg>
