<svg fill="currentColor" height="56" viewBox="0 0 46 56" width="46" xmlns="http://www.w3.org/2000/svg"><rect fill="#31333a" height="56" rx="8" width="46"/><path d="m36.3844 20.8656-8.75-8.75c-.1162-.116-.2541-.208-.4058-.2708-.1518-.0627-.3144-.0949-.4786-.0948h-15c-.663 0-1.2989.2634-1.76777.7322-.46884.4689-.73223 1.1048-.73223 1.7678v27.5c0 .663.26339 1.2989.73223 1.7678.46887.4688 1.10477.7322 1.76777.7322h22.5c.663 0 1.2989-.2634 1.7678-.7322.4688-.4689.7322-1.1048.7322-1.7678v-20c.0001-.1642-.0321-.3268-.0948-.4786-.0628-.1517-.1548-.2896-.2708-.4058zm-8.3844-4.8484 4.4828 4.4828h-4.4828zm6.25 25.7328h-22.5v-27.5h13.75v7.5c0 .3315.1317.6495.3661.8839s.5524.3661.8839.3661h7.5zm-5-12.5c0 .3315-.1317.6495-.3661.8839s-.5524.3661-.8839.3661h-10c-.3315 0-.6495-.1317-.8839-.3661s-.3661-.5524-.3661-.8839.1317-.6495.3661-.8839.5524-.3661.8839-.3661h10c.3315 0 .6495.1317.8839.3661s.3661.5524.3661.8839zm0 5c0 .3315-.1317.6495-.3661.8839s-.5524.3661-.8839.3661h-10c-.3315 0-.6495-.1317-.8839-.3661s-.3661-.5524-.3661-.8839.1317-.6495.3661-.8839.5524-.3661.8839-.3661h10c.3315 0 .6495.1317.8839.3661s.3661.5524.3661.8839z" fill="#727781"/></svg>
