<svg fill="currentColor" height="20" viewBox="0 0 20 20" width="20" xmlns="http://www.w3.org/2000/svg"><path d="m18.1075 14.6349c.4408-.896.6604-1.8846.6406-2.883s-.2786-1.97744-.7546-2.85525c-.476-.8778-1.1554-1.62878-1.9813-2.19003s-1.7743-.91644-2.7657-1.03581c-.3288-.76647-.8076-1.45938-1.4084-2.0379-.6007-.57853-1.3112-1.03097-2.08945-1.33067-.77831-.2997-1.60872-.4406-2.44232-.41439s-1.65352.21899-2.41146.56699-1.43857.84417-2.00178 1.45929-.99761 1.33674-1.27761 2.12234c-.28.78561-.39994 1.61931-.35274 2.45198.0472.83268.26057 1.64745.62755 2.39645l-.59844 2.0953c-.0534.1874-.05574.3858-.00677.5744.04896.1887.14745.3608.28527.4986.13782.1379.30997.2364.49863.2853.18866.049.38698.0466.57443-.0068l2.09532-.5984c.63227.3104 1.31239.512 2.01171.5961.33336.781.82238 1.4859 1.4372 2.0716.61483.5858 1.34257 1.0401 2.13886 1.3352.7962.2952 1.6442.425 2.4923.3815s1.6784-.2594 2.4402-.6344l2.0953.5984c.1875.0534.3858.0558.5745.0068.1886-.0489.3608-.1474.4986-.2853.1378-.1378.2363-.3099.2853-.4986.049-.1886.0466-.387-.0068-.5744zm-13.30159-2.1953c-.05808 0-.1159.0078-.17187.0234l-2.06328.5898.58984-2.0632c.04421-.1572.02514-.3255-.05312-.4688-.57468-1.05505-.74993-2.28185-.49363-3.45561.25629-1.17375.92697-2.21585 1.88912-2.93532.96216-.71948 2.15135-1.06816 3.34968-.98214s2.32555.60098 3.17505 1.4505c.8495.84953 1.3645 1.97673 1.4505 3.17506s-.2626 2.38751-.9821 3.34971c-.7195.9621-1.7616 1.6328-2.93535 1.8891-1.17376.2563-2.40056.081-3.45562-.4936-.09147-.0512-.19441-.0783-.29922-.0789zm12.03129 2.3.5898 2.0632-2.0633-.5898c-.1572-.0442-.3254-.0251-.4687.0531-1.1521.6268-2.5043.7763-3.7655.4163-1.26117-.36-2.33065-1.2007-2.97827-2.3413.85582-.0891 1.68399-.3541 2.43257-.7785.7485-.4243 1.4013-.9987 1.9174-1.6872.516-.6886.8842-1.4763 1.0815-2.31384.1972-.83754.2192-1.7068.0646-2.55325.7489.17649 1.447.52346 2.0399 1.01387.5929.49042 1.0646 1.11105 1.3784 1.81359.3139.70253.4613 1.46803.4309 2.23683-.0304.7689-.2379 1.5203-.6062 2.1959-.0789.1439-.098.3131-.0531.4711z" fill="#fff"/></svg>
