<svg fill="none" height="24" viewBox="0 0 24 24" width="24" xmlns="http://www.w3.org/2000/svg"><path d="m10.2844 2.86293c.7766-1.29597 2.6546-1.29597 3.4312 0l.4608.76905c.4529.75579 1.3471 1.12616 2.2017.91198l.8697-.21793c1.4655-.36726 2.7934.96066 2.4262 2.42617l-.218.86967c-.2141.85467.1562 1.74883.912 2.20172l.7691.46081c1.2959.7766 1.2959 2.6546 0 3.4312l-.7691.4608c-.7558.4529-1.1261 1.3471-.912 2.2017l.218.8697c.3672 1.4655-.9607 2.7934-2.4262 2.4262l-.8697-.218c-.8546-.2141-1.7488.1562-2.2017.912l-.4608.7691c-.7766 1.2959-2.6546 1.2959-3.4312 0l-.46081-.7691c-.45289-.7558-1.34705-1.1261-2.20172-.912l-.86967.218c-1.46551.3672-2.79343-.9607-2.42617-2.4262l.21793-.8697c.21418-.8546-.15619-1.7488-.91198-2.2017l-.76905-.4608c-1.29597-.7766-1.29597-2.6546 0-3.4312l.76905-.46081c.75579-.45289 1.12616-1.34705.91198-2.20172l-.21793-.86967c-.36726-1.46552.96065-2.79343 2.42617-2.42617l.86967.21793c.85467.21418 1.74883-.15619 2.20172-.91198z" fill="#26d2e8" fill-opacity=".2"/><path d="m7.9375 12.3333 2.3333 2.3334 5.6667-5.6667" stroke="#26d2e8" stroke-linecap="round" stroke-linejoin="round"/></svg>
