<svg fill="currentColor" height="24" viewBox="0 0 24 24" width="24" xmlns="http://www.w3.org/2000/svg"><path d="m21.3975 7.1475-11.99999 12c-.10547.1053-.24844.1645-.3975.1645-.14907 0-.29203-.0592-.3975-.1645l-5.25-5.25c-.09936-.1066-.15346-.2477-.15088-.3934.00257-.1457.0616-.2848.16466-.3878.10306-.1031.2421-.1621.38782-.1647.14573-.0026.28677.0515.3934.1509l4.8525 4.8516 11.60249-11.6016c.1066-.09936.2477-.15345.3934-.15088s.2848.0616.3878.16466c.1031.10306.1621.2421.1647.38783.0026.14572-.0515.28676-.1509.39339z"/></svg>
