<svg fill="currentColor" height="24" viewBox="0 0 24 24" width="24" xmlns="http://www.w3.org/2000/svg"><path d="m16.1475 9.3525c.1053.10547.1645.24844.1645.3975s-.0592.292-.1645.3975l-5.25 5.25c-.1055.1053-.2484.1645-.3975.1645s-.292-.0592-.3975-.1645l-2.25-2.25c-.09936-.1066-.15345-.2477-.15088-.3934s.06161-.2848.16467-.3878c.10306-.1031.2421-.1621.38782-.1647.14573-.0026.28676.0515.39339.1509l1.8525 1.8516 4.8525-4.8516c.1055-.10534.2484-.16451.3975-.16451s.292.05917.3975.16451zm5.415 2.6475c0 1.8913-.5608 3.7401-1.6116 5.3126-1.0507 1.5726-2.5442 2.7982-4.2915 3.522s-3.67.9131-5.5249.5442c-1.85499-.369-3.55886-1.2798-4.8962-2.6171s-2.24808-3.0412-2.61705-4.8961c-.36898-1.855-.17961-3.7777.54416-5.52501.72376-1.74732 1.94941-3.24078 3.52195-4.29152 1.57255-1.05074 3.42134-1.61157 5.31264-1.61157 2.5352.00298 4.9658 1.01141 6.7584 2.80408 1.7927 1.79267 2.8011 4.2232 2.8041 6.75842zm-1.125 0c0-1.6688-.4948-3.30008-1.422-4.68762-.9271-1.38754-2.2449-2.469-3.7866-3.10761-1.5418-.63862-3.2383-.80571-4.875-.48015-1.63668.32557-3.1401 1.12916-4.32011 2.30917-1.18 1.18-1.9836 2.68342-2.30916 4.32011-.32556 1.6367-.15847 3.3332.48014 4.875.63861 1.5417 1.72007 2.8595 3.10761 3.7866s3.01882 1.422 4.68762 1.422c2.237-.0025 4.3817-.8922 5.9635-2.474s2.4715-3.7265 2.474-5.9635z" fill="#fff"/></svg>
