<svg fill="currentColor" height="24" viewBox="0 0 24 24" width="24" xmlns="http://www.w3.org/2000/svg"><path d="m21.796 7.54594-12.00004 11.99996c-.10452.1049-.22871.1881-.36546.2449-.13674.0568-.28335.086-.43142.086-.14806 0-.29467-.0292-.43142-.086-.13674-.0568-.26094-.14-.36545-.2449l-5.25-5.25c-.10465-.1046-.18766-.2288-.24429-.3656-.05664-.1367-.08579-.2832-.08579-.4312s.02915-.2946.08579-.4313c.05663-.1367.13964-.261.24429-.3656.10464-.1047.22888-.1877.36561-.2443s.28327-.0858.43126-.0858c.148 0 .29454.0292.43127.0858s.26096.1396.36561.2443l4.45406 4.454 11.20408-11.20214c.2113-.21134.498-.33007.7969-.33007.2988 0 .5855.11873.7968.33007.2114.21135.3301.49799.3301.79688 0 .29888-.1187.58553-.3301.79687z" /></svg>
