<svg fill="currentColor" height="24" viewBox="0 0 24 24" width="24" xmlns="http://www.w3.org/2000/svg"><path d="m12 2.25c-1.9284 0-3.81343.57183-5.41681 1.64317-1.60337 1.07134-2.85306 2.59409-3.59101 4.37567-.73796 1.78156-.93104 3.74196-.55483 5.63326.3762 1.8913 1.3048 3.6286 2.66836 4.9922 1.36357 1.3636 3.10085 2.2922 4.99219 2.6684 1.8913.3762 3.8517.1831 5.6333-.5549 1.7815-.7379 3.3043-1.9876 4.3756-3.591 1.0714-1.6034 1.6432-3.4884 1.6432-5.4168-.0027-2.58502-1.0308-5.06339-2.8587-6.89128-1.8279-1.82788-4.3063-2.85599-6.8913-2.85872zm4.2806 8.0306-5.25 5.25c-.0696.0698-.1523.1251-.2434.1628-.091.0378-.1886.0572-.2872.0572s-.1962-.0194-.2872-.0572c-.091-.0377-.1738-.093-.24342-.1628l-2.25-2.25c-.14073-.1407-.21979-.3316-.21979-.5306s.07906-.3899.21979-.5306c.14073-.1408.3316-.2198.53062-.2198.19903 0 .3899.079.53063.2198l1.71937 1.7203 4.7194-4.72033c.0697-.06968.1524-.12495.2434-.16267.0911-.03771.1887-.05712.2872-.05712.0986 0 .1961.01941.2872.05712.091.03772.1737.09299.2434.16267.0697.06969.125.15241.1627.24346.0377.09104.0571.18862.0571.28717s-.0194.19613-.0571.2872c-.0377.091-.093.1737-.1627.2434z"/></svg>
