<svg fill="currentColor" height="24" viewBox="0 0 24 24" width="24" xmlns="http://www.w3.org/2000/svg"><path d="m17.031 12.531-7.49996 7.5c-.06968.0697-.15241.125-.24345.1627-.09105.0377-.18863.0571-.28717.0571-.09855 0-.19613-.0194-.28718-.0571-.09104-.0377-.17377-.093-.24345-.1627-.06968-.0696-.12496-.1524-.16267-.2434-.03771-.0911-.05712-.1886-.05712-.2872 0-.0985.01941-.1961.05712-.2872.03771-.091.09299-.1737.16267-.2434l6.97031-6.9694-6.97031-6.96936c-.14073-.14073-.21979-.3316-.21979-.53062 0-.19903.07906-.3899.21979-.53063s.3316-.21979.53063-.21979c.19902 0 .38989.07906.53062.21979l7.49996 7.50001c.0698.0696.1251.1524.1628.2434.0378.0911.0572.1887.0572.2872 0 .0986-.0194.1962-.0572.2872-.0377.0911-.093.1738-.1628.2434z"/></svg>
