<svg fill="currentColor" height="24" viewBox="0 0 24 24" width="24" xmlns="http://www.w3.org/2000/svg"><path d="m21.9956 20.4938c-2.1815-1.0604-3.4331-3.3376-3.4331-6.2438v-1.6219c-.0001-.2625-.079-.519-.2264-.7363-.1474-.2172-.3565-.3853-.6005-.4824l-2.3334-.9216c-.1145-.0455-.2189-.1132-.3072-.1991-.0883-.086-.1588-.1884-.2075-.30163-.0486-.11319-.0745-.23487-.0761-.35807s.021-.24551.0667-.35994l1.9969-4.96594c.1255-.30298.1885-.62815.1853-.95606-.0032-.3279-.0725-.65179-.2038-.95228s-.3219-.5714-.5603-.79651c-.2385-.22511-.5199-.39979-.8274-.51358-1.2141-.452816-2.6138.1725-3.1228 1.40625l-1.9688 4.97906c-.0454.11465-.1129.21922-.1988.30773-.0858.08851-.18826.15922-.30146.20807-.11321.04886-.23495.0749-.35824.07664-.12328.00174-.2457-.02086-.36025-.0665l-2.37375-.96469c-.24031-.09764-.5043-.12134-.75816-.06806s-.48605.18111-.66684.36712c-1.93875 1.99032-2.92218 4.31909-2.92218 6.91969-.00484 2.6621 1.02439 5.2221 2.87062 7.14.0531.0552.11691.099.18751.1286.07061.0297.14653.0446.22312.0439h16.03123c.1274.0001.251-.043.3507-.1223.0996-.0793.1694-.1901.198-.3142.0285-.1241.014-.2543-.041-.3691-.055-.1149-.1474-.2076-.2621-.2631zm-15.82965-12.38255c.02578-.02507.05822-.0422.09346-.04935.03524-.00714.07179-.00401.10529.00904l2.38125.96468c.25203.10091.52149.15106.79294.14759.27145-.00346.53951-.06049.78891-.16779.2494-.10731.4751-.26279.6642-.45752.1892-.19473.338-.42489.438-.67728l1.9688-4.96875c.2812-.66843 1.0312-1.01343 1.6875-.76968.1656.06194.3169.1567.445.27859.128.12188.2302.26838.3002.43071s.1066.33713.1074.51393c.0008.17679-.0341.35192-.1026.51489l-2.0025 4.97813c-.1991.50754-.1897 1.07319.0263 1.57376.216.5006.621.8956 1.1268 1.099l2.3325.9216c.035.014.065.0382.0861.0694.0211.0313.0322.0682.032.1059v1.6219c0 .1256 0 .2484.0075.375l-12.50061-5.00531c.35889-.54008.76789-1.04513 1.22156-1.50844zm4.55255 12.32625c-1.17088-1.1025-2.00061-2.5179-2.39067-4.0781-.01847-.0716-.05084-.1387-.09528-.1978-.04443-.059-.10006-.1087-.16369-.1462-.06364-.0375-.13404-.0621-.2072-.0724-.07315-.0104-.14761-.0062-.21914.0123s-.13872.0509-.19774.0953-.10871.1-.14623.1637c-.03752.0636-.06214.134-.07245.2072-.01031.0731-.00611.1476.01235.2191.3527 1.3938 1.01254 2.691 1.93125 3.7969h-3.21093c-1.54511-1.6898-2.40017-3.8978-2.39625-6.1875-.01173-1.261.26771-2.5077.81656-3.6431l13.18502 5.2744c.2953 1.8675 1.1034 3.4368 2.3437 4.5562z" fill="#fff"/></svg>
