<svg fill="currentColor" height="24" viewBox="0 0 24 24" width="24" xmlns="http://www.w3.org/2000/svg"><path d="m18.75 3.1875h-3.4847c-.404-.47053-.905-.84817-1.4686-1.10707s-1.1765-.39294-1.7967-.39294-1.2331.13404-1.7967.39294c-.56357.2589-1.06455.63654-1.46861 1.10707h-3.48469c-.3481 0-.68194.13828-.92808.38442s-.38442.57998-.38442.92808v15.75c0 .3481.13828.6819.38442.9281.24614.2461.57998.3844.92808.3844h13.5c.3481 0 .6819-.1383.9281-.3844.2461-.2462.3844-.58.3844-.9281v-15.75c0-.3481-.1383-.68194-.3844-.92808-.2462-.24614-.58-.38442-.9281-.38442zm-6.75-.375c.8454 0 1.6561.33582 2.2539.9336.5978.59777.9336 1.40852.9336 2.2539v.1875h-6.375v-.1875c0-.84538.33582-1.65613.9336-2.2539.5978-.59778 1.4085-.9336 2.2539-.9336zm6.9375 17.4375c0 .0497-.0198.0974-.0549.1326-.0352.0351-.0829.0549-.1326.0549h-13.5c-.04973 0-.09742-.0198-.13258-.0549-.03517-.0352-.05492-.0829-.05492-.1326v-15.75c0-.04973.01975-.09742.05492-.13258.03516-.03517.08285-.05492.13258-.05492h2.78156c-.22755.53347-.34459 1.10753-.34406 1.6875v.75c0 .14918.05926.29226.16475.39775s.24857.16475.39775.16475h7.5c.1492 0 .2923-.05926.3977-.16475.1055-.10549.1648-.24857.1648-.39775v-.75c.0005-.57997-.1165-1.15403-.3441-1.6875h2.7816c.0497 0 .0974.01975.1326.05492.0351.03516.0549.08285.0549.13258z" fill="#fff"/></svg>
