<svg fill="currentColor" height="24" viewBox="0 0 24 24" width="24" xmlns="http://www.w3.org/2000/svg"><path d="m12.5625 7.5v4.1812l3.4772 2.086c.128.0768.2203.2014.2565.3462.0362.1449.0134.2982-.0634.4263-.0768.128-.2014.2203-.3462.2565-.1449.0363-.2982.0134-.4263-.0634l-3.75-2.25c-.0833-.05-.1522-.1208-.2-.2054-.0478-.0847-.0729-.1802-.0728-.2774v-4.5c0-.14919.0593-.29226.1647-.39775.1055-.10549.2486-.16475.3978-.16475s.2923.05926.3977.16475c.1055.10549.1648.24856.1648.39775zm8.4375-2.0625c-.1492 0-.2923.05926-.3978.16475-.1054.10549-.1647.24856-.1647.39775v2.19c-.7013-.82782-1.4006-1.60594-2.2059-2.42157-1.2248-1.22478-2.7834-2.06147-4.481-2.40553-1.6975-.34406-3.4589-.18023-5.06387.47102-1.605.65126-2.9825 1.76105-3.96037 3.19072-.97786 1.42966-1.51274 3.11576-1.53779 4.84766-.02504 1.732.46085 3.4329 1.39696 4.8902.93611 1.4574 2.28094 2.6065 3.86643 3.3039 1.58554.6974 3.34134.9121 5.04814.6173 1.7069-.2948 3.289-1.0861 4.5486-2.275.1048-.1032.165-.2435.1676-.3906s-.0525-.2894-.1536-.3963c-.101-.1069-.24-.17-.387-.1757s-.2904.0464-.3995.1451c-1.0991 1.0366-2.4793 1.7264-3.9682 1.9831s-3.0204.069-4.40323-.5397c-1.38282-.6086-2.55563-1.6113-3.3719-2.8827-.81628-1.2713-1.23983-2.755-1.21774-4.2657.02208-1.5107.48883-2.98139 1.34193-4.22834.85309-1.24696 2.05471-2.21489 3.45473-2.78287 1.40001-.56798 2.93641-.71084 4.41711-.41071s2.8402 1.02992 3.9086 2.09822c.8662.8775 1.6106 1.71562 2.3728 2.625h-2.5603c-.1492 0-.2923.05926-.3978.16475-.1054.10549-.1647.24856-.1647.39775 0 .14918.0593.2923.1647.3977.1055.1055.2486.1648.3978.1648h3.75c.1492 0 .2923-.0593.3977-.1648.1055-.1054.1648-.24852.1648-.3977v-3.75c0-.14919-.0593-.29226-.1648-.39775-.1054-.10549-.2485-.16475-.3977-.16475z" fill="#fff"/></svg>
