<svg fill="currentColor" height="24" viewBox="0 0 24 24" width="24" xmlns="http://www.w3.org/2000/svg"><path d="m19.281 18.2194c.0697.0697.125.1524.1627.2435.0377.091.0571.1886.0571.2872 0 .0985-.0194.1961-.0571.2871-.0377.0911-.093.1738-.1627.2435-.0696.0697-.1524.1249-.2434.1626-.0911.0378-.1886.0572-.2872.0572-.0985 0-.1961-.0194-.2872-.0572-.091-.0377-.1737-.0929-.2434-.1626l-6.2194-6.2203-6.21936 6.2203c-.14073.1407-.3316.2198-.53062.2198-.19903 0-.3899-.0791-.53063-.2198-.14073-.1408-.21979-.3316-.21979-.5306 0-.1991.07906-.3899.21979-.5307l6.22031-6.2193-6.22031-6.21942c-.14073-.14073-.21979-.33161-.21979-.53063s.07906-.38989.21979-.53062.3316-.2198.53063-.2198c.19902 0 .38989.07907.53062.2198l6.21936 6.22027 6.2194-6.22027c.1407-.14073.3316-.2198.5306-.2198s.3899.07907.5306.2198c.1408.14073.2198.3316.2198.53062s-.079.3899-.2198.53063l-6.2203 6.21942z" fill="#727781"/></svg>
