<svg width="20" height="20" viewBox="0 0 20 20" fill="none" xmlns="http://www.w3.org/2000/svg">
<path d="M4.09208 2.81247C4.00627 2.73281 3.89375 2.68816 3.77667 2.68729C3.65959 2.68642 3.54643 2.7294 3.45944 2.80777C3.37245 2.88613 3.31794 2.99422 3.30663 3.11075C3.29532 3.22729 3.32804 3.34384 3.39833 3.43747L4.29755 4.42965C3.10633 5.64746 2.33673 7.21495 2.10164 8.90219C1.86655 10.5894 2.17835 12.3076 2.9913 13.8047L2.08349 16.5281C2.01922 16.7208 2.00989 16.9276 2.05655 17.1253C2.10321 17.323 2.20402 17.5039 2.34766 17.6475C2.49131 17.7912 2.67213 17.892 2.86984 17.9386C3.06756 17.9853 3.27437 17.976 3.46708 17.9117L6.1913 17.0039C7.57416 17.754 9.14813 18.078 10.7148 17.9351C12.2815 17.7922 13.7709 17.1887 14.9952 16.2007L15.8983 17.1875C15.982 17.2795 16.0989 17.3344 16.2231 17.3403C16.3474 17.3462 16.4688 17.3024 16.5608 17.2187C16.6528 17.135 16.7078 17.0182 16.7137 16.8939C16.7195 16.7697 16.6758 16.6482 16.5921 16.5562L4.09208 2.81247ZM9.99521 17.0312C8.75922 17.0315 7.54499 16.706 6.47489 16.0875C6.41738 16.0541 6.35343 16.0334 6.2873 16.0267C6.22116 16.0199 6.15435 16.0273 6.0913 16.0484L3.17099 17.0218C3.14346 17.031 3.11391 17.0324 3.08567 17.0257C3.05742 17.019 3.03159 17.0046 3.01107 16.9841C2.99055 16.9636 2.97615 16.9377 2.96948 16.9095C2.96282 16.8813 2.96415 16.8517 2.97333 16.8242L3.94677 13.9062C3.96783 13.8432 3.97524 13.7764 3.96851 13.7102C3.96177 13.6441 3.94105 13.5801 3.90771 13.5226C3.14364 12.2016 2.8301 10.6678 3.01445 9.15292C3.19879 7.63802 3.871 6.22421 4.92958 5.12497L14.3702 15.5054C13.1269 16.4952 11.5843 17.0331 9.99521 17.0312ZM17.964 9.99997C17.9638 11.317 17.638 12.6135 17.0155 13.7742C16.9753 13.8487 16.9156 13.911 16.8428 13.9543C16.7701 13.9976 16.6869 14.0204 16.6022 14.0203C16.5212 14.0202 16.4416 13.9991 16.3711 13.9591C16.3007 13.9191 16.2418 13.8615 16.2002 13.7919C16.1587 13.7223 16.1359 13.6432 16.134 13.5622C16.1322 13.4811 16.1514 13.401 16.1897 13.3297C16.8774 12.0484 17.1511 10.5856 16.9733 9.14238C16.7955 7.69919 16.1749 6.34655 15.1968 5.27055C14.2187 4.19455 12.9312 3.44807 11.5115 3.1338C10.0917 2.81953 8.60947 2.95291 7.26864 3.51559C7.15753 3.5502 7.03751 3.54224 6.93194 3.49326C6.82636 3.44427 6.74279 3.35777 6.69747 3.25057C6.65216 3.14337 6.64834 3.02315 6.68677 2.91329C6.72519 2.80343 6.80311 2.7118 6.90536 2.65622C8.11666 2.14794 9.43477 1.94681 10.7425 2.0707C12.0503 2.19459 13.3072 2.63967 14.4015 3.36636C15.4958 4.09306 16.3936 5.07887 17.0151 6.23615C17.6366 7.39344 17.9625 8.68635 17.964 9.99997Z" fill="#CED3DC"/>
</svg>
