<svg width="393" height="536" viewBox="0 0 393 536" fill="none" xmlns="http://www.w3.org/2000/svg">
<ellipse cx="153.784" cy="310.636" rx="225.784" ry="225.364" fill="url(#paint0_linear_2867_68724)" fill-opacity="0.04"/>
<path d="M379.068 310.636C379.068 434.824 278.206 535.5 153.784 535.5C29.3622 535.5 -71.5 434.824 -71.5 310.636C-71.5 186.448 29.3622 85.7727 153.784 85.7727C278.206 85.7727 379.068 186.448 379.068 310.636Z" stroke="url(#paint1_linear_2867_68724)" stroke-opacity="0.1"/>
<ellipse cx="153.784" cy="225.364" rx="225.784" ry="225.364" fill="url(#paint2_linear_2867_68724)" fill-opacity="0.04"/>
<path d="M379.068 225.364C379.068 349.552 278.206 450.227 153.784 450.227C29.3622 450.227 -71.5 349.552 -71.5 225.364C-71.5 101.176 29.3622 0.5 153.784 0.5C278.206 0.5 379.068 101.176 379.068 225.364Z" stroke="url(#paint3_linear_2867_68724)" stroke-opacity="0.1"/>
<ellipse cx="239.216" cy="310.636" rx="225.784" ry="225.364" fill="url(#paint4_linear_2867_68724)" fill-opacity="0.04"/>
<path d="M464.5 310.636C464.5 434.824 363.638 535.5 239.216 535.5C114.794 535.5 13.9318 434.824 13.9318 310.636C13.9318 186.448 114.794 85.7727 239.216 85.7727C363.638 85.7727 464.5 186.448 464.5 310.636Z" stroke="url(#paint5_linear_2867_68724)" stroke-opacity="0.1"/>
<ellipse cx="239.216" cy="225.364" rx="225.784" ry="225.364" fill="url(#paint6_linear_2867_68724)" fill-opacity="0.04"/>
<path d="M464.5 225.364C464.5 349.552 363.638 450.227 239.216 450.227C114.794 450.227 13.9318 349.552 13.9318 225.364C13.9318 101.176 114.794 0.5 239.216 0.5C363.638 0.5 464.5 101.176 464.5 225.364Z" stroke="url(#paint7_linear_2867_68724)" stroke-opacity="0.1"/>
<ellipse opacity="0.4" cx="196.5" cy="268" rx="134.25" ry="134" fill="#0D0F16"/>
<path d="M330.25 268C330.25 341.729 270.369 401.5 196.5 401.5C122.631 401.5 62.75 341.729 62.75 268C62.75 194.271 122.631 134.5 196.5 134.5C270.369 134.5 330.25 194.271 330.25 268Z" stroke="url(#paint8_linear_2867_68724)" stroke-opacity="0.5"/>
<path fill-rule="evenodd" clip-rule="evenodd" d="M154.616 216.151C154.479 216.198 154.487 216.663 154.503 217.687C154.509 218.112 154.517 218.634 154.517 219.262C154.517 230.179 163.282 232.4 163.282 232.4C163.282 232.4 154.517 231.528 154.517 233.88C154.518 236.232 162.177 239.246 162.177 239.246C162.177 239.246 149.103 241.335 149.103 243.687C149.103 244.432 149.99 244.585 151.587 244.86C153.632 245.213 156.842 245.767 160.851 248.021C155.324 255.538 152.056 264.831 152.056 274.889C152.056 299.912 172.276 320.197 197.219 320.197C206.2 320.197 214.568 317.567 221.601 313.033C221.058 312.279 220.857 311.253 221.241 310.228C223.337 304.626 224.204 300.542 223.979 296.988C223.756 293.481 222.456 290.322 219.875 286.593C218.455 284.541 217.036 282.965 215.678 281.557C215.321 281.186 214.959 280.82 214.6 280.454L214.598 280.453C213.624 279.464 212.661 278.486 211.818 277.476C210.628 276.048 209.598 274.472 208.878 272.446C208.162 270.43 207.777 268.044 207.777 265.02C207.777 256.805 213.266 250.217 219.94 247.469C224.096 245.758 228.808 245.503 233.033 247.283C224.776 236.519 211.805 229.582 197.219 229.582C196.714 229.582 196.211 229.591 195.711 229.607C165.92 229.15 157.609 219.466 155.332 216.814C154.943 216.359 154.73 216.111 154.616 216.151ZM190.923 267.957C189.753 267.542 188.494 267.317 187.183 267.317C186.026 267.317 184.911 267.492 183.861 267.817C183.065 268.064 182.668 268.188 182.362 268.129C182.097 268.078 181.847 267.937 181.667 267.735C181.459 267.503 181.39 267.22 181.251 266.656C181.039 265.796 180.924 264.877 180.924 263.922C180.924 259.104 183.844 255.198 187.446 255.198C191.048 255.198 193.968 259.104 193.968 263.922C193.968 264.958 193.833 265.952 193.586 266.874C193.433 267.441 193.357 267.724 193.141 267.954C192.953 268.152 192.696 268.288 192.426 268.33C192.115 268.379 191.718 268.238 190.923 267.957Z" fill="url(#paint9_linear_2867_68724)"/>
<path d="M221.137 285.714C215.194 277.128 209.313 276.594 209.313 265.02C209.313 250.041 229.368 240.681 238.828 253.971C242.889 259.677 244.254 268.481 244.254 275.367C244.254 290.743 236.506 304.315 224.678 312.448C223.55 313.224 222.198 312.053 222.679 310.77C226.926 299.418 226.5 293.462 221.137 285.714Z" fill="url(#paint10_radial_2867_68724)"/>
<defs>
<linearGradient id="paint0_linear_2867_68724" x1="153.784" y1="85.2727" x2="153.784" y2="536" gradientUnits="userSpaceOnUse">
<stop stop-color="#00FFCF"/>
<stop offset="1" stop-color="#4AA6FF"/>
</linearGradient>
<linearGradient id="paint1_linear_2867_68724" x1="153.784" y1="85.2727" x2="153.784" y2="536" gradientUnits="userSpaceOnUse">
<stop stop-color="#00FFCF"/>
<stop offset="1" stop-color="#4AA6FF"/>
</linearGradient>
<linearGradient id="paint2_linear_2867_68724" x1="153.784" y1="0" x2="153.784" y2="450.727" gradientUnits="userSpaceOnUse">
<stop stop-color="#00FFCF"/>
<stop offset="1" stop-color="#4AA6FF"/>
</linearGradient>
<linearGradient id="paint3_linear_2867_68724" x1="153.784" y1="0" x2="153.784" y2="450.727" gradientUnits="userSpaceOnUse">
<stop stop-color="#00FFCF"/>
<stop offset="1" stop-color="#4AA6FF"/>
</linearGradient>
<linearGradient id="paint4_linear_2867_68724" x1="239.216" y1="85.2727" x2="239.216" y2="536" gradientUnits="userSpaceOnUse">
<stop stop-color="#00FFCF"/>
<stop offset="1" stop-color="#4AA6FF"/>
</linearGradient>
<linearGradient id="paint5_linear_2867_68724" x1="239.216" y1="85.2727" x2="239.216" y2="536" gradientUnits="userSpaceOnUse">
<stop stop-color="#00FFCF"/>
<stop offset="1" stop-color="#4AA6FF"/>
</linearGradient>
<linearGradient id="paint6_linear_2867_68724" x1="239.216" y1="0" x2="239.216" y2="450.727" gradientUnits="userSpaceOnUse">
<stop stop-color="#00FFCF"/>
<stop offset="1" stop-color="#4AA6FF"/>
</linearGradient>
<linearGradient id="paint7_linear_2867_68724" x1="239.216" y1="0" x2="239.216" y2="450.727" gradientUnits="userSpaceOnUse">
<stop stop-color="#00FFCF"/>
<stop offset="1" stop-color="#4AA6FF"/>
</linearGradient>
<linearGradient id="paint8_linear_2867_68724" x1="196.5" y1="134" x2="196.5" y2="402" gradientUnits="userSpaceOnUse">
<stop stop-color="#00FFCF"/>
<stop offset="1" stop-color="#4AA6FF"/>
</linearGradient>
<linearGradient id="paint9_linear_2867_68724" x1="245.502" y1="215.699" x2="149.07" y2="319.438" gradientUnits="userSpaceOnUse">
<stop stop-color="#00FFCF"/>
<stop offset="1" stop-color="#4AA6FF"/>
</linearGradient>
<radialGradient id="paint10_radial_2867_68724" cx="0" cy="0" r="1" gradientUnits="userSpaceOnUse" gradientTransform="translate(209.345 284.905) rotate(-13.3174) scale(43.5119 57.2398)">
<stop stop-color="#F27C34"/>
<stop offset="1" stop-color="#A55282"/>
</radialGradient>
</defs>
</svg>
