<svg fill="currentColor" height="24" viewBox="0 0 24 24" width="24" xmlns="http://www.w3.org/2000/svg"><path d="m20.25 3.1875h-12c-.14918 0-.29226.05926-.39775.16475s-.16475.24857-.16475.39775v3.9375h-3.9375c-.14918 0-.29226.05926-.39775.16475s-.16475.24857-.16475.39775v12c0 .1492.05926.2923.16475.3977.10549.1055.24857.1648.39775.1648h12c.1492 0 .2923-.0593.3977-.1648.1055-.1054.1648-.2485.1648-.3977v-3.9375h3.9375c.1492 0 .2923-.0593.3977-.1648.1055-.1054.1648-.2485.1648-.3977v-12c0-.14918-.0593-.29226-.1648-.39775-.1054-.10549-.2485-.16475-.3977-.16475zm-5.0625 16.5h-10.875v-10.875h10.875zm4.5-4.5h-3.375v-6.9375c0-.14918-.0593-.29226-.1648-.39775-.1054-.10549-.2485-.16475-.3977-.16475h-6.9375v-3.375h10.875z" /></svg>
