<svg width="22" height="22" viewBox="0 0 22 22" fill="none" xmlns="http://www.w3.org/2000/svg">
<path d="M14.3249 10.004C14.8871 9.54057 15.2959 8.91787 15.4975 8.21777C15.6992 7.51766 15.6842 6.77292 15.4546 6.08147C15.225 5.39003 14.7916 4.78425 14.2112 4.34378C13.6309 3.90332 12.9308 3.64879 12.2031 3.61367V2.0625C12.2031 1.92575 12.1488 1.7946 12.0521 1.6979C11.9554 1.6012 11.8243 1.54688 11.6875 1.54688C11.5507 1.54688 11.4196 1.6012 11.3229 1.6979C11.2262 1.7946 11.1719 1.92575 11.1719 2.0625V3.60938H9.45312V2.0625C9.45312 1.92575 9.3988 1.7946 9.3021 1.6979C9.2054 1.6012 9.07425 1.54688 8.9375 1.54688C8.80075 1.54688 8.6696 1.6012 8.5729 1.6979C8.4762 1.7946 8.42188 1.92575 8.42188 2.0625V3.60938H5.5C5.36325 3.60938 5.2321 3.6637 5.1354 3.7604C5.0387 3.8571 4.98438 3.98825 4.98438 4.125C4.98438 4.26175 5.0387 4.3929 5.1354 4.4896C5.2321 4.5863 5.36325 4.64062 5.5 4.64062H6.35938V16.6719H5.5C5.36325 16.6719 5.2321 16.7262 5.1354 16.8229C5.0387 16.9196 4.98438 17.0507 4.98438 17.1875C4.98438 17.3243 5.0387 17.4554 5.1354 17.5521C5.2321 17.6488 5.36325 17.7031 5.5 17.7031H8.42188V19.25C8.42188 19.3868 8.4762 19.5179 8.5729 19.6146C8.6696 19.7113 8.80075 19.7656 8.9375 19.7656C9.07425 19.7656 9.2054 19.7113 9.3021 19.6146C9.3988 19.5179 9.45312 19.3868 9.45312 19.25V17.7031H11.1719V19.25C11.1719 19.3868 11.2262 19.5179 11.3229 19.6146C11.4196 19.7113 11.5507 19.7656 11.6875 19.7656C11.8243 19.7656 11.9554 19.7113 12.0521 19.6146C12.1488 19.5179 12.2031 19.3868 12.2031 19.25V17.7031H13.0625C14 17.703 14.9069 17.3698 15.6214 16.7628C16.336 16.1559 16.8115 15.3148 16.9632 14.3896C17.1149 13.4645 16.9329 12.5156 16.4496 11.7122C15.9663 10.9089 15.2133 10.3035 14.3249 10.004ZM14.6094 7.21875C14.6094 7.90251 14.3378 8.55827 13.8543 9.04176C13.3708 9.52525 12.715 9.79688 12.0312 9.79688H7.39062V4.64062H12.0312C12.715 4.64062 13.3708 4.91225 13.8543 5.39574C14.3378 5.87923 14.6094 6.53499 14.6094 7.21875ZM13.0625 16.6719H7.39062V10.8281H13.0625C13.8374 10.8281 14.5806 11.136 15.1286 11.6839C15.6765 12.2319 15.9844 12.9751 15.9844 13.75C15.9844 14.5249 15.6765 15.2681 15.1286 15.8161C14.5806 16.364 13.8374 16.6719 13.0625 16.6719Z" fill="white"/>
</svg>
