<svg width="22" height="22" viewBox="0 0 22 22" fill="none" xmlns="http://www.w3.org/2000/svg">
<path d="M18.968 10.6812L11.4055 1.05618C11.3573 0.994705 11.2957 0.945003 11.2254 0.910825C11.1552 0.876647 11.078 0.858887 10.9999 0.858887C10.9218 0.858887 10.8446 0.876647 10.7744 0.910825C10.7041 0.945003 10.6425 0.994705 10.5943 1.05618L3.03177 10.6812C2.96026 10.7721 2.92139 10.8844 2.92139 11C2.92139 11.1157 2.96026 11.2279 3.03177 11.3188L10.5943 20.9438C10.6425 21.0053 10.7041 21.055 10.7744 21.0892C10.8446 21.1234 10.9218 21.1411 10.9999 21.1411C11.078 21.1411 11.1552 21.1234 11.2254 21.0892C11.2957 21.055 11.3573 21.0053 11.4055 20.9438L18.968 11.3188C19.0395 11.2279 19.0784 11.1157 19.0784 11C19.0784 10.8844 19.0395 10.7721 18.968 10.6812ZM11.5155 2.86602L17.7511 10.8023L11.5155 13.6383V2.86602ZM10.4843 13.6366L4.24865 10.8006L10.4843 2.86602V13.6366ZM10.4843 14.7692V19.134L5.14927 12.3449L10.4843 14.7692ZM11.5155 14.7692L16.8505 12.3449L11.5155 19.134V14.7692Z" fill="white"/>
</svg>
