<svg fill="currentColor" height="24" viewBox="0 0 24 24" width="24" xmlns="http://www.w3.org/2000/svg"><path d="m21 6.9375h-1.6875v-.9375c0-.54701-.2173-1.07161-.6041-1.45841-.3868-.38679-.9114-.60409-1.4584-.60409h-13.5c-.54701 0-1.07161.2173-1.45841.60409-.38679.3868-.60409.9114-.60409 1.45841v9c0 .547.2173 1.0716.60409 1.4584.3868.3868.9114.6041 1.45841.6041h10.6875v.9375c0 .547.2173 1.0716.6041 1.4584s.9114.6041 1.4584.6041h4.5c.547 0 1.0716-.2173 1.4584-.6041s.6041-.9114.6041-1.4584v-9c0-.54701-.2173-1.07161-.6041-1.45841-.3868-.38679-.9114-.60409-1.4584-.60409zm-17.25 9c-.24864 0-.4871-.0988-.66291-.2746-.17582-.1758-.27459-.4143-.27459-.6629v-9c0-.24864.09877-.4871.27459-.66291.17581-.17582.41427-.27459.66291-.27459h13.5c.2486 0 .4871.09877.6629.27459.1758.17581.2746.41427.2746.66291v.9375h-1.6875c-.547 0-1.0716.2173-1.4584.60409-.3868.3868-.6041.9114-.6041 1.45841v6.9375zm18.1875 2.0625c0 .2486-.0988.4871-.2746.6629s-.4143.2746-.6629.2746h-4.5c-.2486 0-.4871-.0988-.6629-.2746s-.2746-.4143-.2746-.6629v-9c0-.24864.0988-.4871.2746-.66291.1758-.17582.4143-.27459.6629-.27459h4.5c.2486 0 .4871.09877.6629.27459.1758.17581.2746.41427.2746.66291zm-9.375 1.5c0 .1492-.0593.2923-.1648.3977-.1054.1055-.2485.1648-.3977.1648h-3.75c-.14918 0-.29226-.0593-.39775-.1648-.10549-.1054-.16475-.2485-.16475-.3977s.05926-.2923.16475-.3977c.10549-.1055.24857-.1648.39775-.1648h3.75c.1492 0 .2923.0593.3977.1648.1055.1054.1648.2485.1648.3977zm7.5-9c0 .1492-.0593.2923-.1648.3977-.1054.1055-.2485.1648-.3977.1648h-1.5c-.1492 0-.2923-.0593-.3977-.1648-.1055-.1054-.1648-.2485-.1648-.3977s.0593-.2923.1648-.3977c.1054-.10554.2485-.1648.3977-.1648h1.5c.1492 0 .2923.05926.3977.1648.1055.1054.1648.2485.1648.3977z" fill="#fff"/></svg>
