<svg fill="currentColor" height="24" viewBox="0 0 24 24" width="24" xmlns="http://www.w3.org/2000/svg"><path d="m13.8938 7.90125-8.40004 8.24995c-.10515.1031-.24651.1608-.39375.1608s-.2886-.0577-.39375-.1608l-3.6-3.5353c-.05275-.0517-.09481-.1133-.123759-.1812-.028951-.068-.044233-.141-.044973-.2148-.00074-.0739.013076-.1472.04066-.2157.027582-.0686.068392-.131.120102-.1837.05171-.0528.1133-.0948.18126-.1238.06796-.0289.14096-.0442.21482-.045.07387-.0007.14716.0131.21569.0407.06852.0276.13095.0684.1837.1201l3.20625 3.1481 8.00629-7.86279c.052-.05466.1145-.0983.1838-.1283.0692-.03.1438-.04575.2193-.04633.0755-.00057.1503.01406.22.04301s.1329.07163.1857.1255c.0529.05387.0944.11783.122.18807s.0409.14532.0389.22078c-.002.07545-.0192.14973-.0505.21841s-.0761.13036-.1317.18136zm9.0075-.795c-.1045-.10634-.2469-.16686-.396-.16827-.1491-.0014-.2926.05642-.399.16077l-8.0063 7.86285-1.8966-1.8629c-.0526-.0517-.115-.0926-.1835-.1203-.0685-.0276-.1418-.0415-.2156-.0409-.0739.0007-.1469.0159-.2149.0447-.068.0289-.1297.0709-.1814.1236-.0518.0527-.0927.115-.1203.1835-.0277.0685-.0416.1418-.041.2157.0007.0738.0159.1469.0448.2148.0288.068.0708.1297.1235.1814l2.2913 2.25c.1051.1031.2465.1608.3937.1608s.2886-.0577.3938-.1608l8.4-8.24995c.1063-.10447.1668-.24688.1682-.39595.0014-.14906-.0564-.29259-.1607-.39905z" fill="#fff"/></svg>
