<svg fill="currentColor" height="24" viewBox="0 0 24 24" width="24" xmlns="http://www.w3.org/2000/svg"><path d="m20.8125 14.25v5.25c0 .3481-.1383.6819-.3844.9281-.2462.2461-.58.3844-.9281.3844h-15c-.3481 0-.68194-.1383-.92808-.3844-.24614-.2462-.38442-.58-.38442-.9281v-5.25c0-.1492.05926-.2923.16475-.3977.10549-.1055.24857-.1648.39775-.1648s.29226.0593.39775.1648c.10549.1054.16475.2485.16475.3977v5.25c0 .0497.01975.0974.05492.1326.03516.0351.08285.0549.13258.0549h15c.0497 0 .0974-.0198.1326-.0549.0351-.0352.0549-.0829.0549-.1326v-5.25c0-.1492.0593-.2923.1648-.3977.1054-.1055.2485-.1648.3977-.1648s.2923.0593.3977.1648c.1055.1054.1648.2485.1648.3977zm-9.21.3975c.1055.1053.2484.1645.3975.1645s.292-.0592.3975-.1645l3.75-3.75c.0994-.1066.1535-.2477.1509-.3934s-.0616-.2848-.1647-.3878c-.103-.1031-.2421-.16211-.3878-.16468s-.2868.05148-.3934.15088l-2.79 2.7891v-9.1416c0-.14918-.0593-.29226-.1648-.39775-.1054-.10549-.2485-.16475-.3977-.16475s-.2923.05926-.3977.16475c-.1055.10549-.1648.24857-.1648.39775v9.1416l-2.79-2.7891c-.10663-.0994-.24767-.15345-.39339-.15088-.14573.00257-.28477.06158-.38783.16468-.10306.103-.16209.2421-.16466.3878s.05152.2868.15088.3934z" fill="#fff"/></svg>
