<svg width="24" height="24" viewBox="0 0 24 24" fill="currentColor" xmlns="http://www.w3.org/2000/svg"><path d="M16.237 14.531c-.93 1.609-2.474 2.531-4.237 2.531s-3.307-.922-4.237-2.53a.562.562 0 0 1 .974-.563c.735 1.27 1.893 1.969 3.263 1.969s2.531-.7 3.263-1.97a.562.562 0 1 1 .974.563M21.563 12A9.562 9.562 0 1 1 12 2.438 9.574 9.574 0 0 1 21.563 12m-1.125 0A8.437 8.437 0 1 0 12 20.438 8.447 8.447 0 0 0 20.438 12m-11.813-.937a.938.938 0 1 0 0-1.876.938.938 0 0 0 0 1.876m6.75-1.876a.937.937 0 1 0 0 1.875.937.937 0 0 0 0-1.874"/></svg>
