<svg width="24" height="24" viewBox="0 0 24 24" fill="currentColor" xmlns="http://www.w3.org/2000/svg"><path d="M22.647 5.47a.53.53 0 0 1-.53.53h-3.411v3.412a.53.53 0 0 1-1.059 0V6h-3.412a.53.53 0 0 1 0-1.059h3.412V1.53a.53.53 0 1 1 1.059 0v3.412h3.412a.53.53 0 0 1 .53.53M11.559 17.559c1.659 0 3.112-.868 3.987-2.383a.53.53 0 1 0-.916-.529c-.689 1.195-1.782 1.853-3.071 1.853s-2.38-.658-3.072-1.853a.53.53 0 0 0-.916.53c.876 1.514 2.329 2.382 3.988 2.382m-2.686-5.796a.883.883 0 1 1-.981-1.468.883.883 0 0 1 .98 1.468m5.373-1.467a.882.882 0 1 1 .98 1.466.882.882 0 0 1-.98-1.466" fill="#fff"/><path fill-rule="evenodd" clip-rule="evenodd" d="M11.412 4.176a8.47 8.47 0 1 0 8.47 8.471.47.47 0 1 1 .941 0 9.412 9.412 0 1 1-9.411-9.412.47.47 0 1 1 0 .941" fill="#fff"/></svg>
