<svg fill="currentColor" height="24" viewBox="0 0 24 24" width="24" xmlns="http://www.w3.org/2000/svg"><path d="m4.91623 3.375c-.10297-.09558-.23799-.14916-.37848-.15021-.1405-.00104-.2763.05053-.38068.14457-.10439.09404-.1698.22374-.18337.36358-.01357.13985.02568.2797.11004.39206l1.9575 2.15625c-3.495 2.05313-4.99032 5.34375-5.055005 5.49095-.032051.072-.048613.1499-.048613.2287 0 .0789.016562.1568.048613.2288.031875.0722.811875 1.8019 2.553745 3.5437 1.61625 1.6144 4.39313 3.5391 8.46002 3.5391 1.6999.0103 3.3816-.3496 4.9284-1.0547l2.1563 2.371c.1004.1103.2406.1763.3897.1834.1491.007.2949-.0455.4053-.1459.1104-.1005.1763-.2407.1834-.3898.007-.1491-.0455-.2949-.1459-.4052zm4.55813 6.6863 4.21874 4.6425c-.6334.3957-1.3856.5565-2.1255.4543-.7398-.1023-1.4203-.4611-1.92258-1.0138-.50229-.5528-.79454-1.2644-.82573-2.0106s.20066-1.4797.65507-2.0724zm2.52564 8.1262c-2.94189 0-5.51064-1.0706-7.63595-3.1809-.89114-.8853-1.64508-1.8986-2.23688-3.0066.40219-.7687 1.88438-3.29812 4.6875-4.86656l1.89375 2.08219c-.67423.79897-1.03529 1.81567-1.016 2.86087.01929 1.0453.41762 2.0479 1.12088 2.8214.70326.7736 1.6636 1.2653 2.7023 1.3838 1.0387.1184 2.085-.1445 2.9444-.7398l1.6697 1.8375c-1.309.5416-2.7131.8164-4.1297.8081zm.6-9.31875c-.1466-.02797-.276-.11302-.3599-.23645-.0839-.12342-.1153-.2751-.0873-.42167.028-.14658.113-.27604.2364-.3599.1235-.08386.2751-.11526.4217-.08729.916.17794 1.7499.64711 2.3775 1.33757.6277.69047 1.0153 1.56529 1.1053 2.49399.0069.0736-.0008.1478-.0227.2183-.0218.0706-.0573.1362-.1045.193-.0472.0569-.1051.1039-.1705.1384-.0653.0344-.1368.0557-.2104.0625h-.0525c-.1407.0006-.2764-.0516-.3806-.1461-.1041-.0946-.169-.2248-.1819-.3648-.0668-.6853-.3532-1.3307-.8163-1.84016-.4632-.50946-1.0785-.85576-1.7543-.98739zm10.4137 3.36095c-.0384.0862-.9722 2.1562-3.0806 4.0425-.0547.0513-.1191.0911-.1894.1171s-.1451.0377-.2199.0344c-.0749-.0033-.1484-.0215-.2161-.0536-.0678-.0321-.1284-.0774-.1784-.1332-.05-.0559-.0883-.1212-.1127-.1921-.0244-.0708-.0344-.1459-.0294-.2207s.0249-.1478.0586-.2148c.0336-.067.0803-.1265.1373-.1752 1.0899-.9792 2.0001-2.1414 2.6897-3.4341-.5919-1.1079-1.3458-2.12123-2.2369-3.00656-2.1253-2.11031-4.694-3.18094-7.6359-3.18094-.6184-.00074-1.2358.04943-1.846.15-.0734.01385-.1489.01292-.22201-.00275-.0731-.01566-.14234-.04574-.20369-.08848-.06134-.04273-.11354-.09727-.15357-.16042-.04002-.06314-.06705-.13363-.07951-.20735-.01246-.07371-.0101-.14917.00693-.22196.01704-.0728.04842-.14146.0923-.20199.04389-.06052.0994-.11169.16329-.15052.06388-.03882.13487-.06452.20881-.07559.67205-.11156 1.35215-.16707 2.03345-.16594 4.0669 0 6.8437 1.92563 8.46 3.54 1.7419 1.74188 2.5219 3.4688 2.5537 3.5447.0321.072.0486.1499.0486.2287 0 .0789-.0165.1568-.0486.2288z" fill="#fff"/></svg>
