<svg fill="currentColor" height="24" viewBox="0 0 24 24" width="24" xmlns="http://www.w3.org/2000/svg"><path d="m23.0137 11.7722c-.0318-.0731-.8118-1.80282-2.5537-3.5447-1.6163-1.61437-4.3931-3.54-8.46-3.54-4.06689 0-6.84377 1.92563-8.46002 3.54-1.74187 1.74188-2.52187 3.4687-2.553745 3.5447-.032051.072-.048613.1499-.048613.2287 0 .0789.016562.1568.048613.2288.031875.0722.811875 1.8019 2.553745 3.5437 1.61625 1.6144 4.39313 3.5391 8.46002 3.5391 4.0669 0 6.8437-1.9247 8.46-3.5391 1.7419-1.7418 2.5219-3.4687 2.5537-3.5437.0321-.072.0486-.1499.0486-.2288 0-.0788-.0165-.1567-.0486-.2287zm-11.0137 6.4153c-2.94189 0-5.51064-1.0706-7.63595-3.1809-.89093-.8855-1.64485-1.8988-2.23688-3.0066.59186-1.1076 1.3458-2.12068 2.23688-3.00562 2.12531-2.11125 4.69406-3.18188 7.63595-3.18188 2.9419 0 5.5106 1.07063 7.6359 3.18188.8911.88494 1.645 1.89802 2.2369 3.00562-.5972 1.1447-3.5916 6.1875-9.8728 6.1875zm0-10.5c-.8529 0-1.6867.25292-2.39591.72679-.70919.47386-1.26193 1.14738-1.58834 1.93541-.3264.788-.4118 1.6551-.2454 2.4916.1664.8366.57712 1.605 1.18024 2.2081.60311.6031 1.37151 1.0138 2.20811 1.1802.8365.1664 1.7036.081 2.4916-.2454s1.4615-.8791 1.9354-1.5883.7268-1.543.7268-2.3959c-.0015-1.1433-.4563-2.23933-1.2648-3.04775-.8084-.80843-1.9044-1.26326-3.0477-1.26475zm0 7.5c-.6304 0-1.2467-.1869-1.7709-.5372-.52418-.3502-.93273-.8481-1.17398-1.4305s-.30438-1.2233-.18139-1.8417c.12299-.6183.42657-1.1862.87235-1.632.44582-.44578 1.01372-.74936 1.63202-.87235s1.2592-.05987 1.8417.18138c.5824.24126 1.0802.64981 1.4305 1.17397.3502.5242.5372 1.1405.5372 1.7709 0 .8454-.3358 1.6561-.9336 2.2539s-1.4085.9336-2.2539.9336z" fill="#fff"/></svg>
