<svg fill="currentColor" height="24" viewBox="0 0 24 24" width="24" xmlns="http://www.w3.org/2000/svg"><path d="m22.4616 10.9078-8.2669-5.26593c-.1981-.12566-.4262-.19595-.6607-.20353-.2344-.00759-.4666.0478-.6724.16041-.2039.11159-.3741.27593-.4926.47583-.1186.19989-.1813.42799-.1815.66042v3.8437l-7.74281-4.93683c-.19808-.12566-.42622-.19595-.66068-.20353-.23446-.00759-.46666.0478-.67245.16041-.20388.11159-.37402.27593-.49261.47583-.11858.19989-.18125.42799-.18145.66042v10.53c.0002.2324.06287.4605.18145.6604.11859.1999.28873.3643.49261.4758.20579.1126.43799.168.67245.1605.23446-.0076.4626-.0779.66068-.2036l7.74281-4.9322v3.8391c.0002.2324.0629.4605.1815.6604.1185.1999.2887.3643.4926.4758.2058.1126.438.168.6724.1605.2345-.0076.4626-.0779.6607-.2036l8.2669-5.2659c.1841-.1166.3358-.2779.4408-.4689.1051-.1909.1602-.4053.1602-.6233s-.0551-.4324-.1602-.6233c-.105-.191-.2567-.3523-.4408-.4689zm-10.3538 1.2356-8.26405 5.265c-.02764.0183-.05983.0285-.09295.0295s-.06587-.0072-.09455-.0238c-.02832-.0132-.05224-.0343-.06887-.0607-.01663-.0265-.02527-.0572-.02488-.0884v-10.53c-.00039-.03124.00825-.06192.02488-.08837.01663-.02644.04055-.04752.06887-.0607.02858-.01619.0609-.0246.09375-.02437.03347.00084.06601.01125.09375.03l8.26785 5.26504c.0244.0151.0445.0362.0585.0613s.0213.0534.0213.0821-.0073.057-.0213.0821-.0341.0462-.0585.0613zm9.75 0-8.264 5.265c-.0277.0183-.0599.0285-.093.0295s-.0659-.0072-.0946-.0238c-.0283-.0132-.0522-.0343-.0688-.0607-.0166-.0265-.0253-.0572-.0249-.0884v-10.53c-.0004-.03124.0083-.06192.0249-.08837.0166-.02644.0405-.04752.0688-.0607.0286-.01619.061-.0246.0938-.02437.0335.00084.066.01125.0938.03l8.2678 5.26504c.0244.0151.0445.0362.0585.0613s.0213.0534.0213.0821-.0073.057-.0213.0821-.0341.0462-.0585.0613z" fill="#fff"/></svg>
