<svg width="24" height="24" viewBox="0 0 24 24" fill="currentColor" xmlns="http://www.w3.org/2000/svg"><path d="M11.813 14.25a.56.56 0 0 1-.563.563h-.937V19.5a.562.562 0 1 1-1.126 0v-4.687H8.25a.563.563 0 0 1 0-1.126h3a.56.56 0 0 1 .563.563M6 13.688a.563.563 0 0 0-.562.562v2.063H3.563V14.25a.562.562 0 1 0-1.126 0v5.25a.562.562 0 1 0 1.126 0v-2.062h1.874V19.5a.562.562 0 1 0 1.125 0v-5.25A.56.56 0 0 0 6 13.688m16.5 5.25h-1.312V14.25a.562.562 0 1 0-1.125 0v5.25a.56.56 0 0 0 .562.563H22.5a.562.562 0 1 0 0-1.125m-4.35-5.23a.56.56 0 0 0-.633.252l-1.767 2.947-1.767-2.947a.563.563 0 0 0-1.046.29v5.25a.562.562 0 1 0 1.126 0v-3.22l1.204 2.01a.562.562 0 0 0 .966 0l1.204-2.01v3.22a.562.562 0 1 0 1.125 0v-5.25a.56.56 0 0 0-.412-.542m1.913-3.208a.562.562 0 1 1-1.125 0V8.813H14.25a.56.56 0 0 1-.562-.563V3.563H5.25a.187.187 0 0 0-.187.187v6.75a.562.562 0 1 1-1.125 0V3.75A1.313 1.313 0 0 1 5.25 2.438h9a.56.56 0 0 1 .398.164l5.25 5.25a.56.56 0 0 1 .165.398zm-1.92-2.812-3.33-3.33v3.33z" fill="#fff"/></svg>
