<svg width="32" height="32" viewBox="0 0 32 32" fill="currentColor" xmlns="http://www.w3.org/2000/svg"><path d="M16 17a1 1 0 0 1-1 1H9a1 1 0 0 1 0-2h6a1 1 0 0 1 1 1m-1-5H9a1 1 0 0 0 0 2h6a1 1 0 0 0 0-2m14 8.184V28a1 1 0 0 1-1.5.875l-3-1.718-3 1.718A1 1 0 0 1 20 28v-3H5a2 2 0 0 1-2-2V7a2 2 0 0 1 2-2h22a2 2 0 0 1 2 2v3.816a6.487 6.487 0 0 1 0 9.368M20 23v-2.816A6.5 6.5 0 0 1 27 9.5V7H5v16zm7-1.5a6.5 6.5 0 0 1-5 0v4.778l2-1.145a1 1 0 0 1 .992 0l2 1.145zm2-6a4.5 4.5 0 1 0-9 0 4.5 4.5 0 0 0 9 0" fill="#A0A8B8"/></svg>
