<svg width="24" height="24" viewBox="0 0 24 24" fill="currentColor" xmlns="http://www.w3.org/2000/svg">
  <path d="M13.7981 14.5228C13.7171 14.4721 13.6244 14.443 13.529 14.4381C13.4335 14.4331 13.3383 14.4526 13.2525 14.4947L11.0494 15.5737C11.0068 15.2593 10.8516 14.9709 10.6127 14.762C10.3739 14.5531 10.0674 14.4378 9.75 14.4375H4.5C4.1519 14.4375 3.81806 14.5758 3.57192 14.8219C3.32578 15.0681 3.1875 15.4019 3.1875 15.75V19.5C3.1875 19.8481 3.32578 20.1819 3.57192 20.4281C3.81806 20.6742 4.1519 20.8125 4.5 20.8125H9.75C10.0812 20.8135 10.4006 20.6892 10.644 20.4645C10.8875 20.2399 11.0369 19.9315 11.0625 19.6012L13.2431 20.7478C13.3287 20.7917 13.4241 20.813 13.5202 20.8095C13.6163 20.8061 13.7099 20.7781 13.7921 20.7281C13.8743 20.6782 13.9423 20.608 13.9896 20.5243C14.037 20.4406 14.0621 20.3462 14.0625 20.25V15C14.0625 14.9046 14.0383 14.8107 13.992 14.7272C13.9458 14.6437 13.8791 14.5734 13.7981 14.5228ZM9.75 19.6875H4.5C4.45027 19.6875 4.40258 19.6677 4.36742 19.6326C4.33225 19.5974 4.3125 19.5497 4.3125 19.5V15.75C4.3125 15.7003 4.33225 15.6526 4.36742 15.6174C4.40258 15.5823 4.45027 15.5625 4.5 15.5625H9.75C9.79973 15.5625 9.84742 15.5823 9.88258 15.6174C9.91775 15.6526 9.9375 15.7003 9.9375 15.75V19.5C9.9375 19.5497 9.91775 19.5974 9.88258 19.6326C9.84742 19.6677 9.79973 19.6875 9.75 19.6875ZM12.9375 19.3191L11.0625 18.3328V16.8197L12.9375 15.9019V19.3191ZM19.8975 7.8525L14.6475 2.6025C14.5421 2.49698 14.3991 2.43763 14.25 2.4375H5.25C4.9019 2.4375 4.56806 2.57578 4.32192 2.82192C4.07578 3.06806 3.9375 3.4019 3.9375 3.75V12C3.9375 12.1492 3.99676 12.2923 4.10225 12.3977C4.20774 12.5032 4.35082 12.5625 4.5 12.5625C4.64918 12.5625 4.79226 12.5032 4.89775 12.3977C5.00324 12.2923 5.0625 12.1492 5.0625 12V3.75C5.0625 3.70027 5.08225 3.65258 5.11742 3.61742C5.15258 3.58225 5.20027 3.5625 5.25 3.5625H13.6875V8.25C13.6875 8.39918 13.7468 8.54226 13.8523 8.64775C13.9577 8.75324 14.1008 8.8125 14.25 8.8125H18.9375V20.25C18.9375 20.2997 18.9177 20.3474 18.8826 20.3826C18.8474 20.4177 18.7997 20.4375 18.75 20.4375H16.5C16.3508 20.4375 16.2077 20.4968 16.1023 20.6023C15.9968 20.7077 15.9375 20.8508 15.9375 21C15.9375 21.1492 15.9968 21.2923 16.1023 21.3977C16.2077 21.5032 16.3508 21.5625 16.5 21.5625H18.75C19.0981 21.5625 19.4319 21.4242 19.6781 21.1781C19.9242 20.9319 20.0625 20.5981 20.0625 20.25V8.25C20.0624 8.10087 20.003 7.95789 19.8975 7.8525ZM14.8125 4.3575L18.1425 7.6875H14.8125V4.3575Z" fill="#fff"/>
</svg>
