<svg width="24" height="24" viewBox="0 0 24 24" fill="currentColor" xmlns="http://www.w3.org/2000/svg">
  <path d="M10.2188 13.9378C10.1674 13.8605 10.0978 13.797 10.016 13.7531C9.93421 13.7092 9.84282 13.6862 9.75 13.6862C9.65718 13.6862 9.5658 13.7092 9.48401 13.7531C9.40222 13.797 9.33256 13.8605 9.28125 13.9378L7.16813 17.1094L6.09844 15.4462C6.04753 15.3669 5.97749 15.3016 5.89477 15.2564C5.81204 15.2112 5.71928 15.1875 5.625 15.1875C5.53073 15.1875 5.43796 15.2112 5.35523 15.2564C5.27251 15.3016 5.20247 15.3669 5.15156 15.4462L1.77656 20.6962C1.72204 20.7812 1.69139 20.8793 1.68785 20.9802C1.6843 21.0812 1.70798 21.1812 1.75641 21.2698C1.80483 21.3584 1.87622 21.4323 1.96307 21.4838C2.04991 21.5353 2.14903 21.5625 2.25 21.5625H14.25C14.3519 21.5627 14.4519 21.5351 14.5394 21.4828C14.6269 21.4306 14.6985 21.3555 14.7466 21.2657C14.7948 21.1759 14.8176 21.0747 14.8127 20.9729C14.8078 20.8711 14.7753 20.7726 14.7188 20.6878L10.2188 13.9378ZM3.28125 20.4375L5.625 16.7906L6.68625 18.4406C6.73694 18.5184 6.80609 18.5824 6.88753 18.627C6.96896 18.6715 7.06016 18.6952 7.15299 18.696C7.24581 18.6967 7.33738 18.6745 7.41952 18.6312C7.50166 18.588 7.57182 18.5251 7.62375 18.4481L9.74625 15.2606L13.1991 20.4375H3.28125ZM19.8975 7.8525L14.6475 2.6025C14.5421 2.49698 14.3991 2.43763 14.25 2.4375H5.25C4.9019 2.4375 4.56806 2.57578 4.32192 2.82192C4.07578 3.06806 3.9375 3.4019 3.9375 3.75V12.75C3.9375 12.8992 3.99676 13.0423 4.10225 13.1477C4.20774 13.2532 4.35082 13.3125 4.5 13.3125C4.64919 13.3125 4.79226 13.2532 4.89775 13.1477C5.00324 13.0423 5.0625 12.8992 5.0625 12.75V3.75C5.0625 3.70027 5.08226 3.65258 5.11742 3.61742C5.15258 3.58225 5.20027 3.5625 5.25 3.5625H13.6875V8.25C13.6875 8.39918 13.7468 8.54226 13.8523 8.64775C13.9577 8.75324 14.1008 8.8125 14.25 8.8125H18.9375V20.25C18.9375 20.2997 18.9177 20.3474 18.8826 20.3826C18.8474 20.4177 18.7997 20.4375 18.75 20.4375H18C17.8508 20.4375 17.7077 20.4968 17.6023 20.6023C17.4968 20.7077 17.4375 20.8508 17.4375 21C17.4375 21.1492 17.4968 21.2923 17.6023 21.3977C17.7077 21.5032 17.8508 21.5625 18 21.5625H18.75C19.0981 21.5625 19.4319 21.4242 19.6781 21.1781C19.9242 20.9319 20.0625 20.5981 20.0625 20.25V8.25C20.0624 8.10087 20.003 7.95789 19.8975 7.8525ZM14.8125 4.3575L18.1425 7.6875H14.8125V4.3575Z" fill="#fff"/>
</svg>
