<svg width="24" height="24" viewBox="0 0 24 24" fill="currentColor" xmlns="http://www.w3.org/2000/svg"><path d="M9 9.188H7.5a.563.563 0 0 0-.562.562v4.5a.562.562 0 1 0 1.125 0v-.937H9a2.062 2.062 0 0 0 0-4.126m0 3h-.937v-1.876H9a.938.938 0 0 1 0 1.876m3.75-9.75a9.6 9.6 0 0 0-7.594 3.75H3.75A1.313 1.313 0 0 0 2.438 7.5v9a1.313 1.313 0 0 0 1.312 1.313h1.406A9.563 9.563 0 1 0 12.75 2.438m8.419 9h-6.357V7.5A1.313 1.313 0 0 0 13.5 6.188h-.187V3.58a8.45 8.45 0 0 1 7.856 7.857m-8.981-7.856v2.606H6.636a8.47 8.47 0 0 1 5.552-2.606M3.563 16.5v-9a.187.187 0 0 1 .187-.187h9.75a.19.19 0 0 1 .188.187v9a.19.19 0 0 1-.188.188H3.75a.19.19 0 0 1-.187-.188m3.073 1.313h5.552v2.605a8.47 8.47 0 0 1-5.552-2.605m6.677 2.606v-2.607h.187a1.313 1.313 0 0 0 1.313-1.312v-3.937h6.356a8.45 8.45 0 0 1-7.857 7.856" fill="#fff"/></svg>
