<svg width="24" height="24" viewBox="0 0 24 24" fill="currentColor" xmlns="http://www.w3.org/2000/svg"><path d="M17.25 13.688h-1.5a.56.56 0 0 0-.562.562v5.25a.562.562 0 1 0 1.124 0v-.937h.938a2.438 2.438 0 1 0 0-4.875m0 3.75h-.937v-2.625h.937a1.313 1.313 0 0 1 0 2.624m-4.687-3.188v5.25a.562.562 0 1 1-1.126 0v-5.25a.562.562 0 1 1 1.126 0m-3.75 5.25a.56.56 0 0 1-.563.563h-3a.563.563 0 0 1-.488-.844l2.519-4.407H5.25a.563.563 0 0 1 0-1.124h3a.563.563 0 0 1 .488.843L6.22 18.937h2.03a.563.563 0 0 1 .563.563M19.898 7.853l-5.25-5.25a.56.56 0 0 0-.398-.166h-9A1.313 1.313 0 0 0 3.938 3.75v6.75a.562.562 0 1 0 1.124 0V3.75a.187.187 0 0 1 .188-.187h8.438V8.25a.563.563 0 0 0 .562.563h4.688V10.5a.562.562 0 1 0 1.125 0V8.25a.56.56 0 0 0-.165-.397m-5.085-.165v-3.33l3.33 3.33z" fill="#fff"/></svg>
