<svg width="24" height="24" viewBox="0 0 24 24" fill="currentColor" xmlns="http://www.w3.org/2000/svg"><path d="M18.75 2.438h-12A1.313 1.313 0 0 0 5.438 3.75v2.438H3.75A1.313 1.313 0 0 0 2.438 7.5v9a1.313 1.313 0 0 0 1.312 1.313h1.688v2.437a1.313 1.313 0 0 0 1.312 1.313h12a1.313 1.313 0 0 0 1.313-1.313V3.75a1.313 1.313 0 0 0-1.313-1.312m-3.937 7.124h4.124v4.876h-4.125zm4.124-5.812v4.688h-4.125V7.5A1.313 1.313 0 0 0 13.5 6.188h-.187V3.563h5.437a.19.19 0 0 1 .188.187m-12.375 0a.187.187 0 0 1 .188-.187h5.438v2.625H6.562zm-3 12.75v-9a.187.187 0 0 1 .188-.187h9.75a.19.19 0 0 1 .188.187v9a.19.19 0 0 1-.188.188H3.75a.19.19 0 0 1-.187-.188m3 3.75v-2.437h5.626v2.625H6.75a.19.19 0 0 1-.187-.188m12.188.188h-5.437v-2.625h.187a1.313 1.313 0 0 0 1.313-1.313v-.937h4.124v4.687a.19.19 0 0 1-.187.188M6.318 13.89 7.893 12l-1.575-1.89a.563.563 0 1 1 .864-.72l1.443 1.732 1.443-1.732a.563.563 0 0 1 .864.72L9.357 12l1.575 1.89a.563.563 0 1 1-.864.72l-1.443-1.732-1.443 1.732a.562.562 0 0 1-.864-.72" fill="#fff"/></svg>
