<svg width="24" height="24" viewBox="0 0 24 24" fill="currentColor" xmlns="http://www.w3.org/2000/svg"><path d="M18.75 2.438h-12A1.313 1.313 0 0 0 5.438 3.75v2.438H3.75A1.313 1.313 0 0 0 2.438 7.5v9a1.313 1.313 0 0 0 1.312 1.313h1.688v2.437a1.313 1.313 0 0 0 1.312 1.313h12a1.313 1.313 0 0 0 1.313-1.313V3.75a1.313 1.313 0 0 0-1.313-1.312m-3.937 7.124h4.124v4.876h-4.125zM6.563 3.75a.187.187 0 0 1 .187-.187h12a.19.19 0 0 1 .188.187v4.688h-4.125V7.5A1.313 1.313 0 0 0 13.5 6.188H6.563zm-3 12.75v-9a.187.187 0 0 1 .187-.187h9.75a.19.19 0 0 1 .188.187v9a.19.19 0 0 1-.188.188H3.75a.19.19 0 0 1-.187-.188m15.187 3.938h-12a.19.19 0 0 1-.187-.188v-2.437H13.5a1.313 1.313 0 0 0 1.313-1.313v-.937h4.124v4.687a.19.19 0 0 1-.187.188M6.58 14.387l-1.126-4.5a.562.562 0 1 1 1.092-.274l.756 3.025.82-1.64a.562.562 0 0 1 1.006 0l.82 1.64.756-3.025a.563.563 0 0 1 1.092.274l-1.125 4.5a.56.56 0 0 1-.485.422.4.4 0 0 1-.061 0 .56.56 0 0 1-.503-.311l-.997-1.99-.997 1.993a.562.562 0 0 1-1.049-.114" fill="#fff"/></svg>
