<svg width="24" height="24" viewBox="0 0 24 24" fill="currentColor" xmlns="http://www.w3.org/2000/svg"><path d="M20.813 14.25a.56.56 0 0 1-.563.563h-2.437v1.874H19.5a.562.562 0 1 1 0 1.125h-1.687V19.5a.562.562 0 1 1-1.125 0v-5.25a.56.56 0 0 1 .562-.562h3a.56.56 0 0 1 .563.562M8.438 16.125A2.437 2.437 0 0 1 6 18.563h-.937v.937a.562.562 0 1 1-1.125 0v-5.25a.56.56 0 0 1 .562-.562H6a2.44 2.44 0 0 1 2.438 2.437m-1.126 0A1.313 1.313 0 0 0 6 14.813h-.937v2.624H6a1.313 1.313 0 0 0 1.313-1.312m7.876.75A3.187 3.187 0 0 1 12 20.063h-1.5a.56.56 0 0 1-.562-.563v-5.25a.56.56 0 0 1 .562-.562H12a3.187 3.187 0 0 1 3.188 3.187m-1.126 0A2.06 2.06 0 0 0 12 14.813h-.937v4.124H12a2.06 2.06 0 0 0 2.063-2.062M3.938 10.5V3.75A1.313 1.313 0 0 1 5.25 2.438h9a.56.56 0 0 1 .398.164l5.25 5.25a.56.56 0 0 1 .165.398v2.25a.562.562 0 1 1-1.125 0V8.813H14.25a.56.56 0 0 1-.562-.563V3.563H5.25a.187.187 0 0 0-.187.187v6.75a.562.562 0 1 1-1.125 0m10.875-2.812h3.33l-3.33-3.33z" fill="#fff"/></svg>
