<svg width="24" height="24" viewBox="0 0 24 24" fill="currentColor" xmlns="http://www.w3.org/2000/svg"><path d="M4.313 16.875c0 1.137.756 2.063 1.687 2.063a1.52 1.52 0 0 0 1.094-.495.563.563 0 0 1 .812.778A2.63 2.63 0 0 1 6 20.062c-1.55 0-2.812-1.43-2.812-3.187 0-1.758 1.261-3.187 2.812-3.187a2.63 2.63 0 0 1 1.906.843.563.563 0 0 1-.812.778A1.52 1.52 0 0 0 6 14.813c-.93 0-1.687.924-1.687 2.062m7.598-.635c-1.018-.293-1.257-.44-1.219-.741a.62.62 0 0 1 .27-.476c.525-.356 1.656-.171 2.011-.08a.562.562 0 0 0 .287-1.087c-.187-.05-1.884-.469-2.926.233a1.75 1.75 0 0 0-.757 1.27c-.17 1.33 1.149 1.71 2.022 1.962 1.136.328 1.385.5 1.331.915a.64.64 0 0 1-.281.5c-.526.35-1.639.155-1.987.059a.563.563 0 0 0-.305 1.08c.45.12.912.183 1.377.188.514 0 1.082-.09 1.534-.389a1.77 1.77 0 0 0 .779-1.294c.188-1.468-1.21-1.872-2.136-2.14m7.781-2.52a.56.56 0 0 0-.719.34l-1.348 3.767-1.345-3.765a.562.562 0 1 0-1.06.376l1.875 5.25a.563.563 0 0 0 1.06 0l1.875-5.25a.563.563 0 0 0-.343-.719zm.37-5.47v2.25a.562.562 0 1 1-1.125 0V8.813H14.25a.56.56 0 0 1-.562-.563V3.563H5.25a.187.187 0 0 0-.187.187v6.75a.562.562 0 1 1-1.125 0V3.75A1.313 1.313 0 0 1 5.25 2.438h9c.15 0 .292.059.398.164l5.25 5.25a.56.56 0 0 1 .165.398m-1.92-.562-3.33-3.33v3.33z" fill="#fff"/></svg>
