<svg width="24" height="24" viewBox="0 0 24 24" fill="currentColor" xmlns="http://www.w3.org/2000/svg"><path d="M9.216 12.23a.56.56 0 0 0-.614.122l-2.085 2.085H4.5a.563.563 0 0 0-.562.563v3.75a.56.56 0 0 0 .562.563h2.017l2.085 2.085a.562.562 0 0 0 .96-.398v-8.25a.56.56 0 0 0-.346-.52m-.778 7.407-1.29-1.285a.56.56 0 0 0-.398-.165H5.063v-2.625H6.75a.56.56 0 0 0 .397-.164l1.29-1.29zm5.624-2.762a3.61 3.61 0 0 1-1.78 3.11.562.562 0 0 1-.563-.97 2.485 2.485 0 0 0 0-4.28.562.562 0 0 1 .562-.97 3.61 3.61 0 0 1 1.781 3.11m5.836-9.022-5.25-5.25a.56.56 0 0 0-.398-.166h-9A1.313 1.313 0 0 0 3.938 3.75v7.5a.562.562 0 1 0 1.124 0v-7.5a.187.187 0 0 1 .188-.187h8.438V8.25a.563.563 0 0 0 .562.563h4.688V20.25a.19.19 0 0 1-.188.188h-3a.562.562 0 1 0 0 1.125h3a1.313 1.313 0 0 0 1.313-1.313v-12a.56.56 0 0 0-.165-.397m-5.085-3.495 3.33 3.33h-3.33z" fill="#fff"/></svg>
