<svg width="22" height="22" viewBox="0 0 22 22" fill="none" xmlns="http://www.w3.org/2000/svg">
<path d="M5.32827 9.16094V3.4375C5.32827 3.30075 5.27394 3.1696 5.17725 3.0729C5.08055 2.9762 4.9494 2.92188 4.81264 2.92188C4.67589 2.92188 4.54474 2.9762 4.44804 3.0729C4.35134 3.1696 4.29702 3.30075 4.29702 3.4375V9.16094C3.71421 9.27928 3.19024 9.59547 2.81389 10.0559C2.43753 10.5164 2.23193 11.0928 2.23193 11.6875C2.23193 12.2822 2.43753 12.8586 2.81389 13.3191C3.19024 13.7795 3.71421 14.0957 4.29702 14.2141V18.5625C4.29702 18.6993 4.35134 18.8304 4.44804 18.9271C4.54474 19.0238 4.67589 19.0781 4.81264 19.0781C4.9494 19.0781 5.08055 19.0238 5.17725 18.9271C5.27394 18.8304 5.32827 18.6993 5.32827 18.5625V14.2141C5.91107 14.0957 6.43504 13.7795 6.8114 13.3191C7.18776 12.8586 7.39335 12.2822 7.39335 11.6875C7.39335 11.0928 7.18776 10.5164 6.8114 10.0559C6.43504 9.59547 5.91107 9.27928 5.32827 9.16094ZM4.81264 13.2344C4.5067 13.2344 4.20763 13.1437 3.95325 12.9737C3.69886 12.8037 3.5006 12.5621 3.38352 12.2795C3.26644 11.9968 3.2358 11.6858 3.29549 11.3857C3.35518 11.0857 3.5025 10.81 3.71884 10.5937C3.93517 10.3774 4.2108 10.23 4.51086 10.1703C4.81093 10.1107 5.12195 10.1413 5.40461 10.2584C5.68726 10.3755 5.92885 10.5737 6.09882 10.8281C6.2688 11.0825 6.35952 11.3816 6.35952 11.6875C6.35952 12.0978 6.19654 12.4912 5.90645 12.7813C5.61635 13.0714 5.2229 13.2344 4.81264 13.2344ZM11.5158 5.03594V3.4375C11.5158 3.30075 11.4614 3.1696 11.3647 3.0729C11.268 2.9762 11.1369 2.92188 11.0001 2.92188C10.8634 2.92188 10.7322 2.9762 10.6355 3.0729C10.5388 3.1696 10.4845 3.30075 10.4845 3.4375V5.03594C9.90171 5.15428 9.37774 5.47047 9.00139 5.93093C8.62503 6.39139 8.41943 6.9678 8.41943 7.5625C8.41943 8.1572 8.62503 8.73361 9.00139 9.19407C9.37774 9.65453 9.90171 9.97072 10.4845 10.0891V18.5625C10.4845 18.6993 10.5388 18.8304 10.6355 18.9271C10.7322 19.0238 10.8634 19.0781 11.0001 19.0781C11.1369 19.0781 11.268 19.0238 11.3647 18.9271C11.4614 18.8304 11.5158 18.6993 11.5158 18.5625V10.0891C12.0986 9.97072 12.6225 9.65453 12.9989 9.19407C13.3753 8.73361 13.5809 8.1572 13.5809 7.5625C13.5809 6.9678 13.3753 6.39139 12.9989 5.93093C12.6225 5.47047 12.0986 5.15428 11.5158 5.03594ZM11.0001 9.10938C10.6942 9.10938 10.3951 9.01865 10.1407 8.84868C9.88636 8.67871 9.6881 8.43712 9.57102 8.15446C9.45394 7.87181 9.4233 7.56078 9.48299 7.26072C9.54268 6.96066 9.69 6.68503 9.90634 6.46869C10.1227 6.25236 10.3983 6.10503 10.6984 6.04535C10.9984 5.98566 11.3095 6.01629 11.5921 6.13337C11.8748 6.25045 12.1163 6.44872 12.2863 6.7031C12.4563 6.95748 12.547 7.25656 12.547 7.5625C12.547 7.97276 12.384 8.36621 12.0939 8.65631C11.8039 8.9464 11.4104 9.10938 11.0001 9.10938ZM19.7658 14.4375C19.7651 13.8434 19.5596 13.2677 19.1838 12.8074C18.8081 12.3472 18.2852 12.0306 17.7033 11.9109V3.4375C17.7033 3.30075 17.6489 3.1696 17.5522 3.0729C17.4555 2.9762 17.3244 2.92188 17.1876 2.92188C17.0509 2.92188 16.9197 2.9762 16.823 3.0729C16.7263 3.1696 16.672 3.30075 16.672 3.4375V11.9109C16.0892 12.0293 15.5652 12.3455 15.1889 12.8059C14.8125 13.2664 14.6069 13.8428 14.6069 14.4375C14.6069 15.0322 14.8125 15.6086 15.1889 16.0691C15.5652 16.5295 16.0892 16.8457 16.672 16.9641V18.5625C16.672 18.6993 16.7263 18.8304 16.823 18.9271C16.9197 19.0238 17.0509 19.0781 17.1876 19.0781C17.3244 19.0781 17.4555 19.0238 17.5522 18.9271C17.6489 18.8304 17.7033 18.6993 17.7033 18.5625V16.9641C18.2852 16.8444 18.8081 16.5278 19.1838 16.0676C19.5596 15.6073 19.7651 15.0316 19.7658 14.4375ZM17.1876 15.9844C16.8817 15.9844 16.5826 15.8937 16.3282 15.7237C16.0739 15.5537 15.8756 15.3121 15.7585 15.0295C15.6414 14.7468 15.6108 14.4358 15.6705 14.1357C15.7302 13.8357 15.8775 13.56 16.0938 13.3437C16.3102 13.1274 16.5858 12.98 16.8859 12.9203C17.1859 12.8607 17.497 12.8913 17.7796 13.0084C18.0623 13.1255 18.3039 13.3237 18.4738 13.5781C18.6438 13.8325 18.7345 14.1316 18.7345 14.4375C18.7345 14.8478 18.5715 15.2412 18.2814 15.5313C17.9914 15.8214 17.5979 15.9844 17.1876 15.9844Z" fill="white"/>
</svg>
