<svg width="22" height="22" viewBox="0 0 22 22" fill="none" xmlns="http://www.w3.org/2000/svg">
<path d="M3.4375 7.39063H6.41094C6.52928 7.97344 6.84547 8.49741 7.30593 8.87376C7.76639 9.25012 8.3428 9.45572 8.9375 9.45572C9.5322 9.45572 10.1086 9.25012 10.5691 8.87376C11.0295 8.49741 11.3457 7.97344 11.4641 7.39063H18.5625C18.6993 7.39063 18.8304 7.33631 18.9271 7.23961C19.0238 7.14291 19.0781 7.01176 19.0781 6.87501C19.0781 6.73825 19.0238 6.6071 18.9271 6.5104C18.8304 6.41371 18.6993 6.35938 18.5625 6.35938H11.4641C11.3457 5.77658 11.0295 5.2526 10.5691 4.87625C10.1086 4.49989 9.5322 4.2943 8.9375 4.2943C8.3428 4.2943 7.76639 4.49989 7.30593 4.87625C6.84547 5.2526 6.52928 5.77658 6.41094 6.35938H3.4375C3.30075 6.35938 3.1696 6.41371 3.0729 6.5104C2.9762 6.6071 2.92188 6.73825 2.92188 6.87501C2.92188 7.01176 2.9762 7.14291 3.0729 7.23961C3.1696 7.33631 3.30075 7.39063 3.4375 7.39063ZM8.9375 5.32813C9.24344 5.32813 9.54252 5.41885 9.7969 5.58883C10.0513 5.7588 10.2495 6.00039 10.3666 6.28304C10.4837 6.5657 10.5143 6.87672 10.4547 7.17679C10.395 7.47685 10.2476 7.75248 10.0313 7.96881C9.81497 8.18515 9.53934 8.33247 9.23928 8.39216C8.93922 8.45184 8.62819 8.42121 8.34554 8.30413C8.06288 8.18705 7.82129 7.98879 7.65132 7.7344C7.48135 7.48002 7.39062 7.18095 7.39062 6.87501C7.39062 6.46475 7.5536 6.0713 7.84369 5.7812C8.13379 5.4911 8.52724 5.32813 8.9375 5.32813ZM18.5625 14.6094H16.9641C16.8457 14.0266 16.5295 13.5026 16.0691 13.1262C15.6086 12.7499 15.0322 12.5443 14.4375 12.5443C13.8428 12.5443 13.2664 12.7499 12.8059 13.1262C12.3455 13.5026 12.0293 14.0266 11.9109 14.6094H3.4375C3.30075 14.6094 3.1696 14.6637 3.0729 14.7604C2.9762 14.8571 2.92188 14.9883 2.92188 15.125C2.92188 15.2618 2.9762 15.3929 3.0729 15.4896C3.1696 15.5863 3.30075 15.6406 3.4375 15.6406H11.9109C12.0293 16.2234 12.3455 16.7474 12.8059 17.1238C13.2664 17.5001 13.8428 17.7057 14.4375 17.7057C15.0322 17.7057 15.6086 17.5001 16.0691 17.1238C16.5295 16.7474 16.8457 16.2234 16.9641 15.6406H18.5625C18.6993 15.6406 18.8304 15.5863 18.9271 15.4896C19.0238 15.3929 19.0781 15.2618 19.0781 15.125C19.0781 14.9883 19.0238 14.8571 18.9271 14.7604C18.8304 14.6637 18.6993 14.6094 18.5625 14.6094ZM14.4375 16.6719C14.1316 16.6719 13.8325 16.5812 13.5781 16.4112C13.3237 16.2412 13.1255 15.9996 13.0084 15.717C12.8913 15.4343 12.8607 15.1233 12.9203 14.8232C12.98 14.5232 13.1274 14.2475 13.3437 14.0312C13.56 13.8149 13.8357 13.6675 14.1357 13.6079C14.4358 13.5482 14.7468 13.5788 15.0295 13.6959C15.3121 13.813 15.5537 14.0112 15.7237 14.2656C15.8937 14.52 15.9844 14.8191 15.9844 15.125C15.9844 15.5353 15.8214 15.9287 15.5313 16.2188C15.2412 16.5089 14.8478 16.6719 14.4375 16.6719Z" fill="white"/>
</svg>
