<svg width="24" height="24" viewBox="0 0 24 24" fill="currentColor" xmlns="http://www.w3.org/2000/svg"><path d="M4.133 4.816a.56.56 0 0 0-.195.425V21a.563.563 0 1 0 1.124 0v-4.24c2.633-2.136 4.864-1.03 7.439.242 1.51.75 3.14 1.554 4.875 1.554 1.272 0 2.602-.431 3.99-1.633a.56.56 0 0 0 .197-.423V5.24a.562.562 0 0 0-.931-.425c-2.72 2.355-4.995 1.227-7.633-.079-2.614-1.294-5.593-2.752-8.866.08m16.305 11.419c-2.633 2.137-4.864 1.03-7.439-.242-2.368-1.173-5.022-2.486-7.937-.618v-9.87c2.633-2.137 4.864-1.031 7.439.24 2.368 1.173 5.022 2.486 7.937.622z" /></svg>
