<svg width="24" height="24" viewBox="0 0 24 24" xmlns="http://www.w3.org/2000/svg"><path d="M20.25 3.75H3.75C3.35218 3.75 2.97064 3.90804 2.68934 4.18934C2.40804 4.47064 2.25 4.85218 2.25 5.25V18.75C2.25 19.1478 2.40804 19.5294 2.68934 19.8107C2.97064 20.092 3.35218 20.25 3.75 20.25H20.25C20.6478 20.25 21.0294 20.092 21.3107 19.8107C21.592 19.5294 21.75 19.1478 21.75 18.75V5.25C21.75 4.85218 21.592 4.47064 21.3107 4.18934C21.0294 3.90804 20.6478 3.75 20.25 3.75ZM10.5 13.5C10.5 14.2956 10.1839 15.0587 9.62132 15.6213C9.05871 16.1839 8.29565 16.5 7.5 16.5C6.70435 16.5 5.94129 16.1839 5.37868 15.6213C4.81607 15.0587 4.5 14.2956 4.5 13.5V10.5C4.50009 9.89248 4.68463 9.2993 5.0292 8.79895C5.37376 8.2986 5.86212 7.91465 6.42966 7.69789C6.99719 7.48114 7.61716 7.44181 8.20755 7.58509C8.79793 7.72837 9.33089 8.04752 9.73594 8.50031C9.80541 8.57303 9.85956 8.65898 9.89514 8.75304C9.93073 8.84711 9.94703 8.94737 9.94308 9.04786C9.93914 9.14836 9.91502 9.24703 9.87216 9.33801C9.82931 9.429 9.76859 9.51043 9.69362 9.57748C9.61866 9.64452 9.53097 9.6958 9.43578 9.72827C9.3406 9.76073 9.23985 9.77372 9.13954 9.76647C9.03923 9.75921 8.94141 9.73185 8.85189 9.68602C8.76236 9.64019 8.68297 9.57682 8.61844 9.49969C8.41593 9.27309 8.14936 9.11335 7.85404 9.04162C7.55873 8.96989 7.24859 8.98955 6.96469 9.09801C6.6808 9.20646 6.43654 9.39859 6.26427 9.64895C6.092 9.89931 5.99985 10.1961 6 10.5V13.5C6 13.8978 6.15804 14.2794 6.43934 14.5607C6.72064 14.842 7.10218 15 7.5 15C7.89782 15 8.27936 14.842 8.56066 14.5607C8.84196 14.2794 9 13.8978 9 13.5V12.75H8.25C8.05109 12.75 7.86032 12.671 7.71967 12.5303C7.57902 12.3897 7.5 12.1989 7.5 12C7.5 11.8011 7.57902 11.6103 7.71967 11.4697C7.86032 11.329 8.05109 11.25 8.25 11.25H9.75C9.94891 11.25 10.1397 11.329 10.2803 11.4697C10.421 11.6103 10.5 11.8011 10.5 12V13.5ZM13.5 15.75C13.5 15.9489 13.421 16.1397 13.2803 16.2803C13.1397 16.421 12.9489 16.5 12.75 16.5C12.5511 16.5 12.3603 16.421 12.2197 16.2803C12.079 16.1397 12 15.9489 12 15.75V8.25C12 8.05109 12.079 7.86032 12.2197 7.71967C12.3603 7.57902 12.5511 7.5 12.75 7.5C12.9489 7.5 13.1397 7.57902 13.2803 7.71967C13.421 7.86032 13.5 8.05109 13.5 8.25V15.75ZM19.125 9H16.5V11.25H18.375C18.5739 11.25 18.7647 11.329 18.9053 11.4697C19.046 11.6103 19.125 11.8011 19.125 12C19.125 12.1989 19.046 12.3897 18.9053 12.5303C18.7647 12.671 18.5739 12.75 18.375 12.75H16.5V15.75C16.5 15.9489 16.421 16.1397 16.2803 16.2803C16.1397 16.421 15.9489 16.5 15.75 16.5C15.5511 16.5 15.3603 16.421 15.2197 16.2803C15.079 16.1397 15 15.9489 15 15.75V8.25C15 8.05109 15.079 7.86032 15.2197 7.71967C15.3603 7.57902 15.5511 7.5 15.75 7.5H19.125C19.3239 7.5 19.5147 7.57902 19.6553 7.71967C19.796 7.86032 19.875 8.05109 19.875 8.25C19.875 8.44891 19.796 8.63968 19.6553 8.78033C19.5147 8.92098 19.3239 9 19.125 9Z"/></svg>
