<svg width="22" height="22" viewBox="0 0 22 22" fill="none" xmlns="http://www.w3.org/2000/svg">
<path d="M17.875 11.8594H4.125C3.80591 11.8594 3.49989 11.9861 3.27426 12.2118C3.04863 12.4374 2.92188 12.7434 2.92188 13.0625V17.1875C2.92188 17.5066 3.04863 17.8126 3.27426 18.0382C3.49989 18.2639 3.80591 18.3906 4.125 18.3906H17.875C18.1941 18.3906 18.5001 18.2639 18.7257 18.0382C18.9514 17.8126 19.0781 17.5066 19.0781 17.1875V13.0625C19.0781 12.7434 18.9514 12.4374 18.7257 12.2118C18.5001 11.9861 18.1941 11.8594 17.875 11.8594ZM18.0469 17.1875C18.0469 17.2331 18.0288 17.2768 17.9965 17.309C17.9643 17.3413 17.9206 17.3594 17.875 17.3594H4.125C4.07942 17.3594 4.0357 17.3413 4.00347 17.309C3.97123 17.2768 3.95312 17.2331 3.95312 17.1875V13.0625C3.95312 13.0169 3.97123 12.9732 4.00347 12.941C4.0357 12.9087 4.07942 12.8906 4.125 12.8906H17.875C17.9206 12.8906 17.9643 12.9087 17.9965 12.941C18.0288 12.9732 18.0469 13.0169 18.0469 13.0625V17.1875ZM17.875 3.60938H4.125C3.80591 3.60938 3.49989 3.73613 3.27426 3.96176C3.04863 4.18739 2.92188 4.49341 2.92188 4.8125V8.9375C2.92187 9.0955 2.95299 9.25195 3.01346 9.39792C3.07392 9.54389 3.16254 9.67652 3.27426 9.78824C3.38598 9.89996 3.51861 9.98858 3.66458 10.049C3.81055 10.1095 3.967 10.1406 4.125 10.1406H17.875C18.033 10.1406 18.1894 10.1095 18.3354 10.049C18.4814 9.98858 18.614 9.89996 18.7257 9.78824C18.8375 9.67652 18.9261 9.54389 18.9865 9.39792C19.047 9.25195 19.0781 9.0955 19.0781 8.9375V4.8125C19.0781 4.49341 18.9514 4.18739 18.7257 3.96176C18.5001 3.73613 18.1941 3.60938 17.875 3.60938ZM18.0469 8.9375C18.0469 8.98308 18.0288 9.0268 17.9965 9.05903C17.9643 9.09127 17.9206 9.10938 17.875 9.10938H4.125C4.07942 9.10938 4.0357 9.09127 4.00347 9.05903C3.97123 9.0268 3.95312 8.98308 3.95312 8.9375V4.8125C3.95312 4.76692 3.97123 4.7232 4.00347 4.69097C4.0357 4.65873 4.07942 4.64062 4.125 4.64062H17.875C17.9206 4.64062 17.9643 4.65873 17.9965 4.69097C18.0288 4.7232 18.0469 4.76692 18.0469 4.8125V8.9375ZM16.3281 6.875C16.3281 7.04497 16.2777 7.21112 16.1833 7.35244C16.0889 7.49377 15.9546 7.60391 15.7976 7.66896C15.6406 7.734 15.4678 7.75102 15.3011 7.71786C15.1344 7.6847 14.9813 7.60286 14.8611 7.48267C14.7409 7.36248 14.659 7.20936 14.6259 7.04266C14.5927 6.87595 14.6097 6.70316 14.6748 6.54613C14.7398 6.3891 14.85 6.25488 14.9913 6.16046C15.1326 6.06603 15.2988 6.01562 15.4688 6.01562C15.6967 6.01562 15.9153 6.10617 16.0764 6.26733C16.2376 6.42849 16.3281 6.64708 16.3281 6.875ZM16.3281 15.125C16.3281 15.295 16.2777 15.4611 16.1833 15.6024C16.0889 15.7438 15.9546 15.8539 15.7976 15.919C15.6406 15.984 15.4678 16.001 15.3011 15.9679C15.1344 15.9347 14.9813 15.8529 14.8611 15.7327C14.7409 15.6125 14.659 15.4594 14.6259 15.2927C14.5927 15.126 14.6097 14.9532 14.6748 14.7961C14.7398 14.6391 14.85 14.5049 14.9913 14.4105C15.1326 14.316 15.2988 14.2656 15.4688 14.2656C15.6967 14.2656 15.9153 14.3562 16.0764 14.5173C16.2376 14.6785 16.3281 14.8971 16.3281 15.125Z" fill="white"/>
</svg>
