<svg fill="currentColor" height="24" viewBox="0 0 24 24" width="24" xmlns="http://www.w3.org/2000/svg"><path d="m16.6875 3.1875c-1.9687 0-3.6806.88781-4.6875 2.37563-1.0069-1.48782-2.71875-2.37563-4.6875-2.37563-1.49131.00174-2.92104.59493-3.97556 1.64944-1.05451 1.05452-1.6477 2.48425-1.64944 3.97556 0 2.7375 1.70625 5.5866 5.07187 8.4666 1.54224 1.3141 3.20814 2.4758 4.97443 3.4687.0818.044.1733.067.2662.067s.1844-.023.2662-.067c1.7663-.9929 3.4322-2.1546 4.9744-3.4687 3.3656-2.88 5.0719-5.7291 5.0719-8.4666-.0017-1.49131-.5949-2.92104-1.6494-3.97556-1.0546-1.05451-2.4843-1.6477-3.9756-1.64944zm-4.6875 16.4166c-1.5384-.8878-9.1875-5.5678-9.1875-10.7916.00124-1.19309.47575-2.33697 1.31939-3.18061s1.98752-1.31815 3.18061-1.31939c1.90125 0 3.4978 1.01531 4.1672 2.65031.0424.10317.1145.19141.2071.25351.0927.0621.2017.09526.3132.09526s.2205-.03316.3132-.09526c.0926-.0621.1647-.15034.2071-.25351.6694-1.635 2.266-2.65031 4.1672-2.65031 1.1931.00124 2.337.47575 3.1806 1.31939.8437.84364 1.3182 1.98752 1.3194 3.18061 0 5.2238-7.6491 9.9038-9.1875 10.7916z" fill="#fff"/></svg>
