<svg fill="currentColor" height="24" viewBox="0 0 24 24" width="24" xmlns="http://www.w3.org/2000/svg"><path d="m22.5 9.5625c0 6.5625-9.7303 11.8744-10.1447 12.0937-.1092.0588-.2313.0896-.3553.0896s-.2461-.0308-.3553-.0896c-.4144-.2193-10.1447-5.5312-10.1447-12.0937.00174-1.54104.61468-3.01846 1.70436-4.10814s2.5671-1.70262 4.10814-1.70436c1.93594 0 3.6309.8325 4.6875 2.23969 1.0566-1.40719 2.7516-2.23969 4.6875-2.23969 1.541.00174 3.0185.61468 4.1081 1.70436 1.0897 1.08968 1.7027 2.5671 1.7044 4.10814z" fill="#fff"/></svg>
