<svg width="24" height="19" viewBox="0 0 24 19" fill="currentColor" xmlns="http://www.w3.org/2000/svg">
<path d="M22.5 17.6875H20.8125V8.8328C20.8123 8.65096 20.7744 8.47114 20.7013 8.30463C20.6283 8.13813 20.5215 7.98855 20.3878 7.8653L12.8878 0.788111L12.8794 0.780611C12.6384 0.559914 12.3235 0.4375 11.9967 0.4375C11.67 0.4375 11.355 0.559914 11.1141 0.780611L11.1056 0.788111L3.60562 7.86624C3.47297 7.98974 3.36733 8.13939 3.29537 8.30574C3.22341 8.47209 3.18668 8.65155 3.1875 8.8328V17.6875H1.5C1.35082 17.6875 1.20774 17.7467 1.10225 17.8522C0.996763 17.9577 0.9375 18.1008 0.9375 18.25C0.9375 18.3992 0.996763 18.5422 1.10225 18.6477C1.20774 18.7532 1.35082 18.8125 1.5 18.8125H22.5C22.6492 18.8125 22.7923 18.7532 22.8977 18.6477C23.0032 18.5422 23.0625 18.3992 23.0625 18.25C23.0625 18.1008 23.0032 17.9577 22.8977 17.8522C22.7923 17.7467 22.6492 17.6875 22.5 17.6875ZM4.3125 8.8328C4.31244 8.8067 4.31783 8.78088 4.32833 8.75699C4.33882 8.7331 4.35418 8.71166 4.37344 8.69405L4.38188 8.68655L11.8763 1.6103C11.9104 1.58049 11.9542 1.56407 11.9995 1.56407C12.0449 1.56407 12.0887 1.58049 12.1228 1.6103L19.6181 8.68749L19.6256 8.69499C19.645 8.71252 19.6606 8.73392 19.6712 8.75781C19.6819 8.78171 19.6874 8.80757 19.6875 8.83374V17.6875H14.8125V13C14.8125 12.6519 14.6742 12.318 14.4281 12.0719C14.1819 11.8258 13.8481 11.6875 13.5 11.6875H10.5C10.1519 11.6875 9.81806 11.8258 9.57192 12.0719C9.32578 12.318 9.1875 12.6519 9.1875 13V17.6875H4.3125V8.8328ZM13.6875 17.6875H10.3125V13C10.3125 12.9503 10.3323 12.9026 10.3674 12.8674C10.4026 12.8322 10.4503 12.8125 10.5 12.8125H13.5C13.5497 12.8125 13.5974 12.8322 13.6326 12.8674C13.6677 12.9026 13.6875 12.9503 13.6875 13V17.6875Z"/>
</svg>
