<svg fill="currentColor" height="24" viewBox="0 0 24 24" width="24" xmlns="http://www.w3.org/2000/svg"><path d="m20.25 3.9375h-16.5c-.3481 0-.68194.13828-.92808.38442s-.38442.57998-.38442.92808v13.5c0 .3481.13828.6819.38442.9281.24614.2461.57998.3844.92808.3844h16.5c.3481 0 .6819-.1383.9281-.3844.2461-.2462.3844-.58.3844-.9281v-13.5c0-.3481-.1383-.68194-.3844-.92808-.2462-.24614-.58-.38442-.9281-.38442zm-16.5 1.125h16.5c.0497 0 .0974.01975.1326.05492.0351.03516.0549.08285.0549.13258v10.0847l-2.7628-2.7628c-.1219-.1219-.2666-.2186-.4258-.2846-.1593-.0659-.33-.0999-.5023-.0999-.1724 0-.3431.034-.5023.0999-.1593.066-.304.1627-.4259.2846l-2.0081 2.0081-4.25717-4.2581c-.12188-.1219-.26658-.2186-.42583-.2846-.15925-.06594-.32993-.09989-.5023-.09989s-.34305.03395-.5023.09989c-.15925.066-.30395.1627-.42583.2846l-4.13437 4.1343v-9.2062c0-.04973.01975-.09742.05492-.13258.03516-.03517.08285-.05492.13258-.05492zm-.1875 13.6875v-2.7028l4.92938-4.9294c.01743-.0176.03816-.0315.06101-.041s.04736-.0144.07211-.0144.04926.0049.07211.0144.04358.0234.06101.041l7.81968 7.8197h-12.8278c-.04973 0-.09742-.0198-.13258-.0549-.03517-.0352-.05492-.0829-.05492-.1326zm16.6875.1875h-2.0812l-3.5625-3.5625 2.0071-2.0081c.0175-.0175.0381-.0313.0609-.0407.0228-.0095.0472-.0143.0718-.0143s.049.0048.0718.0143c.0228.0094.0434.0232.0608.0407l3.5625 3.5625v1.8206c.0001.0249-.0049.0496-.0146.0726-.0096.023-.0238.0439-.0416.0613-.0178.0175-.0389.0312-.0621.0404s-.048.0137-.0729.0132zm-6.5625-9.5625c0-.18542.055-.36668.158-.52085s.2494-.27433.4207-.34529c.1713-.07095.3598-.08952.5417-.05335.1819.03618.3489.12547.48.25658s.2204.29816.2566.48001c.0362.18186.0176.37036-.0534.54167-.0709.1713-.1911.31773-.3453.42073-.1541.103-.3354.158-.5208.158-.2486 0-.4871-.0988-.6629-.2746s-.2746-.41426-.2746-.6629z" fill="#fff"/></svg>
