<svg fill="currentColor" height="24" viewBox="0 0 24 24" width="24" xmlns="http://www.w3.org/2000/svg"><path d="m13.3125 16.5c0 .1492-.0593.2923-.1647.3977-.1055.1055-.2486.1648-.3978.1648-.3481 0-.6819-.1383-.9281-.3844-.2461-.2462-.3844-.58-.3844-.9281v-3.75c0-.0497-.0197-.0974-.0549-.1326-.0352-.0351-.0829-.0549-.1326-.0549-.1492 0-.2923-.0593-.3977-.1648-.1055-.1054-.1648-.2485-.1648-.3977s.0593-.2923.1648-.3977c.1054-.1055.2485-.1648.3977-.1648.3481 0 .6819.1383.9281.3844.2461.2462.3844.58.3844.9281v3.75c0 .0497.0198.0974.0549.1326.0352.0351.0829.0549.1326.0549.1492 0 .2923.0593.3978.1648.1054.1054.1647.2485.1647.3977zm-1.6875-7.6875c.1854 0 .3667-.05498.5209-.158.1541-.10301.2743-.24943.3452-.42073.071-.17131.0896-.35981.0534-.54167-.0362-.18185-.1255-.3489-.2566-.48001s-.2981-.2204-.48-.25658c-.1819-.03617-.3704-.0176-.5417.05335-.1713.07096-.3177.19112-.4207.34529s-.158.33543-.158.52085c0 .24864.0988.4871.2746.66291.1758.17582.4143.27459.6629.27459zm9.9375 3.1875c0 1.8913-.5608 3.7401-1.6116 5.3126-1.0507 1.5726-2.5442 2.7982-4.2915 3.522s-3.67.9131-5.5249.5442c-1.85499-.369-3.55886-1.2798-4.8962-2.6171s-2.24808-3.0412-2.61705-4.8961c-.36898-1.855-.17961-3.7777.54416-5.52501.72376-1.74732 1.94941-3.24078 3.52195-4.29152 1.57255-1.05074 3.42134-1.61157 5.31264-1.61157 2.5352.00298 4.9658 1.01141 6.7584 2.80408 1.7927 1.79267 2.8011 4.2232 2.8041 6.75842zm-1.125 0c0-1.6688-.4948-3.30008-1.422-4.68762-.9271-1.38754-2.2449-2.469-3.7866-3.10761-1.5418-.63862-3.2383-.80571-4.875-.48015-1.63668.32557-3.1401 1.12916-4.32011 2.30917-1.18 1.18-1.9836 2.68342-2.30916 4.32011-.32556 1.6367-.15847 3.3332.48014 4.875.63861 1.5417 1.72007 2.8595 3.10761 3.7866s3.01882 1.422 4.68762 1.422c2.237-.0025 4.3817-.8922 5.9635-2.474s2.4715-3.7265 2.474-5.9635z" fill="currentColor"/></svg>
