<svg width="32" height="32" viewBox="0 0 32 32" fill="none" xmlns="http://www.w3.org/2000/svg">
    <g clipPath="url(#clip0_2700_1214)">
      <path d="M4.33065 11.2875C4.53595 10.9171 4.72026 10.5919 4.87057 10.3267C4.41431 9.84062 3.772 9.45042 3.60918 8.91454C3.35976 8.09364 4.29085 8.06064 4.81517 7.741C4.37828 7.35229 3.91431 7.0035 3.53761 6.57753C3.34671 6.36168 3.18057 5.97123 3.24621 5.72429C3.31145 5.47881 3.42254 5.26455 3.92428 5.13311C4.48836 4.98533 4.86404 4.93189 5.4142 4.8259C4.70834 3.93339 4.04217 3.08247 3.3658 2.23973C3.05989 1.85858 2.77301 1.47037 3.1535 0.996608C3.51715 0.543806 3.95319 0.660235 4.41284 0.878605C8.43488 2.78939 12.659 3.7791 17.1277 3.82448C24.3826 3.89814 30.2925 9.50005 30.9451 16.8262C31.5646 23.781 26.6703 30.2686 19.7268 31.697C11.5922 33.3703 3.87965 27.9389 2.75609 19.6995C2.35517 16.7593 2.91642 13.9592 4.33065 11.2875ZM5.89742 2.99953C5.8556 2.98377 5.55569 2.88315 5.55569 2.88315C5.55569 2.88315 5.80957 3.15727 5.89828 3.27007C6.24104 3.70589 6.59241 4.13526 6.92455 4.57903C7.43995 5.26765 7.2073 5.85577 6.35483 6.03258C5.99498 6.10721 5.63156 6.16463 5.16892 6.24806C5.61341 6.64676 6.00251 6.96582 6.3561 7.32031C6.88239 7.8031 6.75017 8.45163 6.13537 8.6908C5.95209 8.78424 5.75429 8.8492 5.54835 8.93323C6.53876 9.72526 6.92455 9.92931 5.86359 11.2826C4.34442 13.8247 3.71134 16.5704 4.0756 19.5104C5.22932 28.8225 15.9883 33.7589 23.8399 28.5861C24.0279 28.4622 24.2344 28.259 24.2882 28.0549C25.0635 25.1095 25.0255 22.3101 22.8754 19.8466C22.2839 19.1689 21.7547 18.3992 21.3635 17.591C19.8838 14.5343 21.6061 11.2272 24.9387 10.7132C25.7242 10.592 26.8192 10.6029 27.5825 10.8679C27.5825 10.8679 27.2159 10.4382 27.1267 10.3214C24.6807 7.11772 21.4525 5.27816 17.421 5.19102C13.4667 5.10554 9.66557 4.42002 5.89742 2.99953ZM28.3111 23.6733C29.701 20.5796 30.0484 17.9614 29.2516 14.8162C28.6667 12.5072 26.9638 11.5134 24.6631 12.095C22.6653 12.6001 21.5571 14.9646 22.5038 16.8786C22.9215 17.723 23.5231 18.4845 24.0952 19.2428C24.9372 20.2433 25.8002 21.7453 26.1029 23.3258C26.2374 24.4467 26.1029 26.2177 25.9846 26.9127C26.5737 26.3186 27.9239 24.6258 28.3111 23.6733Z" fill="currentColor" />
      <path d="M15.1965 11.0795C17.2557 12.2826 17.9031 15.2073 16.5761 17.1251C16.245 17.6036 15.7936 17.7179 15.2394 17.6915C14.3896 17.5411 13.1798 17.5338 12.4871 17.6915C11.8683 17.7261 11.3805 17.5585 11.0482 17.027C10.0018 15.3532 10.3646 12.8978 11.844 11.5877C12.8159 10.7271 13.9549 10.5442 15.1965 11.0795ZM12.0461 15.9768C12.123 16.1555 12.2946 16.3142 12.4871 16.2363C13.1281 15.9768 14.2301 16.0308 15.1649 16.2246C15.4161 16.3331 15.5983 16.0979 15.6483 15.9715C16.0846 14.8675 16.0266 13.7912 15.2768 12.8324C14.3773 11.682 13.2129 11.9646 12.4272 12.8324C12.0738 13.2227 11.4303 14.5455 12.0461 15.9768Z" fill="currentColor" />
    </g>
    <defs>
      <clipPath id="clip0_2700_1214">
        <rect width="32" height="32" fill="currentColor" />
      </clipPath>
    </defs>
  </svg>