<svg width="65" height="65" viewBox="0 0 65 65" fill="none" xmlns="http://www.w3.org/2000/svg">
<path d="M2.82202 26.0995C2.82202 21.5778 2.82397 18.3369 3.03171 15.7943C3.23706 13.2809 3.63099 11.6708 4.29343 10.3706C5.58772 7.83045 7.65296 5.76521 10.1931 4.47092C11.4933 3.80848 13.1034 3.41455 15.6168 3.2092C18.1594 3.00146 21.4003 2.99951 25.922 2.99951H38.722C43.2437 2.99951 46.4846 3.00146 49.0272 3.2092C51.5406 3.41455 53.1508 3.80848 54.4509 4.47092C56.9911 5.76521 59.0563 7.83045 60.3506 10.3706C61.0131 11.6708 61.407 13.2809 61.6123 15.7943C61.8201 18.3369 61.822 21.5778 61.822 26.0995V38.8995C61.822 43.4212 61.8201 46.6621 61.6123 49.2047C61.407 51.7181 61.0131 53.3283 60.3506 54.6284C59.0563 57.1686 56.9911 59.2338 54.4509 60.5281C53.1508 61.1905 51.5406 61.5845 49.0272 61.7898C46.4846 61.9976 43.2437 61.9995 38.722 61.9995H25.922C21.4003 61.9995 18.1594 61.9976 15.6168 61.7898C13.1034 61.5845 11.4933 61.1905 10.1931 60.5281C7.65296 59.2338 5.58772 57.1686 4.29343 54.6284C3.63099 53.3283 3.23706 51.7181 3.03171 49.2047C2.82397 46.6621 2.82202 43.4212 2.82202 38.8995V26.0995Z" stroke="black" stroke-width="5"/>
<path fill-rule="evenodd" clip-rule="evenodd" d="M17.1218 13.6631C17.0722 13.6803 17.0748 13.8484 17.0806 14.219C17.0831 14.3729 17.086 14.5618 17.086 14.7892C17.086 18.7401 20.2681 19.5437 20.2681 19.5437C20.2681 19.5437 17.086 19.2282 17.086 20.0794C17.086 20.9307 19.867 22.0214 19.867 22.0214C19.867 22.0214 15.1204 22.7773 15.1204 23.6286C15.1204 23.8982 15.4421 23.9535 16.022 24.0532C16.7645 24.1808 17.9301 24.3812 19.3856 25.1971C17.3787 27.9177 16.1925 31.2808 16.1925 34.9209C16.1925 43.9766 23.5336 51.3178 32.5894 51.3178C35.8499 51.3178 38.8881 50.3661 41.4415 48.7254C41.2444 48.4523 41.1714 48.081 41.3107 47.7101C42.0717 45.6829 42.3867 44.2047 42.3048 42.9185C42.224 41.6491 41.752 40.506 40.8149 39.1563C40.2994 38.4139 39.7841 37.8434 39.2912 37.3339C39.1614 37.1998 39.0302 37.067 38.8996 36.9349L38.8991 36.9344C38.5453 36.5763 38.1956 36.2225 37.8898 35.857C37.4575 35.3403 37.0838 34.7697 36.8224 34.0367C36.5621 33.3071 36.4227 32.4435 36.4227 31.3489C36.4227 28.3761 38.4153 25.9918 40.8385 24.9973C42.3475 24.378 44.0581 24.2857 45.592 24.93C42.5942 21.0344 37.885 18.524 32.5894 18.524C32.4061 18.524 32.2235 18.527 32.0417 18.533C21.2259 18.3677 18.2085 14.8631 17.3819 13.903C17.2404 13.7386 17.1631 13.6488 17.1218 13.6631ZM30.3036 32.4119C29.8788 32.2619 29.4217 32.1803 28.9455 32.1803C28.5257 32.1803 28.1207 32.2437 27.7396 32.3615C27.4507 32.4508 27.3063 32.4955 27.1954 32.4743C27.099 32.4559 27.0084 32.4047 26.943 32.3317C26.8676 32.2476 26.8423 32.1454 26.7918 31.941C26.7149 31.6299 26.6733 31.2973 26.6733 30.9519C26.6733 29.2082 27.7334 27.7946 29.0412 27.7946C30.349 27.7946 31.4091 29.2082 31.4091 30.9519C31.4091 31.3268 31.3601 31.6865 31.2701 32.0201C31.2149 32.2252 31.1872 32.3277 31.1087 32.4108C31.0407 32.4827 30.9471 32.5319 30.8493 32.5471C30.7364 32.5647 30.5921 32.5138 30.3036 32.4119Z" fill="#26D2E8"/>
<path d="M41.2729 38.8381C39.1152 35.7307 36.9802 35.5377 36.9802 31.3487C36.9802 25.9278 44.2615 22.5405 47.6959 27.3501C49.1704 29.4152 49.6658 32.6013 49.6658 35.0933C49.6658 40.6581 46.8528 45.5698 42.5587 48.5132C42.1491 48.794 41.6584 48.3702 41.8327 47.9059C43.3749 43.7975 43.22 41.6423 41.2729 38.8381Z" fill="#FF6D6D"/>
</svg>
