<svg xmlns="http://www.w3.org/2000/svg" viewBox="0 0 24 24" width="24" height="24" fill="none"><path fill="#26D2E8" fill-rule="evenodd" d="M1.449.103c-.032.011-.03.117-.026.351q.002.146.003.36c0 2.496 2.01 3.003 2.01 3.003s-2.01-.199-2.01.339c0 .537 1.756 1.226 1.756 1.226S.184 5.86.184 6.397c0 .17.204.205.57.268.469.081 1.205.208 2.124.723a10.3 10.3 0 0 0-2.016 6.141c0 5.72 4.636 10.356 10.356 10.356 2.059 0 3.978-.601 5.59-1.637a.68.68 0 0 1-.082-.641c.48-1.28.68-2.214.628-3.027-.052-.801-.35-1.523-.941-2.376a9 9 0 0 0-.963-1.15l-.247-.253c-.224-.226-.445-.45-.638-.68a3.7 3.7 0 0 1-.674-1.15c-.164-.461-.252-1.007-.252-1.698 0-1.877 1.258-3.383 2.788-4.011.954-.391 2.034-.45 3.003-.043a10.34 10.34 0 0 0-8.558-4.04C4.04 3.075 2.135.86 1.612.255 1.524.15 1.476.095 1.45.103m8.325 11.842a2.57 2.57 0 0 0-1.62-.032c-.182.056-.273.084-.343.071a.3.3 0 0 1-.16-.09c-.047-.053-.063-.118-.095-.247a2.6 2.6 0 0 1-.075-.625c0-1.1.67-1.994 1.496-1.994s1.495.893 1.495 1.994q0 .357-.088.675c-.035.13-.052.194-.102.247a.3.3 0 0 1-.164.086c-.07.011-.162-.021-.344-.085" clip-rule="evenodd"/><path fill="#FF6D6D" d="M16.702 16.003c-1.363-1.962-2.711-2.084-2.711-4.73 0-3.424 4.598-5.563 6.768-2.525.93 1.304 1.244 3.316 1.244 4.89 0 3.515-1.777 6.617-4.489 8.476-.259.177-.569-.09-.459-.384.974-2.594.877-3.956-.353-5.727"/></svg>