<svg fill="currentColor" height="24" viewBox="0 0 24 24" width="24" xmlns="http://www.w3.org/2000/svg"><path d="m22.2534 19.9988-5.25-10.50005c-.0466-.0936-.1184-.17235-.2074-.22739-.0889-.05504-.1914-.0842-.296-.0842s-.2071.02916-.296.0842c-.089.05504-.1608.13379-.2074.22739l-2.0907 4.18125c-1.7472-.0725-3.4288-.6861-4.81215-1.7559 1.60815-1.6447 2.56775-3.81524 2.70185-6.1116h2.4544c.1492 0 .2923-.05926.3977-.16475.1055-.10549.1648-.24857.1648-.39775s-.0593-.29226-.1648-.39775c-.1054-.10549-.2485-.16475-.3977-.16475h-5.4375v-1.6875c0-.14918-.05926-.29226-.16475-.39775s-.24857-.16475-.39775-.16475-.29226.05926-.39775.16475-.16475.24857-.16475.39775v1.6875h-5.4375c-.14918 0-.29226.05926-.39775.16475s-.16475.24857-.16475.39775.05926.29226.16475.39775.24857.16475.39775.16475h8.4178c-.1335 2.02125-.99203 3.9264-2.4178 5.3653-.87452-.8813-1.54331-1.94517-1.95844-3.1153-.02329-.0713-.06062-.13722-.10977-.19389-.04915-.05666-.10914-.10292-.17644-.13606-.06729-.03313-.14054-.05247-.21542-.05688s-.14989.00621-.22061.03122c-.07071.02501-.13572.06391-.19118.11442-.05546.0505-.10026.11159-.13176.17967s-.04906.14176-.05166.21673.00982.1497.03653.21979c.46272 1.30686 1.20498 2.497 2.175 3.4875-1.47501 1.1444-3.28935 1.7646-5.15625 1.7625-.14918 0-.29226.0593-.39775.1648-.10549.1054-.16475.2485-.16475.3977s.05926.2923.16475.3977c.10549.1055.24857.1648.39775.1648 2.18415.002 4.30258-.7471 6-2.1216 1.46309 1.1797 3.241 1.9025 5.1122 2.0785l-2.6147 5.2294c-.033.0661-.0526.138-.0578.2117s.0042.1477.0276.2178c.0473.1416.1489.2585.2824.3251.1335.0667.288.0775.4296.0302.1415-.0472.2584-.1488.3251-.2823l1.3434-2.6888h6.8044l1.3444 2.6888c.0467.0935.1185.1722.2074.2271.089.055.1915.0841.296.0841.0873.0002.1734-.0203.2512-.06.1334-.0666.2348-.1834.2821-.3247.0472-.1413.0365-.2956-.0299-.429zm-8.5931-3.3113 2.8397-5.6794 2.8397 5.6794z" fill="#fff"/></svg>
