<svg xmlns="http://www.w3.org/2000/svg" width="37" height="36" viewBox="0 0 37 36" fill="none"><rect width="36" height="36" x=".667" fill="#0D0F16" rx="8"/><rect width="36" height="36" x=".667" fill="url(#a)" fill-opacity=".2" rx="8"/><path fill="url(#b)" d="M23.168 27.75a.75.75 0 0 1-.75.75h-7.5a.75.75 0 1 1 0-1.5h7.5a.75.75 0 0 1 .75.75Zm3.75-12a8.208 8.208 0 0 1-3.154 6.489 1.522 1.522 0 0 0-.596 1.199V24a1.5 1.5 0 0 1-1.5 1.5h-6a1.5 1.5 0 0 1-1.5-1.5v-.562a1.502 1.502 0 0 0-.584-1.187 8.213 8.213 0 0 1-3.166-6.455c-.025-4.468 3.587-8.189 8.05-8.296a8.25 8.25 0 0 1 8.45 8.25Zm-3.01-.875a5.4 5.4 0 0 0-4.366-4.364.75.75 0 1 0-.25 1.48c1.554.26 2.872 1.579 3.136 3.135a.75.75 0 0 0 1.48-.251Z"/><defs><linearGradient id="a" x1="18.668" x2="18.668" y1="0" y2="36" gradientUnits="userSpaceOnUse"><stop stop-color="#00FFCF"/><stop offset="1" stop-color="#4AA6FF"/></linearGradient><linearGradient id="b" x1="10.418" x2="30.823" y1="7.498" y2="23.529" gradientUnits="userSpaceOnUse"><stop stop-color="#00FFCF"/><stop offset="1" stop-color="#4AA6FF"/></linearGradient></defs></svg>