<svg fill="currentColor" height="18" viewBox="0 0 18 18" width="18" xmlns="http://www.w3.org/2000/svg"><path d="m9.76218 14.6034c.0523.0523.09379.1143.1221.1826s.04288.1415.04288.2154-.01457.1471-.04288.2154-.0698.1303-.1221.1826l-.93281.9318c-.94956.9496-2.23744 1.4831-3.58031 1.4831-1.34288 0-2.63076-.5335-3.58032-1.4831-.949554-.9495-1.48301-2.2374-1.48301-3.5803 0-1.3428.533456-2.6307 1.48301-3.58027l2.26032-2.26126c.91298-.91401 2.14086-1.44442 3.43218-1.48259 1.29132-.03816 2.54838.41879 3.51376 1.27728.0554.04925.1006.10892.1329.17562s.0512.13912.0556.21311c.0043.074-.0059.14813-.0302.21816s-.0622.13459-.1114.18999c-.0493.0554-.109.10056-.1756.1329-.0667.03234-.1392.05122-.2132.05557-.074.00436-.1481-.00591-.2181-.0302-.07-.0243-.1346-.06215-.19-.1114-.7508-.66693-1.72804-1.0218-2.73184-.992-1.00379.0298-1.95826.44201-2.66817 1.15232l-2.26125 2.2575c-.73871.73867-1.15371 1.74057-1.15371 2.78527s.415 2.0466 1.15371 2.7854c.73871.7387 1.74062 1.1537 2.78532 1.1537 1.04469 0 2.0466-.415 2.78531-1.1537l.93187-.9329c.05225-.0523.11428-.0938.18257-.1221s.14148-.0428.2154-.0428.14712.0145.21541.0428c.06828.0283.13032.0698.18256.1221zm6.56902-12.93746c-.9501-.948386-2.2378-1.481032-3.5803-1.481032s-2.6301.532646-3.58028 1.481032l-.93281.93187c-.10555.10555-.16485.2487-.16485.39797s.0593.29242.16485.39797.2487.16484.39797.16484c.14926 0 .29242-.05929.39796-.16484l.93188-.9375c.73868-.73871 1.74058-1.15371 2.78528-1.15371s2.0466.415 2.7853 1.15371c.7388.73871 1.1538 1.74062 1.1538 2.78531 0 1.0447-.415 2.0466-1.1538 2.78532l-2.2612 2.26782c-.7099.7103-1.6644 1.1225-2.6682 1.1523-1.00377.0298-1.98102-.3251-2.73181-.992-.0554-.0492-.11996-.0871-.18999-.1114s-.14415-.0346-.21815-.0302-.14641.0232-.21311.0556c-.0667.0323-.12637.0775-.17562.1329s-.0871.1199-.11139.19c-.0243.07-.03456.1441-.03021.2181s.02324.1464.05557.2131c.03234.0667.0775.1264.1329.1756.96527.858 2.22193 1.3146 3.51281 1.2764 1.2909-.0381 2.5184-.5682 3.4313-1.4817l2.2603-2.26121c.4708-.47005.8443-1.02829 1.0993-1.6428.2549-.61451.3862-1.27324.3864-1.93853.0001-.66529-.1308-1.3241-.3854-1.93874s-.6279-1.17308-1.0985-1.64337z" fill="#fff"/></svg>
