<svg fill="currentColor" height="24" viewBox="0 0 24 24" width="24" xmlns="http://www.w3.org/2000/svg"><path d="m18 6c-.5968-.59601-1.4056-.93117-2.2491-.93205-.8434-.00087-1.6528.3326-2.2509.92736l-1.0931 1.14281c-.0504.0557-.1115.10073-.1796.13245s-.1418.04948-.2169.05223c-.075.00276-.1499-.00954-.2201-.03618s-.1344-.06708-.1888-.11892c-.0543-.05185-.0977-.11405-.1277-.18295-.0299-.06889-.0457-.14308-.0465-.21819-.0008-.0751.0135-.14961.042-.21911.0284-.06951.0706-.13261.1238-.18558l1.0978-1.15125.0094-.01031c.8088-.80883 1.9058-1.26322 3.0497-1.26322 1.1438 0 2.2408.45439 3.0497 1.26322.8088.80883 1.2632 1.90583 1.2632 3.04969 0 1.14385-.4544 2.2409-1.2632 3.0497l-.0103.0094-1.1513 1.0978c-.1087.0984-.2515.1504-.3981.145-.1465-.0054-.2851-.0677-.3863-.1738-.1013-.1061-.157-.2476-.1555-.3942s.0603-.2868.1637-.3908l1.1465-1.0931c.5943-.59857.9271-1.40828.9255-2.25174-.0016-.84347-.3374-1.65193-.9339-2.24826zm-6.4106 10.8656-1.0894 1.1428c-.59787.5979-1.40874.9338-2.25424.9338-.84549 0-1.65636-.3359-2.25422-.9338-.59785-.5978-.93372-1.4087-.93372-2.2542s.33587-1.6563.93372-2.2542l1.14657-1.0941c.05569-.0504.10072-.1114.13244-.1795s.04948-.1418.05224-.2169c.00275-.075-.00955-.1499-.03619-.2201-.02664-.0703-.06708-.1344-.11892-.1888-.05184-.0543-.11405-.0978-.18294-.1277-.0689-.0299-.14309-.0457-.21819-.0465-.07511-.0008-.14961.0135-.21912.042-.0695.0284-.1326.0705-.18557.1238l-1.15125 1.0987-.01032.0094c-.80882.8088-1.26322 1.9058-1.26322 3.0497s.4544 2.2409 1.26322 3.0497c.80883.8088 1.90584 1.2632 3.04969 1.2632 1.14386 0 2.24082-.4544 3.04972-1.2632l.0093-.0103 1.0979-1.1513c.0532-.0529.0953-.116.1238-.1855.0285-.0696.0427-.1441.0419-.2192-.0007-.0751-.0166-.1493-.0465-.2182-.0299-.0688-.0733-.1311-.1277-.1829-.0543-.0518-.1185-.0923-.1887-.1189-.0703-.0267-.1451-.039-.2202-.0362-.075.0028-.1488.0205-.2169.0522-.068.0318-.1291.0768-.1795.1325zm7.9106-2.4281h-2.25c-.1492 0-.2923.0593-.3978.1648-.1055.1054-.1647.2485-.1647.3977s.0592.2923.1647.3977c.1055.1055.2486.1648.3978.1648h2.25c.1492 0 .2922-.0593.3977-.1648.1055-.1054.1648-.2485.1648-.3977s-.0593-.2923-.1648-.3977c-.1055-.1055-.2485-.1648-.3977-.1648zm-15.00002-4.875h2.25c.14919 0 .29226-.05926.39775-.16475s.16475-.24857.16475-.39775-.05926-.29226-.16475-.39775-.24856-.16475-.39775-.16475h-2.25c-.14918 0-.29226.05926-.39775.16475-.10548.10549-.16475.24857-.16475.39775s.05927.29226.16475.39775c.10549.10549.24857.16475.39775.16475zm10.50002 7.125c-.1492 0-.2923.0593-.3978.1648-.1055.1054-.1647.2485-.1647.3977v2.25c0 .1492.0592.2923.1647.3977.1055.1055.2486.1648.3978.1648s.2922-.0593.3977-.1648c.1055-.1054.1648-.2485.1648-.3977v-2.25c0-.1492-.0593-.2923-.1648-.3977-.1055-.1055-.2485-.1648-.3977-.1648zm-6.00002-9.375c.14919 0 .29226-.05926.39775-.16475s.16475-.24857.16475-.39775v-2.25c0-.14918-.05926-.29226-.16475-.39775s-.24856-.16475-.39775-.16475c-.14918 0-.29226.05926-.39775.16475-.10548.10549-.16475.24857-.16475.39775v2.25c0 .14918.05927.29226.16475.39775.10549.10549.24857.16475.39775.16475z" fill="#fff"/></svg>
