<svg width="21" height="20" viewBox="0 0 21 20" fill="none" xmlns="http://www.w3.org/2000/svg"><path d="M13.676 10a3.125 3.125 0 1 1-6.25 0 3.125 3.125 0 0 1 6.25 0m3.125 0a6.23 6.23 0 0 0-1.591-4.166.625.625 0 1 0-.932.833 5 5 0 0 1 0 6.667.626.626 0 0 0 .932.833A6.23 6.23 0 0 0 16.8 10M6.824 6.667a.625.625 0 1 0-.932-.833 6.245 6.245 0 0 0 0 8.333.625.625 0 0 0 .932-.833 4.996 4.996 0 0 1 0-6.667m12.365-.312a9.3 9.3 0 0 0-1.942-2.917.626.626 0 1 0-.892.875 8.117 8.117 0 0 1 0 11.371.626.626 0 1 0 .892.879A9.385 9.385 0 0 0 19.19 6.35zM3.064 13.162a8.12 8.12 0 0 1 1.683-8.848.625.625 0 1 0-.892-.876 9.365 9.365 0 0 0 0 13.125.625.625 0 1 0 .892-.875 8.1 8.1 0 0 1-1.683-2.526" fill="currentColor"/></svg>