<svg fill="currentColor" height="24" viewBox="0 0 24 24" width="24" xmlns="http://www.w3.org/2000/svg"><path d="m21.5625 12c0 2.5361-1.0075 4.9684-2.8008 6.7617s-4.2256 2.8008-6.7617 2.8008c-2.53613 0-4.96839-1.0075-6.76171-2.8008s-2.80079-4.2256-2.80079-6.7617c0-3.76688 2.18906-7.20563 5.57812-8.76094.13451-.05588.28544-.05741.42104-.00427.13561.05314.24532.15681.30604.28919.06073.13239.06774.28316.01956.42061s-.1478.25085-.27788.31634c-2.98969 1.3725-4.92188 4.41-4.92188 7.73907 0 2.2378.88895 4.3839 2.47129 5.9662 1.58233 1.5823 3.72845 2.4713 5.96621 2.4713 2.2378 0 4.3839-.889 5.9662-2.4713 1.5824-1.5823 2.4713-3.7284 2.4713-5.9662 0-3.32907-1.9322-6.36657-4.9219-7.73907-.1301-.06549-.2297-.17889-.2779-.31634-.0481-.13745-.0411-.28822.0196-.42061.0607-.13238.1704-.23605.306-.28919s.2866-.05161.4211.00427c3.389 1.55531 5.5781 4.99406 5.5781 8.76094z" fill="#fff"/></svg>
