<svg width="24" height="24" viewBox="0 0 24 24" fill="currentColor"
  xmlns="http://www.w3.org/2000/svg">
  <path d="M19.5 7.6875H8.8125V5.25C8.8125 4.40462 9.14832 3.59387 9.7461 2.9961C10.3439 2.39832 11.1546 2.0625 12 2.0625C13.5281 2.0625 14.9062 3.15844 15.1987 4.61156C15.2304 4.75574 15.3174 4.8817 15.4411 4.9623C15.5647 5.04289 15.7151 5.07164 15.8598 5.04237C16.0044 5.01309 16.1318 4.92812 16.2144 4.80579C16.297 4.68346 16.3282 4.53356 16.3013 4.38844C15.8953 2.38875 14.0869 0.9375 12 0.9375C10.8567 0.938988 9.76067 1.39382 8.95225 2.20225C8.14382 3.01067 7.68899 4.10671 7.6875 5.25V7.6875H4.5C4.1519 7.6875 3.81806 7.82578 3.57192 8.07192C3.32578 8.31806 3.1875 8.6519 3.1875 9V19.5C3.1875 19.8481 3.32578 20.1819 3.57192 20.4281C3.81806 20.6742 4.1519 20.8125 4.5 20.8125H19.5C19.8481 20.8125 20.1819 20.6742 20.4281 20.4281C20.6742 20.1819 20.8125 19.8481 20.8125 19.5V9C20.8125 8.6519 20.6742 8.31806 20.4281 8.07192C20.1819 7.82578 19.8481 7.6875 19.5 7.6875ZM19.6875 19.5C19.6875 19.5497 19.6677 19.5974 19.6326 19.6326C19.5974 19.6677 19.5497 19.6875 19.5 19.6875H4.5C4.45027 19.6875 4.40258 19.6677 4.36742 19.6326C4.33225 19.5974 4.3125 19.5497 4.3125 19.5V9C4.3125 8.95027 4.33225 8.90258 4.36742 8.86742C4.40258 8.83225 4.45027 8.8125 4.5 8.8125H19.5C19.5497 8.8125 19.5974 8.83225 19.6326 8.86742C19.6677 8.90258 19.6875 8.95027 19.6875 9V19.5ZM12.9375 14.25C12.9375 14.4354 12.8825 14.6167 12.7795 14.7708C12.6765 14.925 12.5301 15.0452 12.3588 15.1161C12.1875 15.1871 11.999 15.2057 11.8171 15.1695C11.6352 15.1333 11.4682 15.044 11.3371 14.9129C11.206 14.7818 11.1167 14.6148 11.0805 14.4329C11.0443 14.251 11.0629 14.0625 11.1339 13.8912C11.2048 13.7199 11.325 13.5735 11.4792 13.4705C11.6333 13.3675 11.8146 13.3125 12 13.3125C12.2486 13.3125 12.4871 13.4113 12.6629 13.5871C12.8387 13.7629 12.9375 14.0014 12.9375 14.25Z" fill="white"/>
</svg>
