<svg fill="currentColor" height="24" viewBox="0 0 24 24" width="24" xmlns="http://www.w3.org/2000/svg"><path d="m19.5 7.6875h-3.1875v-2.4375c0-1.14375-.4544-2.24065-1.2631-3.0494-.8088-.80875-1.9057-1.2631-3.0494-1.2631s-2.24065.45435-3.0494 1.2631-1.2631 1.90565-1.2631 3.0494v2.4375h-3.1875c-.3481 0-.68194.13828-.92808.38442s-.38442.57998-.38442.92808v10.5c0 .3481.13828.6819.38442.9281.24614.2461.57998.3844.92808.3844h15c.3481 0 .6819-.1383.9281-.3844.2461-.2462.3844-.58.3844-.9281v-10.5c0-.3481-.1383-.68194-.3844-.92808-.2462-.24614-.58-.38442-.9281-.38442zm-10.6875-2.4375c0-.84538.33582-1.65613.9336-2.2539.5978-.59778 1.4085-.9336 2.2539-.9336s1.6561.33582 2.2539.9336c.5978.59777.9336 1.40852.9336 2.2539v2.4375h-6.375zm10.875 14.25c0 .0497-.0198.0974-.0549.1326-.0352.0351-.0829.0549-.1326.0549h-15c-.04973 0-.09742-.0198-.13258-.0549-.03517-.0352-.05492-.0829-.05492-.1326v-10.5c0-.04973.01975-.09742.05492-.13258.03516-.03517.08285-.05492.13258-.05492h15c.0497 0 .0974.01975.1326.05492.0351.03516.0549.08285.0549.13258zm-6.75-5.25c0 .1854-.055.3667-.158.5208-.103.1542-.2494.2744-.4207.3453-.1713.071-.3598.0896-.5417.0534s-.3489-.1255-.48-.2566-.2204-.2981-.2566-.48-.0176-.3704.0534-.5417c.0709-.1713.1911-.3177.3453-.4207.1541-.103.3354-.158.5208-.158.2486 0 .4871.0988.6629.2746s.2746.4143.2746.6629z" /></svg>
