<svg width="21" height="16" viewBox="0 0 21 16" xmlns="http://www.w3.org/2000/svg">
<path d="M19.5 0.5H1.5C1.30109 0.5 1.11032 0.579018 0.96967 0.71967C0.829018 0.860322 0.75 1.05109 0.75 1.25V14C0.75 14.3978 0.908035 14.7794 1.18934 15.0607C1.47064 15.342 1.85218 15.5 2.25 15.5H18.75C19.1478 15.5 19.5294 15.342 19.8107 15.0607C20.092 14.7794 20.25 14.3978 20.25 14V1.25C20.25 1.05109 20.171 0.860322 20.0303 0.71967C19.8897 0.579018 19.6989 0.5 19.5 0.5ZM10.5 8.48281L3.42844 2H17.5716L10.5 8.48281ZM7.75406 8L2.25 13.0447V2.95531L7.75406 8ZM8.86406 9.01719L9.98906 10.0531C10.1274 10.1801 10.3084 10.2506 10.4963 10.2506C10.6841 10.2506 10.8651 10.1801 11.0034 10.0531L12.1284 9.01719L17.5659 14H3.42844L8.86406 9.01719ZM13.2459 8L18.75 2.95438V13.0456L13.2459 8Z"/>
</svg>
