<svg width="24" height="24" viewBox="0 0 24 24" fill="currentColor"
  xmlns="http://www.w3.org/2000/svg">
  <path d="M2.43747 11.25C2.43871 10.1066 2.89346 9.01045 3.70194 8.20197C4.51042 7.39349 5.60661 6.93874 6.74997 6.9375H10.4859C10.7278 6.92437 15.5578 6.60375 20.1562 2.74687C20.3475 2.58638 20.5805 2.48375 20.828 2.45104C21.0755 2.41833 21.3272 2.45689 21.5536 2.5622C21.78 2.66751 21.9716 2.8352 22.106 3.04559C22.2404 3.25598 22.312 3.50034 22.3125 3.75V18.75C22.3142 18.9999 22.2437 19.2451 22.1095 19.4559C21.9753 19.6668 21.7831 19.8344 21.5559 19.9387C21.3817 20.0197 21.1921 20.062 21 20.0625C20.6909 20.0627 20.3919 19.953 20.1562 19.7531C16.4062 16.6106 12.509 15.8156 11.0625 15.6216V18.8091C11.0625 19.0251 11.0093 19.2379 10.9074 19.4284C10.8055 19.6189 10.6581 19.7813 10.4784 19.9012L9.44716 20.5884C9.27273 20.7046 9.07303 20.7773 8.86476 20.8005C8.65648 20.8236 8.44568 20.7966 8.24999 20.7216C8.05431 20.6466 7.87942 20.5259 7.73997 20.3694C7.60051 20.213 7.50054 20.0255 7.44841 19.8225L6.31122 15.5372C5.25004 15.4272 4.26713 14.9283 3.55188 14.1367C2.83662 13.3452 2.43966 12.3169 2.43747 11.25ZM20.879 18.8925C20.9063 18.9155 20.9395 18.9303 20.9749 18.935C21.0103 18.9398 21.0462 18.9344 21.0786 18.9194C21.111 18.9045 21.1384 18.8806 21.1577 18.8506C21.177 18.8206 21.1873 18.7857 21.1875 18.75V3.75C21.1885 3.7143 21.1787 3.67913 21.1595 3.64904C21.1403 3.61895 21.1125 3.59533 21.0797 3.58125C21.0547 3.56943 21.0276 3.56304 21 3.5625C20.9564 3.56264 20.9144 3.57864 20.8818 3.6075C16.7568 7.06875 12.5381 7.84406 11.0653 8.01375V14.4825C12.5353 14.6559 16.7531 15.4322 20.879 18.8925ZM8.53778 19.5487C8.54506 19.5779 8.55923 19.6049 8.57912 19.6274C8.59901 19.65 8.62402 19.6674 8.65205 19.6782C8.68009 19.6891 8.71031 19.693 8.74019 19.6897C8.77006 19.6865 8.79871 19.676 8.82372 19.6594L9.85497 18.9722C9.88072 18.955 9.90182 18.9317 9.91638 18.9044C9.93094 18.8771 9.9385 18.8466 9.93841 18.8156V15.5625H7.48216L8.53778 19.5487ZM6.74997 14.4375H9.93747V8.0625H6.74997C5.90459 8.0625 5.09384 8.39832 4.49607 8.99609C3.89829 9.59387 3.56247 10.4046 3.56247 11.25C3.56247 12.0954 3.89829 12.9061 4.49607 13.5039C5.09384 14.1017 5.90459 14.4375 6.74997 14.4375Z"/>
</svg>
