<svg width="24" height="24" viewBox="0 0 24 24" fill="currentColor" xmlns="http://www.w3.org/2000/svg">
<path d="M12 16.3125C13.1433 16.311 14.2393 15.8562 15.0478 15.0478C15.8562 14.2393 16.311 13.1433 16.3125 12V6C16.3125 4.85625 15.8581 3.75935 15.0494 2.9506C14.2406 2.14185 13.1437 1.6875 12 1.6875C10.8563 1.6875 9.75935 2.14185 8.9506 2.9506C8.14185 3.75935 7.6875 4.85625 7.6875 6V12C7.68899 13.1433 8.14382 14.2393 8.95225 15.0478C9.76067 15.8562 10.8567 16.311 12 16.3125ZM8.8125 6C8.8125 5.15462 9.14832 4.34387 9.7461 3.7461C10.3439 3.14832 11.1546 2.8125 12 2.8125C12.8454 2.8125 13.6561 3.14832 14.2539 3.7461C14.8517 4.34387 15.1875 5.15462 15.1875 6V12C15.1875 12.8454 14.8517 13.6561 14.2539 14.2539C13.6561 14.8517 12.8454 15.1875 12 15.1875C11.1546 15.1875 10.3439 14.8517 9.7461 14.2539C9.14832 13.6561 8.8125 12.8454 8.8125 12V6ZM12.5625 19.2891V21.75C12.5625 21.8992 12.5032 22.0423 12.3977 22.1477C12.2923 22.2532 12.1492 22.3125 12 22.3125C11.8508 22.3125 11.7077 22.2532 11.6023 22.1477C11.4968 22.0423 11.4375 21.8992 11.4375 21.75V19.2891C9.60196 19.1455 7.88791 18.3155 6.63693 16.9647C5.38596 15.6138 4.68991 13.8411 4.6875 12C4.6875 11.8508 4.74676 11.7077 4.85225 11.6023C4.95774 11.4968 5.10082 11.4375 5.25 11.4375C5.39918 11.4375 5.54226 11.4968 5.64775 11.6023C5.75324 11.7077 5.8125 11.8508 5.8125 12C5.8125 13.641 6.4644 15.2148 7.62478 16.3752C8.78516 17.5356 10.359 18.1875 12 18.1875C13.641 18.1875 15.2148 17.5356 16.3752 16.3752C17.5356 15.2148 18.1875 13.641 18.1875 12C18.1875 11.8508 18.2468 11.7077 18.3523 11.6023C18.4577 11.4968 18.6008 11.4375 18.75 11.4375C18.8992 11.4375 19.0423 11.4968 19.1477 11.6023C19.2532 11.7077 19.3125 11.8508 19.3125 12C19.3101 13.8411 18.614 15.6138 17.3631 16.9647C16.1121 18.3155 14.398 19.1455 12.5625 19.2891Z" />
</svg>
