<svg width="24" height="24" viewBox="0 0 24 24" fill="currentColor" xmlns="http://www.w3.org/2000/svg"><path d="m19.916 19.875-15-16.5a.562.562 0 0 0-.832.75l3.603 3.968V12a4.312 4.312 0 0 0 6.773 3.542l1.268 1.396A6.187 6.187 0 0 1 5.812 12a.562.562 0 1 0-1.125 0 7.32 7.32 0 0 0 6.75 7.29v2.46a.563.563 0 0 0 1.126 0v-2.46a7.3 7.3 0 0 0 3.924-1.518l2.597 2.853a.563.563 0 0 0 .832-.758zM12 15.188A3.187 3.187 0 0 1 8.812 12V9.33l4.882 5.37a3.2 3.2 0 0 1-1.694.488M8.33 3.733A4.312 4.312 0 0 1 16.314 6v5.665a.563.563 0 0 1-1.125 0V6a3.188 3.188 0 0 0-5.901-1.674.562.562 0 1 1-.956-.592m9.436 10.516c.28-.717.423-1.48.422-2.25a.563.563 0 0 1 1.125 0 7.3 7.3 0 0 1-.5 2.66.562.562 0 1 1-1.047-.41" /></svg>
