<svg fill="none" height="24" viewBox="0 0 24 24" width="24" xmlns="http://www.w3.org/2000/svg" xmlns:xlink="http://www.w3.org/1999/xlink"><linearGradient id="a" gradientUnits="userSpaceOnUse" x1="18.5999" x2="7.28078" y1="21.9013" y2="3.60454"><stop offset="0" stop-color="#a55252"/><stop offset="1" stop-color="#f2d434"/></linearGradient><path clip-rule="evenodd" d="m9.93335 4.52189c.03667.03163.09075.03244.12835.00192l1.8498-1.50145c.0386-.03129.0942-.02956.1307.00405l1.619 1.4898c.0374.03439.0946.03531.1331.00214l1.6322-1.40788c.0648-.0559.1654-.00986.1654.07572v3.26085c0 .03688-.0196.07048-.0524.08733-1.807.92863-5.54739.92862-7.35436-.00001-.03279-.01685-.0523-.05043-.05232-.0873l-.00108-3.26077c-.00003-.0856.1005-.13167.16532-.07576zm5.32315 3.01809c-1.7923.94189-4.998.94165-6.78967-.00071-.07968.28635-.1222.5876-.1222.89853 0 1.8921 1.57442 3.4256 3.51697 3.4256 1.9425 0 3.5169-1.5335 3.5169-3.4256 0-.31068-.0424-.61168-.122-.89782zm-9.2565 13.45832v-2.2821c0-1.8931 1.57459-3.4272 3.51694-3.4272h4.68926c1.9424 0 3.5169 1.5341 3.5169 3.4272v2.2821z" fill="url(#a)" fill-rule="evenodd"/></svg>
