<svg width="167" height="122" viewBox="0 0 167 122" fill="none"
  xmlns="http://www.w3.org/2000/svg">
  <path fill-rule="evenodd" clip-rule="evenodd" d="M28.058.516c-.156.054-.148.585-.13 1.755.008.486.018 1.083.018 1.801 0 12.477 10.032 15.014 10.032 15.014s-10.032-.996-10.032 1.692c0 2.688 8.767 6.133 8.767 6.133s-14.965 2.386-14.965 5.075c0 .851 1.015 1.026 2.843 1.34 2.34.404 6.016 1.036 10.604 3.613C28.868 45.53 25.13 56.151 25.13 67.646c0 28.597 23.144 51.779 51.694 51.779a51.395 51.395 0 0 0 27.908-8.186 3.39 3.39 0 0 1-.413-3.206c2.399-6.402 3.393-11.07 3.135-15.132-.255-4.008-1.743-7.618-4.698-11.88-1.625-2.345-3.25-4.146-4.804-5.755-.409-.424-.822-.843-1.234-1.26l-.002-.002c-1.115-1.13-2.217-2.248-3.182-3.402-1.363-1.632-2.54-3.434-3.365-5.749-.82-2.303-1.26-5.03-1.26-8.487 0-9.388 6.282-16.917 13.922-20.058 4.757-1.956 10.15-2.247 14.986-.212-9.451-12.302-24.298-20.23-40.993-20.23-.578 0-1.154.01-1.727.029-34.099-.522-43.612-11.59-46.218-14.622-.446-.519-.69-.802-.82-.757Zm41.559 59.207a12.817 12.817 0 0 0-4.282-.732c-1.324 0-2.6.2-3.802.572-.91.283-1.366.424-1.716.357a1.444 1.444 0 0 1-.795-.45c-.238-.266-.318-.589-.477-1.234a13.047 13.047 0 0 1-.374-3.124c0-5.506 3.343-9.97 7.465-9.97 4.124 0 7.466 4.464 7.466 9.97 0 1.184-.155 2.32-.438 3.373-.175.648-.262.972-.51 1.234a1.437 1.437 0 0 1-.817.43c-.356.056-.81-.105-1.72-.426Z" fill="url(#a)"/>
  <path d="M104.2 80.017c-6.803-9.813-13.534-10.422-13.534-23.65 0-17.12 22.956-27.816 33.784-12.628 4.648 6.522 6.21 16.583 6.21 24.452 0 17.573-8.868 33.084-22.406 42.379-1.292.887-2.839-.452-2.289-1.918 4.862-12.974 4.373-19.78-1.765-28.635Z" fill="url(#b)"/>
  <path d="m159.698 20.133-6.452-2.375-2.375-6.457A1.986 1.986 0 0 0 149.004 10a1.992 1.992 0 0 0-1.868 1.302l-2.377 6.449-6.456 2.375A1.987 1.987 0 0 0 137 21.992a1.99 1.99 0 0 0 1.303 1.868l6.447 2.39 2.375 6.453a1.992 1.992 0 0 0 3.006.944 1.99 1.99 0 0 0 .729-.944l2.375-6.452 6.456-2.375a1.991 1.991 0 0 0 0-3.735l.007-.008Zm-7.149 4.242a1.981 1.981 0 0 0-1.179 1.179l-2.375 6.432-2.37-6.437a1.974 1.974 0 0 0-1.174-1.174L139.019 22l6.432-2.375a1.988 1.988 0 0 0 1.174-1.174L149 12.02l2.375 6.432a1.977 1.977 0 0 0 1.179 1.179l6.432 2.375-6.437 2.37ZM153 9a.998.998 0 0 1 1-1h2V6a.998.998 0 0 1 1-1 1 1 0 0 1 1 1v2h2a1 1 0 1 1 0 2h-2v2a.998.998 0 0 1-1 1 1.001 1.001 0 0 1-1-1v-2h-2a1.001 1.001 0 0 1-1-1Zm13 6a.998.998 0 0 1-1 1h-1v1a.998.998 0 0 1-1 1 1.001 1.001 0 0 1-1-1v-1h-1a1.001 1.001 0 0 1 0-2h1v-1a.998.998 0 0 1 1-1 1 1 0 0 1 1 1v1h1a1 1 0 0 1 1 1ZM12.349 68.066 9.123 66.88l-1.187-3.23a.995.995 0 0 0-1.868 0L4.88 66.875l-3.228 1.188a.995.995 0 0 0 0 1.867l3.224 1.195 1.188 3.226a.994.994 0 0 0 1.867 0l1.188-3.225 3.228-1.188a.995.995 0 0 0 0-1.867l.003-.005Zm-3.575 2.121a.992.992 0 0 0-.589.59l-1.187 3.216-1.185-3.219a.992.992 0 0 0-.587-.587L2.009 69l3.217-1.188a.992.992 0 0 0 .587-.586L7 64.009l1.188 3.217a.992.992 0 0 0 .589.589l3.216 1.188-3.219 1.184ZM9 62.5a.5.5 0 0 1 .5-.5h1v-1a.5.5 0 0 1 1 0v1h1a.5.5 0 0 1 0 1h-1v1a.5.5 0 1 1-1 0v-1h-1a.5.5 0 0 1-.5-.5Zm6.5 3a.5.5 0 0 1-.5.5h-.5v.5a.5.5 0 1 1-1 0V66H13a.5.5 0 0 1 0-1h.5v-.5a.5.5 0 0 1 1 0v.5h.5a.5.5 0 0 1 .5.5Zm131.849 48.566-3.226-1.187-1.187-3.228a1 1 0 0 0-1.503-.473.998.998 0 0 0-.365.473l-1.189 3.224-3.228 1.187a.997.997 0 0 0 0 1.868l3.224 1.195 1.188 3.226a.996.996 0 0 0 1.503.473c.166-.117.294-.282.364-.473l1.188-3.225 3.228-1.188a.989.989 0 0 0 .651-.934.992.992 0 0 0-.651-.933l.003-.005Zm-3.575 2.122a.98.98 0 0 0-.589.589l-1.187 3.216-1.185-3.219a.988.988 0 0 0-.587-.586L137.009 115l3.217-1.188a.988.988 0 0 0 .587-.586l1.187-3.217 1.188 3.217a.993.993 0 0 0 .589.589l3.216 1.187-3.219 1.186ZM144 108.5c0-.133.053-.26.146-.354a.504.504 0 0 1 .354-.146h1v-1c0-.133.053-.26.146-.354a.504.504 0 0 1 .708 0 .504.504 0 0 1 .146.354v1h1c.133 0 .26.053.354.146a.504.504 0 0 1 0 .708.504.504 0 0 1-.354.146h-1v1c0 .133-.053.26-.146.354a.504.504 0 0 1-.708 0 .504.504 0 0 1-.146-.354v-1h-1a.504.504 0 0 1-.354-.146.504.504 0 0 1-.146-.354Zm6.5 3c0 .133-.053.26-.146.354A.504.504 0 0 1 150 112h-.5v.5c0 .133-.053.26-.146.354a.504.504 0 0 1-.708 0 .504.504 0 0 1-.146-.354v-.5h-.5a.504.504 0 0 1-.354-.146.504.504 0 0 1 0-.708A.504.504 0 0 1 148 111h.5v-.5c0-.133.053-.26.146-.354a.504.504 0 0 1 .708 0 .504.504 0 0 1 .146.354v.5h.5c.133 0 .26.053.354.146a.504.504 0 0 1 .146.354Z" fill="#F2B414" opacity=".1"/>
  <defs>
    <radialGradient id="b" cx="0" cy="0" r="1" gradientUnits="userSpaceOnUse" gradientTransform="matrix(39.69114 -72.61887 59.56725 32.55755 96.921 86.36)">
      <stop stop-color="#D7821F"/>
      <stop offset="1" stop-color="#BF36D6"/>
    </radialGradient>
    <linearGradient id="a" x1="128.777" y1=".734" x2="5.573" y2="167.096" gradientUnits="userSpaceOnUse">
      <stop stop-color="#69E1B9"/>
      <stop offset="1" stop-color="#818BEF"/>
    </linearGradient>
  </defs>
</svg>
