<svg xmlns="http://www.w3.org/2000/svg" width="24" height="24" fill="currentColor"><path d="M17.063 10.5a.56.56 0 0 1-.563.563H9a.563.563 0 0 1 0-1.126h7.5a.56.56 0 0 1 .563.563m-.563 2.438H9a.563.563 0 0 0 0 1.124h7.5a.562.562 0 1 0 0-1.124M21.563 6v11.25a2.06 2.06 0 0 1-2.063 2.063H3a2.06 2.06 0 0 1-2.062-2.055V8.25a.563.563 0 0 1 1.125 0v9a.937.937 0 0 0 1.874 0V6A1.313 1.313 0 0 1 5.25 4.688h15A1.313 1.313 0 0 1 21.563 6m-1.125 0a.19.19 0 0 0-.188-.187h-15A.187.187 0 0 0 5.063 6v11.25c0 .326-.078.647-.226.938H19.5a.94.94 0 0 0 .938-.938z"/></svg>
