<svg fill="none" height="20" viewBox="0 0 20 20" width="20" xmlns="http://www.w3.org/2000/svg"><path d="m4.21159 2.70388c-.05488-.06187-.1215-.11223-.196-.14816-.07449-.03594-.15537-.05673-.23796-.06117s-.16524.00755-.24315.03528c-.07792.02774-.14956.07066-.21077.12628-.06121.05563-.11076.12285-.1458.19777-.03504.07491-.05486.15604-.05831.23868-.00345.08263.00953.16513.0382.24271.02866.07758.07244.1487.12879.20924l1.30782 1.43906c-.55542.95333-.84718 2.03729-.84532 3.14062 0 2.76091-.64531 4.87341-1.0789 5.62031-.11073.1899-.16943.4056-.17018.6254-.00076.2198.05646.4359.16588.6266.10942.1906.26717.349.45735.4592s.40605.1683.62585.1685h10.51871l1.5188 1.6703c.0549.0619.1215.1122.196.1482.0745.0359.1554.0567.238.0611.0825.0045.1652-.0075.2431-.0352.0779-.0278.1496-.0707.2108-.1263.0612-.0557.1107-.1229.1458-.1978.035-.0749.0548-.156.0583-.2387.0034-.0826-.0095-.1651-.0382-.2427s-.0725-.1487-.1288-.2092zm-.4625 11.67032c.60157-1.0344 1.25-3.4313 1.25-6.25001-.00109-.74687.16607-1.48439.48907-2.15781l7.64294 8.40782zm9.37501 3.125c0 .1658-.0659.3247-.1831.4419s-.2761.1831-.4419.1831h-5.00001c-.16576 0-.32473-.0659-.44194-.1831s-.18306-.2761-.18306-.4419.06585-.3247.18306-.4419c.11721-.1173.27618-.1831.44194-.1831h5.00001c.1658 0 .3247.0658.4419.1831.1172.1172.1831.2761.1831.4419zm3.5937-3.4961c-.073.0283-.1506.0429-.2289.043-.1255-.0002-.2481-.0381-.3518-.1089-.1036-.0708-.1836-.1711-.2294-.288-.5688-1.4477-.9086-3.5133-.9086-5.52501.0002-.87452-.2289-1.73382-.6645-2.49211-.4356-.7583-1.0625-1.38908-1.8181-1.82938s-1.6135-.67471-2.488-.67985c-.87453-.00514-1.73509.21918-2.49581.65056-.14384.07794-.31251.09637-.46979.05134s-.29064-.14994-.37143-.2922-.10259-.31053-.0607-.46867c.04189-.15815.14411-.29357.28473-.37719.95085-.53933 2.02652-.81985 3.1197-.81354 1.0931.00631 2.1655.29922 3.11.84949.9446.55028 1.7283 1.33867 2.2729 2.28649.5447.94781.8312 2.02191.831 3.11506 0 2.76171.6289 4.57731.8219 5.06871.0606.1543.0574.3263-.0088.4782-.0663.152-.1901.2714-.3444.332z" fill="#fff"/></svg>