<svg width="375" height="375" viewBox="0 0 375 375" fill="none" xmlns="http://www.w3.org/2000/svg">
<path d="M125.753 33.7695L217.992 88.2534V179.135L125.753 233.619L33.5151 179.135V88.2534L125.753 33.7695Z" fill="url(#paint0_linear_2855_426568)" fill-opacity="0.03"/>
<path d="M34.0151 88.5388L125.753 34.3502L217.492 88.5388V178.85L125.753 233.038L34.0151 178.85V88.5388Z" stroke="url(#paint1_linear_2855_426568)" stroke-opacity="0.15"/>
<path d="M248.738 33.7695L340.976 88.2534V179.135L248.738 233.619L156.5 179.135V88.2534L248.738 33.7695Z" fill="url(#paint2_linear_2855_426568)" fill-opacity="0.03"/>
<path d="M157 88.5388L248.738 34.3502L340.476 88.5388V178.85L248.738 233.038L157 178.85V88.5388Z" stroke="url(#paint3_linear_2855_426568)" stroke-opacity="0.15"/>
<path d="M125.753 141.381L217.992 195.865V286.747L125.753 341.23L33.5151 286.747V195.865L125.753 141.381Z" fill="url(#paint4_linear_2855_426568)" fill-opacity="0.03"/>
<path d="M34.0151 196.15L125.753 141.962L217.492 196.15V286.461L125.753 340.65L34.0151 286.461V196.15Z" stroke="url(#paint5_linear_2855_426568)" stroke-opacity="0.15"/>
<path d="M248.738 141.381L340.976 195.865V286.747L248.738 341.23L156.5 286.747V195.865L248.738 141.381Z" fill="url(#paint6_linear_2855_426568)" fill-opacity="0.03"/>
<path d="M157 196.15L248.738 141.962L340.476 196.15V286.461L248.738 340.65L157 286.461V196.15Z" stroke="url(#paint7_linear_2855_426568)" stroke-opacity="0.15"/>
<path d="M220.028 157.374C219.952 156.003 219.419 154.709 218.53 153.738C217.64 152.766 216.457 152.184 215.201 152.101C211.154 151.837 200.809 152.241 192.227 161.617L176.316 179.016C176.077 179.278 175.793 179.485 175.481 179.627C175.168 179.769 174.833 179.842 174.495 179.842C173.812 179.843 173.157 179.547 172.673 179.02C172.19 178.493 171.918 177.777 171.917 177.031C171.917 176.284 172.187 175.568 172.67 175.04L181.216 165.699C181.395 165.502 181.517 165.252 181.566 164.98C181.615 164.708 181.59 164.427 181.493 164.17C181.396 163.914 181.232 163.695 181.021 163.54C180.81 163.386 180.563 163.303 180.309 163.301H171.923C171.245 163.298 170.573 163.441 169.946 163.723C169.319 164.006 168.75 164.422 168.271 164.947L157.235 177.012C156.558 177.751 156.083 178.682 155.863 179.699C155.643 180.717 155.688 181.781 155.991 182.773C156.294 183.765 156.844 184.644 157.579 185.313C158.314 185.983 159.206 186.414 160.153 186.561L172.532 188.449L186.757 203.991L188.485 217.523C188.618 218.558 189.013 219.532 189.626 220.335C190.239 221.137 191.045 221.737 191.954 222.065C192.483 222.258 193.037 222.357 193.595 222.357C194.27 222.358 194.939 222.214 195.563 221.931C196.187 221.649 196.754 221.234 197.231 220.712L208.274 208.653C208.753 208.129 209.132 207.507 209.391 206.822C209.649 206.137 209.781 205.403 209.78 204.663V195.501C209.779 195.223 209.703 194.951 209.562 194.721C209.42 194.49 209.219 194.31 208.984 194.204C208.749 194.098 208.49 194.07 208.24 194.124C207.991 194.179 207.762 194.313 207.582 194.51L199.033 203.847C198.782 204.121 198.484 204.335 198.154 204.476C197.825 204.618 197.473 204.684 197.119 204.67C196.766 204.656 196.418 204.563 196.099 204.396C195.78 204.229 195.496 203.992 195.265 203.699C194.842 203.141 194.628 202.43 194.664 201.707C194.699 200.984 194.983 200.302 195.458 199.797L211.311 182.476C219.899 173.096 220.269 161.793 220.028 157.367V157.374Z" fill="white"/>
<path d="M178.201 207.998C176.75 211.465 171.907 219.55 158.3 219.55C157.617 219.55 156.962 219.254 156.48 218.727C155.997 218.199 155.726 217.484 155.726 216.738C155.726 201.87 163.126 196.579 166.299 194.994C166.607 194.841 166.939 194.755 167.277 194.742C167.615 194.729 167.951 194.789 168.268 194.918C168.585 195.047 168.875 195.244 169.123 195.495C169.37 195.747 169.569 196.05 169.71 196.386C169.85 196.722 169.928 197.085 169.94 197.454C169.952 197.823 169.897 198.192 169.779 198.538C169.661 198.884 169.481 199.201 169.251 199.471C169.02 199.741 168.743 199.959 168.435 200.113C166.366 201.143 161.801 204.458 160.996 213.792C169.539 212.913 172.58 207.924 173.516 205.664C173.656 205.328 173.856 205.025 174.103 204.773C174.351 204.521 174.641 204.325 174.958 204.196C175.274 204.067 175.611 204.007 175.949 204.02C176.287 204.033 176.619 204.118 176.927 204.272C177.235 204.425 177.512 204.643 177.742 204.913C177.973 205.183 178.152 205.5 178.27 205.846C178.389 206.193 178.444 206.561 178.432 206.93C178.42 207.299 178.341 207.662 178.201 207.998Z" fill="url(#paint8_linear_2855_426568)"/>
<defs>
<linearGradient id="paint0_linear_2855_426568" x1="125.753" y1="33.7695" x2="125.753" y2="251.705" gradientUnits="userSpaceOnUse">
<stop stop-color="#00FFCF"/>
<stop offset="1" stop-color="#4AA6FF"/>
</linearGradient>
<linearGradient id="paint1_linear_2855_426568" x1="125.753" y1="33.7695" x2="125.753" y2="251.705" gradientUnits="userSpaceOnUse">
<stop stop-color="#00FFCF"/>
<stop offset="1" stop-color="#4AA6FF"/>
</linearGradient>
<linearGradient id="paint2_linear_2855_426568" x1="248.738" y1="33.7695" x2="248.738" y2="251.705" gradientUnits="userSpaceOnUse">
<stop stop-color="#00FFCF"/>
<stop offset="1" stop-color="#4AA6FF"/>
</linearGradient>
<linearGradient id="paint3_linear_2855_426568" x1="248.738" y1="33.7695" x2="248.738" y2="251.705" gradientUnits="userSpaceOnUse">
<stop stop-color="#00FFCF"/>
<stop offset="1" stop-color="#4AA6FF"/>
</linearGradient>
<linearGradient id="paint4_linear_2855_426568" x1="125.753" y1="141.381" x2="125.753" y2="359.316" gradientUnits="userSpaceOnUse">
<stop stop-color="#00FFCF"/>
<stop offset="1" stop-color="#4AA6FF"/>
</linearGradient>
<linearGradient id="paint5_linear_2855_426568" x1="125.753" y1="141.381" x2="125.753" y2="359.316" gradientUnits="userSpaceOnUse">
<stop stop-color="#00FFCF"/>
<stop offset="1" stop-color="#4AA6FF"/>
</linearGradient>
<linearGradient id="paint6_linear_2855_426568" x1="248.738" y1="141.381" x2="248.738" y2="359.316" gradientUnits="userSpaceOnUse">
<stop stop-color="#00FFCF"/>
<stop offset="1" stop-color="#4AA6FF"/>
</linearGradient>
<linearGradient id="paint7_linear_2855_426568" x1="248.738" y1="141.381" x2="248.738" y2="359.316" gradientUnits="userSpaceOnUse">
<stop stop-color="#00FFCF"/>
<stop offset="1" stop-color="#4AA6FF"/>
</linearGradient>
<linearGradient id="paint8_linear_2855_426568" x1="155.726" y1="194.74" x2="180.439" y2="217.359" gradientUnits="userSpaceOnUse">
<stop stop-color="#A55282"/>
<stop offset="1" stop-color="#F27C34"/>
</linearGradient>
</defs>
</svg>
