<svg width="375" height="375" viewBox="0 0 375 375" fill="none" xmlns="http://www.w3.org/2000/svg">
<rect x="188" y="34.2424" width="217.446" height="217.446" transform="rotate(45 188 34.2424)" fill="url(#paint0_linear_2855_426529)" fill-opacity="0.03"/>
<rect x="188" y="34.9495" width="216.446" height="216.446" transform="rotate(45 188 34.9495)" stroke="url(#paint1_linear_2855_426529)" stroke-opacity="0.15"/>
<rect x="264.879" y="54.8418" width="217.446" height="217.446" transform="rotate(75 264.879 54.8418)" fill="url(#paint2_linear_2855_426529)" fill-opacity="0.03"/>
<rect x="264.525" y="55.4542" width="216.446" height="216.446" transform="rotate(75 264.525 55.4542)" stroke="url(#paint3_linear_2855_426529)" stroke-opacity="0.15"/>
<rect x="321.158" y="111.121" width="217.446" height="217.446" transform="rotate(105 321.158 111.121)" fill="url(#paint4_linear_2855_426529)" fill-opacity="0.03"/>
<rect x="320.546" y="111.475" width="216.446" height="216.446" transform="rotate(105 320.546 111.475)" stroke="url(#paint5_linear_2855_426529)" stroke-opacity="0.15"/>
<path fill-rule="evenodd" clip-rule="evenodd" d="M164.034 156.801C162.377 156.801 161.034 158.144 161.034 159.801V181.073C162.038 180.861 163.079 180.75 164.146 180.75C165.134 180.75 166.1 180.845 167.034 181.028V159.801C167.034 158.144 165.691 156.801 164.034 156.801ZM167.034 210.472C166.1 210.655 165.134 210.75 164.146 210.75C163.079 210.75 162.038 210.639 161.034 210.427V216.801C161.034 218.458 162.377 219.801 164.034 219.801C165.691 219.801 167.034 218.458 167.034 216.801V210.472ZM188 156.801C186.343 156.801 185 158.144 185 159.801V162.919C185.959 162.726 186.951 162.625 187.967 162.625C189.006 162.625 190.02 162.731 191 162.932V159.801C191 158.144 189.656 156.801 188 156.801ZM191 192.318C190.02 192.519 189.006 192.625 187.967 192.625C186.951 192.625 185.959 192.524 185 192.332V216.801C185 218.458 186.343 219.801 188 219.801C189.656 219.801 191 218.458 191 216.801V192.318ZM208.964 159.801C208.964 158.144 210.308 156.801 211.964 156.801C213.621 156.801 214.964 158.144 214.964 159.801V186.061C213.97 185.853 212.94 185.744 211.884 185.744C210.885 185.744 209.909 185.842 208.964 186.028V159.801ZM211.884 215.744C212.94 215.744 213.97 215.635 214.964 215.428V216.801C214.964 218.458 213.621 219.801 211.964 219.801C210.308 219.801 208.964 218.458 208.964 216.801V215.46C209.909 215.646 210.885 215.744 211.884 215.744Z" fill="white"/>
<path fill-rule="evenodd" clip-rule="evenodd" d="M187.953 187.807C193.526 187.807 198.044 183.289 198.044 177.716C198.044 172.143 193.526 167.625 187.953 167.625C182.38 167.625 177.863 172.143 177.863 177.716C177.863 183.289 182.38 187.807 187.953 187.807ZM187.953 183.738C191.28 183.738 193.977 181.041 193.977 177.715C193.977 174.388 191.28 171.691 187.953 171.691C184.627 171.691 181.93 174.388 181.93 177.715C181.93 181.041 184.627 183.738 187.953 183.738ZM164.082 205.881C169.655 205.881 174.172 201.363 174.172 195.79C174.172 190.217 169.655 185.699 164.082 185.699C158.509 185.699 153.991 190.217 153.991 195.79C153.991 201.363 158.509 205.881 164.082 205.881ZM164.082 201.812C167.408 201.812 170.105 199.116 170.105 195.789C170.105 192.462 167.408 189.766 164.082 189.766C160.755 189.766 158.058 192.462 158.058 195.789C158.058 199.116 160.755 201.812 164.082 201.812ZM222.009 200.884C222.009 206.457 217.491 210.975 211.918 210.975C206.345 210.975 201.827 206.457 201.827 200.884C201.827 195.311 206.345 190.793 211.918 190.793C217.491 190.793 222.009 195.311 222.009 200.884ZM217.942 200.883C217.942 204.209 215.245 206.906 211.918 206.906C208.592 206.906 205.895 204.209 205.895 200.883C205.895 197.556 208.592 194.859 211.918 194.859C215.245 194.859 217.942 197.556 217.942 200.883Z" fill="url(#paint6_linear_2855_426529)"/>
<defs>
<linearGradient id="paint0_linear_2855_426529" x1="296.723" y1="34.2424" x2="296.723" y2="251.688" gradientUnits="userSpaceOnUse">
<stop stop-color="#00FFCF"/>
<stop offset="1" stop-color="#4AA6FF"/>
</linearGradient>
<linearGradient id="paint1_linear_2855_426529" x1="296.723" y1="34.2424" x2="296.723" y2="251.688" gradientUnits="userSpaceOnUse">
<stop stop-color="#00FFCF"/>
<stop offset="1" stop-color="#4AA6FF"/>
</linearGradient>
<linearGradient id="paint2_linear_2855_426529" x1="373.602" y1="54.8418" x2="373.602" y2="272.288" gradientUnits="userSpaceOnUse">
<stop stop-color="#00FFCF"/>
<stop offset="1" stop-color="#4AA6FF"/>
</linearGradient>
<linearGradient id="paint3_linear_2855_426529" x1="373.602" y1="54.8418" x2="373.602" y2="272.288" gradientUnits="userSpaceOnUse">
<stop stop-color="#00FFCF"/>
<stop offset="1" stop-color="#4AA6FF"/>
</linearGradient>
<linearGradient id="paint4_linear_2855_426529" x1="429.881" y1="111.121" x2="429.881" y2="328.567" gradientUnits="userSpaceOnUse">
<stop stop-color="#00FFCF"/>
<stop offset="1" stop-color="#4AA6FF"/>
</linearGradient>
<linearGradient id="paint5_linear_2855_426529" x1="429.881" y1="111.121" x2="429.881" y2="328.567" gradientUnits="userSpaceOnUse">
<stop stop-color="#00FFCF"/>
<stop offset="1" stop-color="#4AA6FF"/>
</linearGradient>
<linearGradient id="paint6_linear_2855_426529" x1="153.991" y1="167.625" x2="193.285" y2="229.281" gradientUnits="userSpaceOnUse">
<stop stop-color="#A55282"/>
<stop offset="1" stop-color="#F27C34"/>
</linearGradient>
</defs>
</svg>
