<svg fill="currentColor" height="24" viewBox="0 0 24 24" width="24" xmlns="http://www.w3.org/2000/svg"><path d="m19.5234 11.6025c.0523.0522.0938.1143.1221.1826s.0429.1414.0429.2154c0 .0739-.0146.1471-.0429.2154s-.0698.1303-.1221.1825l-7.6931 7.6875c-.9497.9493-2.23758 1.4825-3.58037 1.4823-1.34279-.0003-2.63048-.534-3.57979-1.4837s-1.48248-2.2375-1.48221-3.5803c.00026-1.3428.53394-2.6305 1.48362-3.5798l9.30655-9.44253c.3307-.33099.7233-.59361 1.1555-.77286s.8954-.27162 1.3633-.27183c.4679-.00022.9312.09172 1.3636.27057.4323.17884.8252.4411 1.1562.77178.331.33069.5936.72333.7729 1.15551.1792.43217.2716.89543.2718 1.3633.0002.46788-.0917.93122-.2706 1.36356-.1788.43235-.4411.82523-.7718 1.15622l-9.30745 9.43878c-.19138.1917-.41866.3439-.66885.4478s-.51841.1576-.78932.1578c-.27092.0003-.53923-.0528-.78962-.1563-.25039-.1034-.47796-.2551-.66971-.4465s-.34393-.4187-.44785-.6689c-.10391-.2502-.15753-.5184-.15779-.7893s.05284-.5392.15627-.7896.25517-.478.44655-.6697l7.80747-7.93783c.0519-.05269.1136-.09466.1816-.1235.0681-.02885.1411-.04401.215-.04462.074-.00061.1473.01334.2158.04107.0685.02772.1309.06866.1836.12049s.0946.11354.1235.18159c.0288.06805.044.14111.0446.21502s-.0133.14722-.0411.21573c-.0277.06852-.0686.13091-.1205.1836l-7.80747 7.94155c-.08728.0869-.15661.1901-.20401.3037-.04741.1137-.07196.2355-.07227.3587-.0003.1231.02365.2451.07049.359s.11566.2174.20251.3047c.08686.0873.19006.1566.30371.204s.23552.072.35866.0723.24513-.0237.35902-.0705c.11388-.0468.21742-.1157.30471-.2025l9.30375-9.4397c.4575-.45675.7148-1.07654.7153-1.72301.0006-.64647-.2557-1.26668-.7125-1.72418-.4567-.4575-1.0765-.71481-1.723-.71534s-1.2667.25578-1.7242.71253l-9.30748 9.4387c-.73896.7381-1.15445 1.7395-1.15506 2.784-.00062 1.0444.41369 2.0463 1.15178 2.7853.73809.7389 1.7395 1.1544 2.78393 1.155s2.04633-.4137 2.78533-1.1517l7.6931-7.6875c.0525-.0521.1147-.0933.1831-.1213s.1417-.0422.2156-.0419c.074.0004.1471.0153.2152.0439.0682.0287.13.0705.182.123z" fill="#fff"/></svg>
