<svg width="24" height="24" viewBox="0 0 24 24" fill="none" xmlns="http://www.w3.org/2000/svg">
<path d="M21.1763 2.82374C21.0123 2.65725 20.8064 2.53817 20.5803 2.47909C20.3542 2.42001 20.1163 2.42313 19.8919 2.48812H19.8816L1.88813 7.94718C1.63172 8.02063 1.40376 8.17047 1.23464 8.37673C1.06552 8.58299 0.963248 8.83588 0.94146 9.10172C0.919672 9.36756 0.979396 9.63373 1.11268 9.86477C1.24596 10.0958 1.44647 10.2808 1.68751 10.395L9.71345 14.1966C9.75217 14.2156 9.78349 14.2469 9.80251 14.2856L13.605 22.3125C13.71 22.5372 13.8771 22.7273 14.0865 22.8602C14.296 22.9931 14.5391 23.0633 14.7872 23.0625C14.8247 23.0625 14.8631 23.0625 14.9006 23.0578C15.1664 23.0369 15.4193 22.935 15.6254 22.7659C15.8314 22.5967 15.9806 22.3685 16.0528 22.1119L21.5091 4.11843V4.10812C21.5744 3.88391 21.578 3.64621 21.5194 3.42014C21.4608 3.19406 21.3423 2.98801 21.1763 2.82374ZM20.4263 3.79874L14.9747 21.7903V21.8006C14.9659 21.8382 14.945 21.8719 14.9152 21.8965C14.8853 21.921 14.8483 21.9351 14.8097 21.9366C14.771 21.9424 14.7314 21.935 14.6974 21.9156C14.6634 21.8962 14.6369 21.866 14.6222 21.8297L10.8722 13.9209L15.3947 9.39843C15.5002 9.29288 15.5595 9.14973 15.5595 9.00046C15.5595 8.85119 15.5002 8.70804 15.3947 8.60249C15.2892 8.49695 15.146 8.43765 14.9967 8.43765C14.8475 8.43765 14.7043 8.49695 14.5988 8.60249L10.08 13.125L2.17032 9.37499C2.13557 9.3588 2.10662 9.33234 2.08737 9.29918C2.06812 9.26602 2.05949 9.22776 2.06266 9.18955C2.06583 9.15134 2.08063 9.11502 2.10508 9.08549C2.12953 9.05595 2.16244 9.03462 2.19938 9.02437H2.2097L20.2013 3.56999C20.2329 3.56112 20.2663 3.56096 20.298 3.56954C20.3297 3.57813 20.3585 3.59513 20.3813 3.61874C20.4044 3.64189 20.421 3.67068 20.4296 3.70225C20.4382 3.73383 20.4383 3.7671 20.43 3.79874H20.4263Z" fill="white"/>
</svg>
