<svg fill="currentColor" height="18" viewBox="0 0 18 18" width="18" xmlns="http://www.w3.org/2000/svg"><path d="m17.25.1875h-12c-.14918 0-.29226.059263-.39775.164752-.10549.10549-.16475.248564-.16475.397748v3.9375h-3.9375c-.149184 0-.292258.05926-.397748.16475-.105489.10549-.164752.24857-.164752.39775v12c0 .1492.059263.2923.164752.3977.10549.1055.248564.1648.397748.1648h12c.1492 0 .2923-.0593.3977-.1648.1055-.1054.1648-.2485.1648-.3977v-3.9375h3.9375c.1492 0 .2923-.0593.3977-.1648.1055-.1054.1648-.2485.1648-.3977v-12c0-.149184-.0593-.292258-.1648-.397748-.1054-.105489-.2485-.164752-.3977-.164752zm-5.0625 16.5h-10.875v-10.875h10.875zm4.5-4.5h-3.375v-6.9375c0-.14918-.0593-.29226-.1648-.39775-.1054-.10549-.2485-.16475-.3977-.16475h-6.9375v-3.375h10.875z" fill="#fff"/></svg>
