<svg width="30" height="30" viewBox="0 0 30 30" fill="none" xmlns="http://www.w3.org/2000/svg">
<path d="M15 0.375C12.1075 0.375 9.27986 1.23274 6.87479 2.83976C4.46972 4.44677 2.5952 6.73089 1.48827 9.40325C0.381337 12.0756 0.091713 15.0162 0.656022 17.8532C1.22033 20.6902 2.61323 23.2961 4.65857 25.3414C6.70391 27.3868 9.30984 28.7797 12.1468 29.344C14.9838 29.9083 17.9244 29.6187 20.5968 28.5117C23.2691 27.4048 25.5532 25.5303 27.1602 23.1252C28.7673 20.7201 29.625 17.8926 29.625 15C29.6202 11.1227 28.0778 7.40558 25.3361 4.66391C22.5944 1.92223 18.8773 0.379838 15 0.375ZM12.75 19.5C12.75 19.7984 12.6315 20.0845 12.4205 20.2955C12.2095 20.5065 11.9234 20.625 11.625 20.625C11.3266 20.625 11.0405 20.5065 10.8295 20.2955C10.6185 20.0845 10.5 19.7984 10.5 19.5V10.5C10.5 10.2016 10.6185 9.91548 10.8295 9.7045C11.0405 9.49353 11.3266 9.375 11.625 9.375C11.9234 9.375 12.2095 9.49353 12.4205 9.7045C12.6315 9.91548 12.75 10.2016 12.75 10.5V19.5ZM19.5 19.5C19.5 19.7984 19.3815 20.0845 19.1705 20.2955C18.9595 20.5065 18.6734 20.625 18.375 20.625C18.0766 20.625 17.7905 20.5065 17.5795 20.2955C17.3685 20.0845 17.25 19.7984 17.25 19.5V10.5C17.25 10.2016 17.3685 9.91548 17.5795 9.7045C17.7905 9.49353 18.0766 9.375 18.375 9.375C18.6734 9.375 18.9595 9.49353 19.1705 9.7045C19.3815 9.91548 19.5 10.2016 19.5 10.5V19.5Z" fill="white"/>
</svg>
