<svg fill="none" height="16" viewBox="0 0 12 16" width="12" xmlns="http://www.w3.org/2000/svg"><path d="m5.57143 0h.85714v1.58h-.85714z"/><path d="m5.14286 2.08v.32h-.85715v.4h3.42858v-.4h-.85715v-.62h-.85714v.3z"/><path d="m8.57143 3h-2.57143v.3h-2.57143v.72h5.14286z"/><path d="m9.42857 4.22h-3.42857v.3h-3.42857v.72h6.85714z"/><path d="m9.42857 5.44h-3.42857v.3h-3.42857v.72h6.85714z"/><path d="m10.2857 6.66h-4.2857v.3h-4.28571v.72h8.57141z"/><path d="m10.2857 7.88h-4.2857v.3h-4.28571v.72h8.57141z"/><path d="m11.1429 9.1h-5.1429v.3h-5.142857v.72h10.285757z"/><path d="m12 10.32h-6v.3h-6v.72h12z"/><path d="m12 11.54h-6v.3h-6v.72h12z"/><path d="m12 12.76h-6v.3h-6v.72h12z"/><path d="m10.2857 13.98h-4.2857v.3h-4.28571v.72h8.57141z"/><path d="m8.57143 15.2h-2.57143v.3h-2.57143v.5h5.14286z"/></svg>
