<svg fill="currentColor" height="24" viewBox="0 0 24 24" width="24" xmlns="http://www.w3.org/2000/svg"><path d="m21.1791 7.01157-4.1897-4.18969c-.1219-.12189-.2666-.21858-.4258-.28455-.1593-.06597-.33-.09992-.5023-.09992-.1724 0-.3431.03395-.5024.09992-.1592.06597-.3039.16266-.4258.28455l-11.56122 11.56032c-.12213.1217-.21896.2664-.28493.4256-.06597.1593-.09977.3301-.09945.5025v4.1897c0 .3481.13828.6819.38442.9281.24615.2461.57999.3844.92808.3844h4.18969c.17241.0003.34318-.0335.50247-.0994.15929-.066.30395-.1628.42565-.285l8.07749-8.0775.4322 1.7269-3.525 3.525c-.0529.0521-.095.1142-.1237.1826-.0288.0685-.0438.1419-.0441.2162-.0002.0742.0142.1478.0426.2164.0283.0687.0699.131.1224.1835.0526.0525.115.094.1836.1223.0687.0282.1423.0426.2166.0422.0742-.0003.1477-.0154.2161-.0442.0684-.0289.1304-.071.1824-.124l3.75-3.75c.0688-.0687.1186-.154.1445-.2477.026-.0936.0272-.1924.0037-.2867l-.6732-2.6906 2.5557-2.55468c.1219-.12188.2185-.26658.2845-.42583s.0999-.32993.0999-.5023-.0339-.34305-.0999-.5023-.1626-.30395-.2845-.42582zm-16.8666 12.48843v-3.1416l3.33 3.3291h-3.1425c-.04973 0-.09742-.0198-.13258-.0549-.03516-.0352-.05492-.0829-.05492-.1326zm4.6875-.0459-4.455-4.4541 8.205-8.20406 4.455 4.45406zm11.3831-11.38222-2.3831 2.38312-4.4541-4.455 2.3822-2.38218c.0174-.01744.0381-.03127.0609-.0407.0227-.00944.0471-.0143.0718-.0143.0246 0 .049.00486.0718.0143.0227.00943.0434.02326.0608.0407l4.1897 4.18875c.0175.01741.0313.03809.0407.06085.0095.02276.0143.04716.0143.0718s-.0048.04904-.0143.0718c-.0094.02277-.0232.04344-.0407.06086z" fill="#fff"/></svg>
