<svg fill="currentColor" height="24" viewBox="0 0 24 24" width="24" xmlns="http://www.w3.org/2000/svg"><path d="m21.3103 6.87845-4.1887-4.18969c-.1393-.13933-.3047-.24984-.4867-.32525-.182-.0754-.3771-.11421-.5741-.11421s-.3921.03881-.5741.11421c-.182.07541-.3474.18592-.4867.32525l-11.56031 11.56124c-.13989.1388-.2508.304-.32628.486-.07549.1821-.11403.3773-.1134.5743v4.1897c0 .3978.15803.7794.43934 1.0607.2813.2813.66283.4393 1.06066.4393h4.18969c.19705.0006.39227-.0379.57429-.1134.18203-.0755.34723-.1864.48602-.3263l11.56029-11.56029c.1393-.13929.2499-.30467.3253-.48668s.1142-.37709.1142-.5741-.0388-.3921-.1142-.57411-.186-.34738-.3253-.48667zm-3.3103 3.31035-4.1897-4.18879 2.25-2.25 4.1897 4.18875z"/></svg>
