<svg height="24" viewBox="0 0 24 24" width="24" xmlns="http://www.w3.org/2000/svg"><path d="m21.1781 7.01062-4.1897-4.18969c-.1218-.12189-.2665-.21858-.4258-.28455-.1592-.06596-.3299-.09992-.5023-.09992s-.343.03396-.5023.09992c-.1592.06597-.3039.16266-.4258.28455l-11.56032 11.56127c-.12213.1217-.21896.2663-.28493.4256s-.09977.3301-.09945.5025v4.1897c0 .3481.13828.6819.38442.9281.24615.2461.57999.3844.92808.3844h4.18969c.17241.0003.34318-.0335.50247-.0995.15929-.0659.30395-.1628.42565-.2849l11.56029-11.56123c.1219-.12188.2186-.26657.2846-.42582.0659-.15925.0999-.32993.0999-.50231 0-.17237-.034-.34305-.0999-.5023-.066-.15925-.1627-.30394-.2846-.42582zm-12.35622 12.62158c-.035.0352-.08254.0551-.13219.0553h-4.18969c-.04973 0-.09742-.0198-.13258-.0549-.03516-.0352-.05492-.0829-.05492-.1326v-4.1897c.00021-.0496.0201-.0972.05531-.1322l8.38219-8.38311 4.4541 4.45501zm11.56032-11.56033-2.3822 2.38223-4.4541-4.45411 2.3822-2.38312c.0174-.01743.0381-.03126.0609-.0407.0227-.00943.0471-.01429.0718-.01429.0246 0 .049.00486.0718.01429.0227.00944.0434.02327.0608.0407l4.1888 4.18969c.0174.01741.0313.03809.0407.06085s.0143.04716.0143.0718-.0049.04904-.0143.0718c-.0094.02277-.0233.04345-.0407.06086z" /></svg>
