<svg width="24" height="24" viewBox="0 0 24 24" fill="currentColor" xmlns="http://www.w3.org/2000/svg"><path d="M22.151 15.173a1.5 1.5 0 0 1-1.723.474l-4.594-1.63-.027-.01a1.5 1.5 0 0 1-.911-1.087l-.582-2.79a7.17 7.17 0 0 0-4.658.01l-.553 2.768a1.5 1.5 0 0 1-.914 1.1l-.027.01-4.594 1.629a1.48 1.48 0 0 1-1.194-.048 1.5 1.5 0 0 1-.525-.425c-1.616-2.083-1.435-4.847.44-6.722 5.264-5.266 14.156-5.266 19.423 0 1.874 1.873 2.055 4.637.44 6.72M20.25 18H3.75a.75.75 0 1 0 0 1.5h16.5a.75.75 0 1 0 0-1.5" fill="#fff"/></svg>
