<svg fill="currentColor" height="24" viewBox="0 0 24 24" width="24" xmlns="http://www.w3.org/2000/svg"><path d="m20.7741 15.0281-4.4288-1.9847c-.2006-.0859-.4196-.1205-.637-.1005-.2174.0199-.4263.0938-.608.2149-.0184.0118-.036.025-.0525.0394l-2.3147 1.9687c-.024.0131-.0507.0205-.0781.0214-.0273.001-.0545-.0044-.0794-.0157-1.4878-.7182-3.02903-2.25-3.74996-3.7172-.01201-.0245-.01825-.0515-.01825-.0788s.00624-.0542.01825-.0787l1.97526-2.34378c.0142-.01734.0274-.03549.0394-.05437.1195-.18234.1916-.39155.2099-.60875.0183-.21719-.0177-.43554-.1049-.63531l-1.9706-4.42125c-.11191-.26099-.30545-.47865-.55157-.6203-.24612-.14166-.53154-.19967-.81343-.16533-1.2251.16106-2.34964.76269-3.16348 1.69247s-1.26128 2.12408-1.25871 3.35972c0 7.3406 5.97188 13.3125 13.31249 13.3125 1.2356.0024 2.4298-.4451 3.3595-1.2589.9298-.8138 1.5314-1.9383 1.6927-3.1633.0343-.2806-.023-.5647-.1632-.8101-.1402-.2455-.3558-.4391-.6149-.5521zm-4.2741 4.6594c-6.71999 0-12.18749-5.4675-12.18749-12.1875-.00313-.96194.34407-1.89212.97673-2.61674s1.50751-1.19412 2.46108-1.32076h.02157c.03778.00071.07446.01281.10524.03472.03078.02192.05423.05262.06726.08809l1.97812 4.41657c.01128.02455.01712.05125.01712.07828 0 .02702-.00584.05372-.01712.07828l-1.97906 2.34936c-.01477.0168-.02824.0346-.04031.0535-.12384.189-.19677.4068-.21171.6323-.01495.2255.02859.4511.12639.6548.83157 1.7025 2.54718 3.405 4.26848 4.2366.2049.0973.4315.1398.6578.1233.2262-.0164.4444-.0912.6331-.2171.0178-.0121.0356-.0253.0525-.0393l2.3137-1.9688c.0229-.0123.0481-.0194.074-.0211.0259-.0016.0518.0024.076.0117l4.4297 1.9847c.0362.0154.0666.0418.087.0755.0204.0336.0296.0728.0265.112-.126.954-.5951 1.8295-1.3195 2.4629-.7245.6334-1.6548.9813-2.6171.9787z" fill="#fff"/></svg>
