<svg fill="currentColor" height="24" viewBox="0 0 24 24" width="24" xmlns="http://www.w3.org/2000/svg"><path d="m21.7388 16.4137c-.1672 1.2704-.7911 2.4364-1.7551 3.2804-.9641.844-2.2024 1.3082-3.4837 1.3059-7.44374 0-13.49999-6.0563-13.49999-13.50001-.0023-1.28129.46189-2.5196 1.30587-3.48366.84398-.96405 2.01004-1.58792 3.28038-1.75509.32124-.03922.64654.0265.92736.18735s.50208.40821.63076.70515l1.98002 4.42032v.01125c.0985.2273.1392.47546.1184.72232s-.1024.48473-.2375.69236c-.0169.02532-.0347.04875-.0534.07219l-1.95189 2.31372c.70219 1.4269 2.19469 2.9063 3.64029 3.6103l2.2819-1.9415c.0224-.0189.0459-.0364.0703-.0525.2075-.1384.4462-.2229.6945-.2458s.4984.0165.7277.1145l.0122.0057 4.4165 1.979c.2975.1282.5455.3493.7069.6302.1613.2808.2275.6064.1885.9279z"/></svg>
