<svg xmlns="http://www.w3.org/2000/svg" width="36" height="36" viewBox="0 0 36 36" fill="none"><rect width="36" height="36" fill="#0D0F16" rx="8"/><rect width="36" height="36" fill="url(#a)" fill-opacity=".2" rx="8"/><path fill="url(#b)" d="M27.739 22.414A5.275 5.275 0 0 1 22.5 27C15.056 27 9 20.944 9 13.5a5.274 5.274 0 0 1 4.586-5.239 1.5 1.5 0 0 1 1.558.893l1.98 4.42v.011A1.5 1.5 0 0 1 17.005 15a1.044 1.044 0 0 1-.053.072L15 17.386c.702 1.427 2.195 2.906 3.64 3.61l2.282-1.941a1.501 1.501 0 0 1 1.492-.184l.013.005 4.416 1.98a1.5 1.5 0 0 1 .896 1.558Z"/><defs><linearGradient id="a" x1="18" x2="18" y1="0" y2="36" gradientUnits="userSpaceOnUse"><stop stop-color="#00FFCF"/><stop offset="1" stop-color="#4AA6FF"/></linearGradient><linearGradient id="b" x1="18.375" x2="18.375" y1="8.25" y2="27" gradientUnits="userSpaceOnUse"><stop stop-color="#00FFCF"/><stop offset="1" stop-color="#4AA6FF"/></linearGradient></defs></svg>