<svg width="24" height="24" viewBox="0 0 24 24" fill="currentColor" xmlns="http://www.w3.org/2000/svg"><path d="M4.916 3.375a.563.563 0 0 0-.832.75L6.85 7.173a13.1 13.1 0 0 0-4.431 2.914c-1.805 1.805-1.98 4.467-.424 6.468a1.31 1.31 0 0 0 1.51.414l4.593-1.629.02-.008a1.3 1.3 0 0 0 .8-.961l.554-2.767a.19.19 0 0 1 .113-.137 8 8 0 0 1 .938-.258l8.56 9.416a.562.562 0 1 0 .832-.758zm4.299 7.031a1.31 1.31 0 0 0-.844.98l-.555 2.77a.19.19 0 0 1-.108.134L3.12 15.916l-.02.007a.19.19 0 0 1-.215-.054c-1.219-1.568-1.084-3.573.33-4.986a12 12 0 0 1 4.45-2.82l2 2.2c-.152.05-.302.094-.45.143m12.79 6.151a1.31 1.31 0 0 1-1.51.414l-.87-.309a.562.562 0 1 1 .375-1.06l.88.312.02.008a.19.19 0 0 0 .214-.055c1.22-1.568 1.084-3.573-.33-4.986-2.443-2.443-5.89-3.737-9.456-3.55a.564.564 0 0 1-.06-1.126c3.886-.201 7.643 1.213 10.313 3.88 1.804 1.807 1.978 4.469.423 6.474z" fill="#fff"/></svg>
