<svg fill="currentColor" height="24" viewBox="0 0 24 24" width="24" xmlns="http://www.w3.org/2000/svg"><path d="m22.5 12c.0006.2547-.0647.5051-.1895.7271-.1249.2219-.305.4078-.523.5395l-13.5075 8.2631c-.22773.1394-.48856.2156-.75555.2205-.26699.005-.53046-.0615-.7632-.1924-.23052-.1289-.42255-.3168-.55635-.5445-.13379-.2278-.20451-.487-.2049-.7511v-16.52438c.00039-.26411.07111-.52334.2049-.75106.1338-.22771.32583-.41567.55635-.54456.23274-.13093.49621-.19734.7632-.1924s.52782.08107.75555.22052l13.5075 8.26308c.218.1317.3981.3176.523.5395.1248.222.1901.4725.1895.7271z" fill="#fff"/></svg>
