<svg fill="currentColor" height="24" viewBox="0 0 24 24" width="24" xmlns="http://www.w3.org/2000/svg"><path d="m21.69 10.8928-13.50748-8.26216c-.19925-.12222-.42753-.189-.66124-.19345s-.46437.05359-.66813.16814c-.20268.1113-.37152.27529-.48869.47463-.11716.19935-.1783.42664-.17694.65787v16.52437c-.00136.2312.05978.4585.17694.6579.11717.1993.28601.3633.48869.4746.20376.1145.43442.1726.66813.1681.23371-.0044.46199-.0712.66124-.1934l13.50748-8.2622c.1902-.1156.3473-.2781.4564-.472.1091-.194.1664-.4127.1664-.6352s-.0573-.4412-.1664-.6351c-.1091-.194-.2662-.3565-.4564-.4721zm-.5869 1.2544-13.50933 8.2622c-.02916.0175-.06254.0268-.09656.0268s-.0674-.0093-.09656-.0268c-.02826-.0138-.05205-.0353-.06864-.062-.01658-.0267-.02529-.0575-.02511-.0889v-16.52067c-.00018-.03144.00853-.06228.02511-.08899.01659-.0267.04038-.04818.06864-.06195.03033-.01691.06466-.02533.09937-.02438.03328.00119.06564.01123.09375.02907l13.50933 8.26122c.0257.0151.047.0366.0618.0624s.0226.0551.0226.0848c0 .0298-.0078.059-.0226.0848s-.0361.0474-.0618.0624z" fill="#fff"/></svg>
