<svg width="30" height="30" viewBox="0 0 30 30" fill="none" xmlns="http://www.w3.org/2000/svg">
<path d="M15 0.375C12.1075 0.375 9.27986 1.23274 6.87479 2.83976C4.46972 4.44677 2.5952 6.73089 1.48827 9.40325C0.381337 12.0756 0.091713 15.0162 0.656022 17.8532C1.22033 20.6902 2.61323 23.2961 4.65857 25.3414C6.70391 27.3868 9.30984 28.7797 12.1468 29.344C14.9838 29.9083 17.9244 29.6187 20.5968 28.5117C23.2691 27.4048 25.5532 25.5303 27.1602 23.1252C28.7673 20.7201 29.625 17.8926 29.625 15C29.6202 11.1227 28.0778 7.40558 25.3361 4.66391C22.5944 1.92223 18.8773 0.379838 15 0.375ZM20.1244 15.9366L13.3744 20.4366C13.1892 20.5593 12.9721 20.6248 12.75 20.625C12.4516 20.625 12.1655 20.5065 11.9545 20.2955C11.7435 20.0845 11.625 19.7984 11.625 19.5V10.5C11.6249 10.2963 11.6801 10.0963 11.7847 9.92154C11.8893 9.74673 12.0394 9.60361 12.219 9.50746C12.3986 9.41131 12.601 9.36573 12.8044 9.37559C13.0079 9.38545 13.2049 9.45037 13.3744 9.56344L20.1244 14.0634C20.2787 14.1661 20.4052 14.3054 20.4928 14.4688C20.5803 14.6321 20.6261 14.8146 20.6261 15C20.6261 15.1854 20.5803 15.3679 20.4928 15.5312C20.4052 15.6946 20.2787 15.8339 20.1244 15.9366Z" fill="white"/>
</svg>
