<svg fill="none" height="32" viewBox="0 0 32 32" width="32" xmlns="http://www.w3.org/2000/svg" xmlns:xlink="http://www.w3.org/1999/xlink"><linearGradient id="a" gradientUnits="userSpaceOnUse" x1="16" x2="16" y1="0" y2="32"><stop offset="0" stop-color="#00ffcf"/><stop offset="1" stop-color="#4aa6ff"/></linearGradient><rect fill="url(#a)" height="32" rx="16" width="32"/><path d="m22.4325 21.25c-.9518-1.6456-2.4187-2.8256-4.1306-3.385.8468-.5041 1.5047-1.2722 1.8727-2.1864.3679-.9142.4256-1.9239.1642-2.874-.2614-.9502-.8275-1.7882-1.6113-2.3855-.7838-.59732-1.742-.92081-2.7275-.92081-.9854 0-1.9436.32349-2.7274.92081-.7839.5973-1.3499 1.4353-1.6113 2.3855-.2614.9501-.2037 1.9598.1642 2.874.368.9142 1.0259 1.6823 1.8727 2.1864-1.7119.5587-3.1788 1.7387-4.13065 3.385-.03491.0569-.05806.1202-.0681.1863-.01003.066-.00674.1333.00967.198.01642.0648.04564.1255.08592.1788.04029.0532.09083.0979.14865.1313.05781.0334.12173.0548.18799.0631.06625.0083.13352.0033.19772-.0149.0643-.0181.1243-.0489.1765-.0906.0521-.0416.0954-.0933.1273-.152 1.1775-2.035 3.2587-3.25 5.5668-3.25 2.3082 0 4.3894 1.215 5.5669 3.25.0319.0587.0752.1104.1273.152.0522.0417.1122.0725.1765.0906.0642.0182.1315.0232.1977.0149.0663-.0083.1302-.0297.188-.0631s.1084-.0781.1487-.1313c.0402-.0533.0695-.114.0859-.1788.0164-.0647.0197-.132.0096-.198-.01-.0661-.0331-.1294-.0681-.1863zm-9.9325-7.25c0-.6922.2053-1.3689.5899-1.9445s.9312-1.0242 1.5708-1.2891c.6395-.2649 1.3432-.3342 2.0222-.1992.6789.1351 1.3025.4684 1.792.9579s.8228 1.1131.9579 1.7921c.135.6789.0657 1.3826-.1992 2.0222-.2649.6395-.7135 1.1862-1.2891 1.5707-.5755.3846-1.2522.5899-1.9445.5899-.9279-.001-1.8176-.3701-2.4737-1.0262-.6562-.6562-1.0253-1.5459-1.0263-2.4738z" fill="#141925"/></svg>