<svg width="32" height="32" viewBox="0 0 32 32" xmlns="http://www.w3.org/2000/svg">
<g clip-path="url(#clip0_11069_43677)">
<path d="M29.4163 13L22.7326 19.7062C23.3026 21.29 23.5388 23.9425 21.0838 27.2062C20.9121 27.4357 20.6929 27.6255 20.4412 27.7625C20.1894 27.8994 19.911 27.9805 19.6251 28C19.5776 28 19.5313 28 19.4838 28C19.221 28 18.9608 27.9483 18.718 27.8477C18.4752 27.7471 18.2546 27.5996 18.0688 27.4137L12.0363 21.375L6.70759 26.7075C6.51995 26.8951 6.26546 27.0006 6.00009 27.0006C5.73473 27.0006 5.48023 26.8951 5.29259 26.7075C5.10495 26.5199 4.99953 26.2654 4.99953 26C4.99953 25.7346 5.10495 25.4801 5.29259 25.2925L10.6251 19.9637L4.58759 13.9262C4.38914 13.7275 4.23476 13.4893 4.1345 13.227C4.03423 12.9646 3.99034 12.6842 4.00567 12.4037C4.021 12.1233 4.09521 11.8493 4.22347 11.5995C4.35173 11.3496 4.53116 11.1296 4.75009 10.9537C7.92759 8.39 10.9688 8.89375 12.3001 9.31125L19.0001 2.5875C19.1858 2.40173 19.4063 2.25437 19.649 2.15383C19.8917 2.0533 20.1518 2.00155 20.4145 2.00155C20.6771 2.00155 20.9373 2.0533 21.1799 2.15383C21.4226 2.25437 21.6431 2.40173 21.8288 2.5875L29.4151 10.1725C29.79 10.5474 30.0008 11.0558 30.001 11.586C30.0013 12.1162 29.791 12.6248 29.4163 13Z" />
</g>
<defs>
<clipPath id="clip0_11069_43677">
<rect width="32" height="32" />
</clipPath>
</defs>
</svg>
