<svg fill="currentColor" height="24" viewBox="0 0 24 24" width="24" xmlns="http://www.w3.org/2000/svg"><path d="m12.9375 16.875c0 .1854-.055.3667-.158.5208-.103.1542-.2494.2744-.4207.3453-.1713.071-.3598.0896-.5417.0534-.1818-.0362-.3489-.1255-.48-.2566s-.2204-.2981-.2566-.48-.0176-.3704.0534-.5417c.0709-.1713.1911-.3177.3453-.4207.1541-.103.3354-.158.5208-.158.2486 0 .4871.0988.6629.2746s.2746.4143.2746.6629zm-.9375-9.9375c-1.9687 0-3.5625 1.42969-3.5625 3.1875v.375c0 .1492.05927.2923.16476.3977.10549.1055.24856.1648.39774.1648.14919 0 .29226-.0593.39775-.1648.10549-.1054.16475-.2485.16475-.3977v-.375c0-1.13719 1.0931-2.0625 2.4375-2.0625s2.4375.92531 2.4375 2.0625c0 1.1372-1.0931 2.0625-2.4375 2.0625-.1492 0-.2923.0593-.3977.1648-.1055.1054-.1648.2485-.1648.3977v.75c0 .1492.0593.2923.1648.3977.1054.1055.2485.1648.3977.1648s.2923-.0593.3978-.1648c.1054-.1054.1647-.2485.1647-.3977v-.2269c1.6978-.2419 3-1.5618 3-3.1481 0-1.75781-1.5937-3.1875-3.5625-3.1875zm9.5625 5.0625c0 1.8913-.5608 3.7401-1.6116 5.3126-1.0507 1.5726-2.5442 2.7982-4.2915 3.522s-3.67.9131-5.5249.5442c-1.85499-.369-3.55886-1.2798-4.8962-2.6171s-2.24808-3.0412-2.61705-4.8961c-.36898-1.855-.17961-3.7777.54416-5.52501.72376-1.74732 1.94941-3.24078 3.52195-4.29152 1.57255-1.05074 3.42134-1.61157 5.31264-1.61157 2.5352.00298 4.9658 1.01141 6.7584 2.80408 1.7927 1.79267 2.8011 4.2232 2.8041 6.75842zm-1.125 0c0-1.6688-.4948-3.30008-1.422-4.68762-.9271-1.38754-2.2449-2.469-3.7866-3.10761-1.5418-.63862-3.2383-.80571-4.875-.48015-1.63668.32557-3.1401 1.12916-4.32011 2.30917-1.18 1.18-1.9836 2.68342-2.30916 4.32011-.32556 1.6367-.15847 3.3332.48014 4.875.63861 1.5417 1.72007 2.8595 3.10761 3.7866s3.01882 1.422 4.68762 1.422c2.237-.0025 4.3817-.8922 5.9635-2.474s2.4715-3.7265 2.474-5.9635z" fill="#fff"/></svg>
