<svg fill="currentColor" height="24" viewBox="0 0 24 24" width="24" xmlns="http://www.w3.org/2000/svg"><path d="m20.8885 5.59875c-.2058-.11261-.438-.168-.6725-.16041-.2344.00758-.4626.07787-.6607.20353l-7.7428 4.93223v-3.8391c-.0002-.23243-.0628-.46053-.1814-.66042-.1186-.1999-.2888-.36424-.4926-.47583-.2058-.11261-.438-.168-.6725-.16041-.2344.00758-.4626.07787-.66067.20353l-8.26687 5.26593c-.18414.1166-.3358.2779-.44089.4689-.105086.1909-.160192.4053-.160192.6233s.055106.4324.160192.6233c.10509.191.25675.3523.44089.4689l8.26687 5.2659c.19807.1257.42627.196.66067.2036.2345.0075.4667-.0479.6725-.1605.2038-.1115.374-.2759.4926-.4758s.1812-.428.1814-.6604v-3.8391l7.7428 4.9322c.1981.1257.4263.196.6607.2036.2345.0075.4667-.0479.6725-.1605.2038-.1115.374-.2759.4926-.4758s.1812-.428.1814-.6604v-10.53c-.0002-.23243-.0628-.46053-.1814-.66042-.1186-.1999-.2888-.36424-.4926-.47583zm-10.201 11.66625c.0004.0312-.0082.0619-.0249.0884-.0166.0264-.0405.0475-.0688.0607-.0287.0166-.0615.0248-.0946.0238s-.0653-.0112-.0929-.0295l-8.26409-5.265c-.02442-.0151-.04457-.0362-.05855-.0613-.01397-.0251-.02131-.0534-.02131-.0821s.00734-.057.02131-.0821c.01398-.0251.03413-.0462.05855-.0613l8.26409-5.26504c.0277-.01875.0602-.02916.0937-.03.0329-.00023.0652.00818.0938.02437.0283.01318.0522.03426.0688.0607.0167.02645.0253.05713.0249.08837zm9.75 0c.0004.0312-.0082.0619-.0249.0884-.0166.0264-.0405.0475-.0688.0607-.0287.0166-.0615.0248-.0946.0238s-.0653-.0112-.0929-.0295l-8.2678-5.265c-.0245-.0151-.0446-.0362-.0586-.0613s-.0213-.0534-.0213-.0821.0073-.057.0213-.0821.0341-.0462.0586-.0613l8.2678-5.26504c.0277-.01875.0602-.02916.0937-.03.0329-.00023.0652.00818.0938.02437.0283.01318.0522.03426.0688.0607.0167.02645.0253.05713.0249.08837z" fill="#fff"/></svg>
