<svg fill="currentColor" height="24" viewBox="0 0 24 24" width="24" xmlns="http://www.w3.org/2000/svg"><path d="m21.3975 20.6025-4.8169-4.8169c1.3736-1.5796 2.0802-3.6309 1.9709-5.7214-.1093-2.09047-1.026-4.05685-2.5569-5.48462-1.5308-1.42777-3.5562-2.20539-5.6493-2.16894-2.09298.03646-4.09009.88413-5.5703 2.36435-1.48022 1.48021-2.3279 3.47732-2.36435 5.57031-.03645 2.0931.74117 4.1185 2.16894 5.6493 1.42777 1.5309 3.39415 2.4476 5.48461 2.5569 2.0905.1093 4.1418-.5973 5.7214-1.9709l4.8169 4.8169c.1066.0994.2477.1534.3934.1509.1457-.0026.2848-.0616.3878-.1647.1031-.103.1621-.2421.1647-.3878s-.0515-.2868-.1509-.3934zm-17.835-10.1025c0-1.37211.40688-2.71341 1.16918-3.85427.76231-1.14087 1.8458-2.03006 3.11346-2.55515 1.26766-.52508 2.66256-.66247 4.00826-.39478 1.3458.26768 2.5819.92842 3.5522 1.89864.9702.97023 1.6309 2.20637 1.8986 3.55212.2677 1.34574.1303 2.74064-.3948 4.00834-.5251 1.2676-1.4143 2.3511-2.5551 3.1134-1.1409.7623-2.4822 1.1692-3.8543 1.1692-1.83925-.0022-3.60253-.7339-4.90308-2.0344-1.30055-1.3006-2.03218-3.0638-2.03442-4.9031z" fill="#fff"/></svg>
