<svg fill="currentColor" height="24" viewBox="0 0 24 24" width="24" xmlns="http://www.w3.org/2000/svg"><path d="m12 7.6875c-.853 0-1.6867.25292-2.39592.72678-.70919.47387-1.26193 1.14739-1.58834 1.93542-.3264.788-.4118 1.6551-.2454 2.4916.1664.8366.57712 1.605 1.18024 2.2081.60311.6031 1.37152 1.0138 2.20802 1.1802.8366.1664 1.7037.081 2.4917-.2454s1.4615-.8791 1.9354-1.5883.7268-1.543.7268-2.3959c-.0015-1.1433-.4563-2.23933-1.2648-3.04776-.8084-.80843-1.9044-1.26326-3.0477-1.26474zm0 7.5c-.6305 0-1.2467-.1869-1.7709-.5372-.52419-.3502-.93274-.8481-1.17399-1.4305-.24126-.5824-.30438-1.2233-.18139-1.8417.12299-.6183.42657-1.1862.87235-1.63201.44583-.44578 1.01373-.74936 1.63203-.87235s1.2592-.05986 1.8417.18139c.5824.24125 1.0802.6498 1.4305 1.17397.3502.5242.5372 1.1405.5372 1.7709 0 .8454-.3359 1.6561-.9336 2.2539-.5978.5978-1.4085.9336-2.2539.9336zm8.0625-2.9213c.0056-.1771.0056-.3553 0-.5325l1.4372-1.7962c.0549-.06877.0929-.14946.111-.23559.0181-.08614.0157-.17531-.007-.26035-.2248-.84743-.5615-1.66115-1.0012-2.41969-.0437-.07699-.1049-.14258-.1787-.19145s-.1581-.07964-.246-.0898l-2.2922-.25406c-.1206-.12938-.2456-.25438-.375-.375l-.255-2.29313c-.0102-.08792-.0409-.17221-.0898-.246-.0489-.0738-.1145-.13502-.1915-.17868-.7576-.43842-1.57-.77447-2.4159-.99938-.0852-.02228-.1745-.02421-.2607-.00565-.0861.01857-.1667.05711-.2352.11253l-1.8 1.44093c-.1772-.00562-.3553-.00562-.5325 0l-1.79252-1.44187c-.06877-.05494-.14946-.09297-.23559-.11104-.08614-.01808-.17531-.01569-.26035.00698-.84743.22486-1.66115.56157-2.41969 1.00125-.07699.04366-.14258.10488-.19145.17868-.04887.07379-.07964.15808-.0898.246l-.25031 2.29219c-.12938.12125-.25438.24625-.375.375l-2.29407.26063c-.08792.01016-.1722.04092-.246.08979-.07379.04887-.13501.11447-.17868.19146-.43842.75761-.77447 1.57-.99938 2.41593-.02174.08421-.02365.17232-.0056.25739.01806.08508.0556.16481.10967.23293l1.44093 1.8c-.00562.1772-.00562.3553 0 .5325l-1.44187 1.7972c-.05494.0687-.09297.1494-.11104.2356-.01808.0861-.01569.1753.00697.2603.22526.8458.56196 1.6579 1.00126 2.415.04366.077.10488.1426.17868.1915.07379.0488.15808.0796.246.0898l2.29219.254c.12125.1294.24625.2544.375.375l.26063 2.2903c.01016.088.04092.1723.08979.246.04887.0738.11447.1351.19146.1787.75761.4384 1.57.7745 2.41593.9994.08504.0227.17422.0251.26035.007.08614-.0181.16683-.0561.23559-.1111l1.7906-1.4362c.1772.0056.3553.0056.5325 0l1.801 1.4419c.0998.0796.2238.1229.3515.1228.0487-.0002.0973-.0065.1444-.0188.8458-.2252 1.6579-.5619 2.415-1.0012.077-.0437.1426-.1049.1915-.1787.0488-.0738.0796-.1581.0898-.246l.254-2.2922c.1294-.1206.2544-.2456.375-.375l2.2931-.255c.088-.0102.1722-.0409.246-.0898s.1351-.1145.1787-.1914c.4386-.7576.7747-1.57.9994-2.416.0227-.085.0251-.1742.007-.2603-.0181-.0862-.0561-.1669-.1111-.2356zm-.2906 3.9029-2.2163.2465c-.1385.016-.2661.0828-.3581.1875-.1853.2088-.3829.4063-.5916.5916-.1047.092-.1715.2196-.1875.3581l-.2465 2.2153c-.5189.2767-1.0641.501-1.6275.6694l-1.741-1.3931c-.0998-.0797-.2238-.123-.3515-.1228h-.0338c-.2785.0159-.5577.0159-.8362 0-.1392-.0086-.2765.0349-.3854.1218l-1.73996 1.3941c-.56291-.1694-1.10749-.3945-1.62563-.6722l-.24656-2.2144c-.01596-.1385-.08278-.2661-.1875-.3581-.20873-.1853-.40627-.3828-.59156-.5916-.09202-.1047-.21964-.1715-.35813-.1875l-2.21531-.2465c-.27642-.5174-.50065-1.061-.66938-1.6228l1.39313-1.741c.08695-.1089.13038-.2462.12188-.3853-.01594-.2785-.01594-.5577 0-.8362.0085-.1391-.03493-.2764-.12188-.3853l-1.39313-1.74004c.16936-.56291.39455-1.10749.67219-1.62563l2.21438-.24656c.13848-.01596.26611-.08278.35812-.1875.1853-.20873.38283-.40627.59156-.59156.10472-.09202.17154-.21964.1875-.35813l.24657-2.21531c.51738-.27642 1.061-.50065 1.62281-.66937l1.7409 1.39312c.1089.08695.2462.13038.3854.12188.2785-.01594.5577-.01594.8362 0 .1391.0085.2764-.03493.3853-.12188l1.74-1.39312c.5629.16935 1.1075.39454 1.6256.67218l.2466 2.21625c.016.13849.0828.26611.1875.35813.2087.18529.4063.38283.5916.59156.092.10472.2196.17154.3581.1875l2.2153.24656c.2763.51679.5005 1.05977.6694 1.62094l-1.3932 1.74098c-.0869.1089-.1303.2462-.1218.3853.0159.2785.0159.5577 0 .8362-.0085.1391.0349.2764.1218.3853l1.3932 1.74c-.1688.5629-.3933 1.1075-.6703 1.6257z"/></svg>
