<svg fill="currentColor" height="24" viewBox="0 0 24 24" width="24" xmlns="http://www.w3.org/2000/svg"><path d="m22.1475 10.1025-7.5-7.5c-.0787-.07857-.1789-.13206-.2879-.15372-.1091-.02167-.2221-.01053-.3248.03201-.1027.04253-.1905.11455-.2524.20696-.0618.09241-.0948.20107-.0949.31225v3.95625c-5.10751.33656-11.28658 5.15625-11.99345 11.31185-.02296.196.01653.3943.11283.5666.0963.1722.2445.3097.4235.3928.17899.0831.37965.1076.57339.07s.37067-.1354.50559-.2794c1.05563-1.1259 4.84688-4.7118 10.37814-4.9434v3.9253c.0001.1112.0331.2198.0949.3123.0619.0924.1497.1644.2524.2069.1027.0426.2157.0537.3248.032.109-.0216.2092-.0751.2879-.1537l7.5-7.5c.1053-.1055.1645-.2484.1645-.3975s-.0592-.292-.1645-.3975zm-7.335 6.54v-3.1425c0-.1492-.0593-.2923-.1648-.3977-.1055-.1055-.2485-.1648-.3977-.1648-2.5997 0-5.13376.6797-7.53001 2.0203-1.39667.7846-2.68318 1.7508-3.82594 2.8735.44062-2.49 1.89-4.875 4.125-6.7754 2.2125-1.87402 4.91435-2.9934 7.23095-2.9934.1492 0 .2922-.05926.3977-.16475s.1648-.24856.1648-.39775v-3.14156l6.1415 6.14156z" fill="#fff"/></svg>
