<svg fill="currentColor" height="24" viewBox="0 0 24 24" width="24" xmlns="http://www.w3.org/2000/svg"><path d="m16.5 15.1875c-.501-.0002-.9963.1055-1.4536.3103-.4572.2047-.866.5037-1.1995.8775l-4.58442-2.9466c.19785-.4503.30001-.9368.30001-1.4287s-.10216-.9784-.30001-1.4288l4.58442-2.94651c.598.66714 1.4256 1.08441 2.3176 1.16866.892.08424 1.783-.17072 2.4954-.71409s1.1939-1.33523 1.3486-2.21777c.1546-.88253-.029-1.79094-.5142-2.54416s-1.2364-1.29594-2.104-1.52001c-.8675-.22406-1.7876-.11301-2.5769.31103-.7892.42404-1.3898 1.12992-1.6818 1.97696-.2921.84704-.2543 1.77304.1059 2.59344l-4.58439 2.94656c-.48096-.53785-1.1139-.91699-1.81506-1.08723s-1.43749-.12356-2.11154.13386c-.67405.25741-1.25404.71344-1.66323 1.30772-.40919.59424-.62828 1.29884-.62828 2.02034s.21909 1.4261.62828 2.0203c.40919.5943.98918 1.0503 1.66323 1.3078.67405.2574 1.41038.3041 2.11154.1338.70116-.1702 1.3341-.5494 1.81506-1.0872l4.58439 2.9465c-.3078.703-.3803 1.4865-.2069 2.234.1735.7475.5836 1.4191 1.1695 1.9147.5859.4955 1.3161.7887 2.082.8359.7659.0471 1.5266-.1543 2.1688-.5743.6422-.4201 1.1316-1.0362 1.3954-1.7568s.2879-1.5071.0686-2.2425c-.2192-.7354-.67-1.3803-1.2853-1.8388s-1.3623-.7061-2.1296-.7059zm0-12.375c.4821 0 .9533.14296 1.3542.41079.4008.26784.7133.64852.8977 1.09392.1845.44539.2328.93549.1387 1.40832-.094.47283-.3262.90715-.667 1.24804-.3409.34089-.7753.57304-1.2481.66709s-.9629.04578-1.4083-.1387c-.4454-.18449-.8261-.49691-1.0939-.89776-.2679-.40084-.4108-.87211-.4108-1.3542 0-.64647.2568-1.26645.7139-1.72357s1.0771-.71393 1.7236-.71393zm-10.50002 11.625c-.48209 0-.95335-.143-1.3542-.4108-.40084-.2678-.71326-.6485-.89775-1.0939s-.23276-.9355-.13871-1.4083c.09405-.4729.3262-.9072.66709-1.2481.34089-.34086.77521-.57301 1.24804-.66707.47283-.09405.96293-.04578 1.40832.13871.4454.18449.82608.49696 1.09392.89776s.41079.8721.41079 1.3542c0 .6465-.2568 1.2665-.71392 1.7236s-1.07711.7139-1.72358.7139zm10.50002 6.75c-.4821 0-.9534-.143-1.3542-.4108-.4009-.2678-.7133-.6485-.8978-1.0939s-.2327-.9355-.1387-1.4083c.0941-.4729.3262-.9072.6671-1.2481s.7752-.573 1.2481-.6671c.4728-.094.9629-.0457 1.4083.1387.4454.1845.8261.497 1.0939.8978s.4108.8721.4108 1.3542c0 .3201-.0631.6371-.1856.9328s-.302.5644-.5283.7908c-.2264.2263-.4951.4059-.7908.5284-.2958.1225-.6127.1855-.9328.1855z" fill="#fff"/></svg>
