<svg width="24" height="25" viewBox="0 0 24 25" fill="none" xmlns="http://www.w3.org/2000/svg">
<path d="M19.5 4.44922H4.5C4.10218 4.44922 3.72064 4.60725 3.43934 4.88856C3.15804 5.16986 3 5.55139 3 5.94922V11.1992C3 16.1417 5.3925 19.137 7.39969 20.7795C9.56156 22.5477 11.7122 23.1477 11.8059 23.173C11.9348 23.208 12.0708 23.208 12.1997 23.173C12.2934 23.1477 14.4413 22.5477 16.6059 20.7795C18.6075 19.137 21 16.1417 21 11.1992V5.94922C21 5.55139 20.842 5.16986 20.5607 4.88856C20.2794 4.60725 19.8978 4.44922 19.5 4.44922ZM16.2825 10.9798L11.0325 16.2298C10.9628 16.2996 10.8801 16.3549 10.7891 16.3926C10.698 16.4304 10.6004 16.4498 10.5019 16.4498C10.4033 16.4498 10.3057 16.4304 10.2147 16.3926C10.1236 16.3549 10.0409 16.2996 9.97125 16.2298L7.72125 13.9798C7.58052 13.8391 7.50146 13.6482 7.50146 13.4492C7.50146 13.2502 7.58052 13.0593 7.72125 12.9186C7.86198 12.7779 8.05285 12.6988 8.25187 12.6988C8.4509 12.6988 8.64177 12.7779 8.7825 12.9186L10.5 14.6389L15.2194 9.91859C15.2891 9.84891 15.3718 9.79364 15.4628 9.75592C15.5539 9.71821 15.6515 9.6988 15.75 9.6988C15.8485 9.6988 15.9461 9.71821 16.0372 9.75592C16.1282 9.79364 16.2109 9.84891 16.2806 9.91859C16.3503 9.98828 16.4056 10.071 16.4433 10.162C16.481 10.2531 16.5004 10.3507 16.5004 10.4492C16.5004 10.5478 16.481 10.6453 16.4433 10.7364C16.4056 10.8274 16.3503 10.9102 16.2806 10.9798H16.2825Z" fill="url(#paint0_linear_4537_5306)"/>
<defs>
<linearGradient id="paint0_linear_4537_5306" x1="12" y1="4.44922" x2="12" y2="23.1993" gradientUnits="userSpaceOnUse">
<stop stop-color="#00FFCF"/>
<stop offset="1" stop-color="#4AA6FF"/>
</linearGradient>
</defs>
</svg>
