<svg width="20" height="20" viewBox="0 0 20 20" fill="none" xmlns="http://www.w3.org/2000/svg">
<path fill-rule="evenodd" clip-rule="evenodd" d="M9.69024 0.12402C9.88238 0.0142224 10.1183 0.0142224 10.3104 0.12402L19.6437 5.45735C19.8385 5.56863 19.9587 5.77572 19.9587 6V6.95986C19.9587 12.9845 15.9649 18.2792 10.172 19.9343C10.0598 19.9664 9.94085 19.9664 9.82862 19.9343C4.0358 18.2792 0.0419922 12.9845 0.0419922 6.95986V6C0.0419922 5.77572 0.162171 5.56863 0.356905 5.45735L9.69024 0.12402ZM15.0574 6.17863C15.327 6.39426 15.3707 6.78757 15.155 7.05711L9.8217 13.7238C9.7168 13.8549 9.56354 13.9383 9.39646 13.9552C9.22939 13.972 9.06255 13.921 8.93354 13.8135L4.93354 10.4801C4.66837 10.2592 4.63254 9.86506 4.85352 9.59989C5.0745 9.33472 5.4686 9.29889 5.73377 9.51987L9.24394 12.445L14.1789 6.27624C14.3946 6.0067 14.7879 5.963 15.0574 6.17863Z" fill="#183E4C"/>
</svg>
