<svg fill="currentColor" height="24" viewBox="0 0 24 24" width="24" xmlns="http://www.w3.org/2000/svg"><path d="m19.5 3.75h-15c-.39782 0-.77936.15804-1.06066.43934s-.43934.66284-.43934 1.06066v5.25c0 4.9425 2.3925 7.9378 4.39969 9.5803 2.16187 1.7681 4.31251 2.3681 4.40621 2.3935.1289.035.2649.035.3938 0 .0937-.0254 2.2416-.6254 4.4062-2.3935 2.0016-1.6425 4.3941-4.6378 4.3941-9.5803v-5.25c0-.39782-.158-.77936-.4393-1.06066s-.6629-.43934-1.0607-.43934zm0 6.75c0 3.4753-1.2806 6.2962-3.8063 8.3831-1.0994.9054-2.3497 1.6099-3.6937 2.0813-1.3264-.4632-2.5613-1.1552-3.64875-2.0447-2.55562-2.0906-3.85125-4.9228-3.85125-8.4197v-5.25h15zm-11.78063 2.7806c-.14073-.1407-.21979-.3316-.21979-.5306s.07906-.3899.21979-.5306c.14074-.1408.33161-.2198.53063-.2198s.38989.079.53063.2198l1.71937 1.7203 4.7194-4.72033c.0697-.06968.1524-.12495.2434-.16267.0911-.03771.1887-.05712.2872-.05712s.1961.01941.2872.05712c.091.03772.1737.09299.2434.16267.0697.06969.125.15241.1627.24346.0377.09104.0571.18862.0571.28717s-.0194.19613-.0571.2872c-.0377.091-.093.1737-.1627.2434l-5.25 5.25c-.0696.0698-.1523.1251-.2434.1628-.091.0378-.1886.0572-.2872.0572s-.1962-.0194-.2872-.0572c-.0911-.0377-.1738-.093-.24343-.1628z" fill="#fff"/></svg>
