<svg fill="currentColor" height="24" viewBox="0 0 24 24" width="24" xmlns="http://www.w3.org/2000/svg"><path d="m18.75 3.1875c-.1492 0-.2923.05926-.3978.16475-.1054.10549-.1647.24857-.1647.39775v6.8287l-11.49657-7.19058c-.19874-.12418-.4271-.19289-.66137-.19899-.23426-.0061-.46589.05063-.67082.16431-.20415.11078-.3744.2749-.49261.47483-.11822.19994-.17996.42821-.17864.66048v15.02245c-.00132.2323.06042.4606.17864.6605.11821.2.28846.3641.49261.4749.20493.1136.43656.1704.67082.1643.23427-.0061.46263-.0748.66137-.199l11.49657-7.1897v6.8278c0 .1492.0593.2923.1647.3977.1055.1055.2486.1648.3978.1648s.2922-.0593.3977-.1648c.1055-.1054.1648-.2485.1648-.3977v-16.5c0-.14918-.0593-.29226-.1648-.39775s-.2485-.16475-.3977-.16475zm-.645 8.9587-12.01126 7.5122c-.02809.0172-.06021.0267-.09312.0275-.03292.0008-.06547-.007-.09438-.0228-.02833-.0139-.05216-.0355-.06874-.0624s-.02525-.0579-.02501-.0895v-15.02245c-.00024-.03157.00843-.06257.02501-.08943.01658-.02687.04041-.04851.06874-.06245.02873-.0158.06096-.02418.09375-.02437.03328.00119.06564.01122.09375.02906l12.01126 7.51224c.0252.0151.0461.0366.0606.0622s.0221.0546.0221.084-.0076.0584-.0221.084-.0354.0471-.0606.0622z" fill="#fff"/></svg>
