<svg fill="currentColor" height="24" viewBox="0 0 24 24" width="24" xmlns="http://www.w3.org/2000/svg"><path d="m18.6412 3.35344c-.2049-.11368-.4365-.17041-.6708-.16431-.2342.0061-.4626.07481-.6613.19899l-11.4966 7.18968v-6.8278c0-.14918-.05926-.29226-.16475-.39775s-.24857-.16475-.39775-.16475-.29226.05926-.39775.16475-.16475.24857-.16475.39775v16.5c0 .1492.05926.2923.16475.3977.10549.1055.24857.1648.39775.1648s.29226-.0593.39775-.1648c.10549-.1054.16475-.2485.16475-.3977v-6.8287l11.4966 7.1906c.1987.1242.4271.1929.6613.199.2343.0061.4659-.0507.6708-.1643.2042-.1108.3745-.2749.4927-.4749.1182-.1999.1799-.4282.1786-.6605v-15.02245c.0013-.23227-.0604-.46054-.1786-.66048-.1182-.19993-.2885-.36405-.4927-.47483zm-.4537 16.15776c.0002.0316-.0084.0626-.025.0895s-.0404.0485-.0687.0624c-.029.0158-.0615.0236-.0944.0228s-.0651-.0103-.0932-.0275l-12.0112-7.5122c-.02524-.0151-.04612-.0366-.06062-.0622s-.02212-.0546-.02212-.084.00762-.0584.02212-.084.03538-.0471.06062-.0622l12.0112-7.51224c.0282-.01784.0605-.02787.0938-.02906.0328.00019.065.00857.0938.02437.0283.01394.0521.03558.0687.06245.0166.02686.0252.05786.025.08943z" fill="#fff"/></svg>
