<svg fill="currentColor" height="24" viewBox="0 0 24 24" width="24" xmlns="http://www.w3.org/2000/svg"><path d="m12 2.4375c-1.8913 0-3.74009.56083-5.31264 1.61157-1.57254 1.05074-2.79819 2.5442-3.52195 4.29152-.72377 1.74731-.91314 3.67001-.54416 5.52501.36897 1.8549 1.27971 3.5588 2.61705 4.8961s3.04121 2.2481 4.8962 2.6171c1.8549.3689 3.7776.1796 5.5249-.5442s3.2408-1.9494 4.2915-3.522c1.0508-1.5725 1.6116-3.4213 1.6116-5.3126-.003-2.53522-1.0114-4.96575-2.8041-6.75842-1.7926-1.79267-4.2232-2.8011-6.7584-2.80408zm0 18c-1.6688 0-3.30008-.4949-4.68762-1.422s-2.469-2.2449-3.10761-3.7866c-.63861-1.5418-.8057-3.2383-.48014-4.875.32556-1.63669 1.12916-3.14011 2.30916-4.32011 1.18001-1.18001 2.68343-1.9836 4.32011-2.30917 1.6367-.32556 3.3332-.15847 4.875.48015 1.5417.63861 2.8595 1.72007 3.7866 3.10761.9272 1.38754 1.422 3.01882 1.422 4.68762-.0025 2.237-.8922 4.3817-2.474 5.9635s-3.7265 2.4715-5.9635 2.474zm3-12.75c-.1492 0-.2923.05926-.3977.16475-.1055.10549-.1648.24857-.1648.39775v2.7347l-5.13937-3.21189c-.08516-.05322-.18302-.08268-.28341-.08531-.10039-.00262-.19965.02167-.28748.07037s-.16102.12002-.21197.20656-.0778.18514-.07777.28557v7.5c-.00003.1004.02682.199.07777.2856.05095.0865.12414.1578.21197.2065s.18709.073.28748.0704.19825-.0321.28341-.0853l5.13937-3.2119v2.7347c0 .1492.0593.2923.1648.3977.1054.1055.2485.1648.3977.1648s.2923-.0593.3978-.1648c.1054-.1054.1647-.2485.1647-.3977v-7.5c0-.14918-.0593-.29226-.1647-.39775-.1055-.10549-.2486-.16475-.3978-.16475zm-5.4375 7.0472v-5.46939l4.3763 2.73469z" fill="#fff"/></svg>
