<svg width="24" height="24" viewBox="0 0 24 24" xmlns="http://www.w3.org/2000/svg"><path d="M15 3.02344V20.9709C15.0023 21.1052 14.9697 21.2379 14.9055 21.3558C14.8412 21.4738 14.7475 21.5731 14.6334 21.6441C14.5038 21.7212 14.354 21.7574 14.2035 21.748C14.0529 21.7387 13.9087 21.6841 13.7897 21.5916L7.6425 16.8103C7.59793 16.7751 7.56195 16.7302 7.53726 16.6791C7.51258 16.6279 7.49984 16.5718 7.5 16.515V7.485C7.50017 7.42797 7.51335 7.37172 7.53853 7.32055C7.56371 7.26938 7.60023 7.22462 7.64531 7.18969L13.7925 2.40844C13.9272 2.30405 14.0935 2.24865 14.2639 2.25138C14.4343 2.2541 14.5987 2.31479 14.73 2.42344C14.8162 2.49753 14.8851 2.58969 14.9318 2.69337C14.9785 2.79706 15.0017 2.90975 15 3.02344ZM5.625 7.5H3C2.60218 7.5 2.22064 7.65803 1.93934 7.93934C1.65804 8.22064 1.5 8.60217 1.5 9V15C1.5 15.3978 1.65804 15.7794 1.93934 16.0607C2.22064 16.342 2.60218 16.5 3 16.5H5.625C5.72446 16.5 5.81984 16.4605 5.89016 16.3902C5.96049 16.3198 6 16.2245 6 16.125V7.875C6 7.77554 5.96049 7.68016 5.89016 7.60983C5.81984 7.53951 5.72446 7.5 5.625 7.5ZM17.5097 9.45375C17.4356 9.51883 17.3751 9.59788 17.3316 9.68637C17.2882 9.77485 17.2625 9.87105 17.2563 9.96944C17.25 10.0678 17.2632 10.1665 17.2951 10.2598C17.327 10.3531 17.377 10.4392 17.4422 10.5131C17.8039 10.924 18.0035 11.4526 18.0035 12C18.0035 12.5474 17.8039 13.076 17.4422 13.4869C17.3752 13.5605 17.3236 13.6466 17.2902 13.7404C17.2569 13.8341 17.2425 13.9335 17.248 14.0329C17.2535 14.1322 17.2786 14.2294 17.322 14.319C17.3655 14.4085 17.4262 14.4885 17.5009 14.5542C17.5755 14.62 17.6625 14.6703 17.7567 14.7022C17.851 14.734 17.9506 14.7468 18.0498 14.7398C18.1491 14.7328 18.2459 14.7061 18.3347 14.6613C18.4236 14.6164 18.5026 14.5544 18.5672 14.4788C19.1704 13.7939 19.5032 12.9126 19.5032 12C19.5032 11.0874 19.1704 10.2061 18.5672 9.52125C18.5021 9.44705 18.423 9.38643 18.3344 9.34286C18.2458 9.2993 18.1495 9.27364 18.051 9.26737C17.9525 9.2611 17.8538 9.27434 17.7604 9.30632C17.667 9.3383 17.5809 9.3884 17.5069 9.45375H17.5097ZM21.3431 7.00031C21.2786 6.92318 21.1992 6.85981 21.1097 6.81398C21.0202 6.76815 20.9223 6.74079 20.822 6.73353C20.7217 6.72627 20.621 6.73927 20.5258 6.77173C20.4306 6.8042 20.3429 6.85548 20.2679 6.92252C20.193 6.98956 20.1323 7.071 20.0894 7.16198C20.0465 7.25297 20.0224 7.35164 20.0185 7.45214C20.0145 7.55263 20.0308 7.65289 20.0664 7.74696C20.102 7.84102 20.1561 7.92697 20.2256 7.99969C21.2097 9.09977 21.7538 10.524 21.7538 12C21.7538 13.476 21.2097 14.9002 20.2256 16.0003C20.1561 16.073 20.102 16.159 20.0664 16.253C20.0308 16.3471 20.0145 16.4474 20.0185 16.5479C20.0224 16.6484 20.0465 16.747 20.0894 16.838C20.1323 16.929 20.193 17.0104 20.2679 17.0775C20.3429 17.1445 20.4306 17.1958 20.5258 17.2283C20.621 17.2607 20.7217 17.2737 20.822 17.2665C20.9223 17.2592 21.0202 17.2319 21.1097 17.186C21.1992 17.1402 21.2786 17.0768 21.3431 16.9997C22.5728 15.6247 23.2527 13.8447 23.2527 12C23.2527 10.1553 22.5728 8.37533 21.3431 7.00031Z"/></svg>
