<svg fill="currentColor" height="24" viewBox="0 0 24 24" width="24" xmlns="http://www.w3.org/2000/svg"><path d="m12.5625 3v3c0 .14918-.0593.29226-.1648.39775-.1054.10549-.2485.16475-.3977.16475s-.2923-.05926-.3977-.16475c-.1055-.10549-.1648-.24857-.1648-.39775v-3c0-.14918.0593-.29226.1648-.39775.1054-.10549.2485-.16475.3977-.16475s.2923.05926.3977.16475c.1055.10549.1648.24857.1648.39775zm8.4375 8.4375h-3c-.1492 0-.2923.0593-.3977.1648-.1055.1054-.1648.2485-.1648.3977s.0593.2923.1648.3977c.1054.1055.2485.1648.3977.1648h3c.1492 0 .2923-.0593.3977-.1648.1055-.1054.1648-.2485.1648-.3977s-.0593-.2923-.1648-.3977c-.1054-.1055-.2485-.1648-.3977-.1648zm-4.3594 4.4063c-.1056-.1057-.249-.1651-.3984-.1651-.1495 0-.2928.0594-.3984.1651-.1057.1056-.1651.2489-.1651.3984 0 .1494.0594.2928.1651.3984l2.1215 2.1206c.1066.0994.2477.1535.3934.1509.1457-.0025.2848-.0616.3878-.1646.1031-.1031.1621-.2421.1647-.3879.0026-.1457-.0515-.2867-.1509-.3934zm-4.6406 1.5937c-.1492 0-.2923.0593-.3977.1648-.1055.1054-.1648.2485-.1648.3977v3c0 .1492.0593.2923.1648.3977.1054.1055.2485.1648.3977.1648s.2923-.0593.3977-.1648c.1055-.1054.1648-.2485.1648-.3977v-3c0-.1492-.0593-.2923-.1648-.3977-.1054-.1055-.2485-.1648-.3977-.1648zm-4.64062-1.5937-2.12063 2.1224c-.05526.0515-.09959.1136-.13034.1826-.03074.069-.04727.1435-.0486.2191-.00134.0755.01256.1505.04085.2205.02829.0701.0704.1337.12381.1871.05342.0534.11704.0956.18708.1238.07004.0283.14506.0422.22059.0409s.15001-.0179.21901-.0486c.069-.0308.1311-.0751.1826-.1304l2.1225-2.1206c.05232-.0523.09383-.1144.12215-.1828.02831-.0683.04289-.1416.04289-.2156s-.01458-.1473-.04289-.2156c-.02832-.0684-.06983-.1305-.12215-.1828-.05232-.0524-.11444-.0939-.1828-.1222-.06837-.0283-.14164-.0429-.21564-.0429-.07399 0-.14727.0146-.21563.0429s-.13048.0698-.1828.1222zm-.79688-3.8438c0-.1492-.05926-.2923-.16475-.3977-.10549-.1055-.24857-.1648-.39775-.1648h-3c-.14918 0-.29226.0593-.39775.1648-.10549.1054-.16475.2485-.16475.3977s.05926.2923.16475.3977c.10549.1055.24857.1648.39775.1648h3c.14918 0 .29226-.0593.39775-.1648.10549-.1054.16475-.2485.16475-.3977zm-.52875-6.76125c-.10663-.09936-.24767-.15345-.39339-.15088-.14573.00257-.28477.0616-.38783.16466s-.16209.2421-.16466.38783c-.00257.14572.05152.28676.15088.39339l2.12063 2.1225c.10567.10567.24899.16504.39843.16504.14945 0 .29277-.05937.39844-.16504s.16504-.24899.16504-.39844c0-.14944-.05937-.29276-.16504-.39843z" fill="#fff"/></svg>
