<svg fill="currentColor" height="24" viewBox="0 0 24 24" width="24" xmlns="http://www.w3.org/2000/svg"><path d="m22.2469 9.17813c-.0774-.24589-.2266-.46299-.4285-.62337-.2018-.16039-.447-.25673-.704-.27663l-5.5744-.48188c-.0337-.00331-.0659-.01569-.0931-.03583s-.0485-.04728-.0616-.07854l-2.1778-5.19c-.1008-.23676-.2691-.43865-.4838-.58055s-.4663-.21756-.7237-.21756c-.2573 0-.509.07566-.7237.21756s-.3829.34379-.4838.58055l-2.17778 5.19c-.01305.03126-.03432.0584-.06156.07854s-.05942.03252-.09313.03583l-5.57438.48188c-.25702.0199-.50221.11624-.70403.27663-.20182.16038-.35104.37748-.42847.62337-.082.24623-.08916.51125-.02058.76155.06858.25032.20983.47462.4059.64472l4.22906 3.689c.02589.023.04513.0526.05568.0856.01056.033.01205.0682.00432.1019l-1.27125 5.4854c-.05926.2525-.04235.5169.04858.7599.09094.2429.25183.4535.46236.6051.20725.1529.4556.2401.71295.2505.25736.0104.51192-.0567.7308-.1924l4.79153-2.9063c.0282-.0174.0607-.0266.0938-.0266s.0656.0092.0937.0266l4.7916 2.9063c.2211.1354.4775.2022.7366.1921s.5094-.0968.7193-.249c.2099-.1523.37-.3633.4601-.6064.0901-.2432.1062-.5076.0462-.7598l-1.2675-5.4872c-.0078-.0338-.0063-.069.0043-.102s.0298-.0625.0557-.0855l4.229-3.6891c.1951-.1703.3354-.3946.4033-.64446.0679-.2499.0603-.51429-.0217-.75991zm-1.125.555-4.2291 3.68907c-.1802.1568-.3142.3598-.3875.5871-.0734.2273-.0833.4703-.0287.7029l1.2675 5.4872c.0094.0368.0073.0757-.0059.1114-.0133.0356-.037.0664-.0682.0883-.0282.0225-.0628.0355-.0989.037-.0361.0016-.0717-.0085-.1017-.0286l-4.7916-2.9062c-.2042-.1242-.4387-.1899-.6778-.1899-.239 0-.4735.0657-.6778.1899l-4.79155 2.9062c-.02998.0201-.06561.0302-.10169.0286-.03608-.0015-.07074-.0145-.09893-.037-.03115-.0219-.05491-.0527-.06814-.0883-.01323-.0357-.01529-.0746-.00592-.1114l1.2675-5.4872c.05456-.2326.04464-.4756-.02871-.7029s-.20735-.4303-.38754-.5871l-4.22907-3.68907c-.02892-.0246-.04969-.0574-.05957-.09406s-.00839-.07546.00426-.11125c.00947-.03565.03-.06738.05863-.09063.02864-.02324.06391-.03681.10075-.03875l5.57531-.48187c.23868-.02034.46725-.10561.66093-.24657.19368-.14097.34509-.33225.43782-.55312l2.17782-5.19c.0151-.03221.0391-.05945.0692-.07853.03-.01908.0649-.02921.1005-.02921s.0704.01013.1005.02921c.03.01908.054.04632.0692.07853l2.1703 5.19c.0924.22034.2432.41127.4362.5522.193.14092.4208.22649.6588.24749l5.5753.48187c.0368.00194.0721.01551.1007.03875.0287.02325.0492.05498.0587.09063.0131.03543.0151.07399.0059.11062-.0092.03664-.0292.06964-.0575.09469z" fill="#fff"/></svg>
