<svg fill="currentColor" height="24" viewBox="0 0 24 24" width="24" xmlns="http://www.w3.org/2000/svg"><path d="m18.8184 3.9375h-13.63684c-.32987.00025-.64616.1314-.87941.36465s-.3644.54954-.36465.87941v13.63684c.00025.3299.1314.6462.36465.8794.23325.2333.54954.3645.87941.3647h13.63684c.3299-.0002.6462-.1314.8794-.3647.2333-.2332.3645-.5495.3647-.8794v-13.63684c-.0002-.32987-.1314-.64616-.3647-.87941-.2332-.23325-.5495-.3644-.8794-.36465zm.1191 14.8809c0 .0316-.0125.0619-.0349.0842-.0223.0224-.0526.0349-.0842.0349h-13.63684c-.03157 0-.06186-.0125-.08419-.0349-.02233-.0223-.03487-.0526-.03487-.0842v-13.63684c0-.03157.01254-.06186.03487-.08419s.05262-.03487.08419-.03487h13.63684c.0316 0 .0619.01254.0842.03487.0224.02233.0349.05262.0349.08419z" fill="#fff"/></svg>
