<svg fill="currentColor" height="24" viewBox="0 0 24 24" width="24" xmlns="http://www.w3.org/2000/svg"><path d="m21.7959 7.635c-.1935-.2192-.4314-.39475-.6979-.51501-.2665-.12025-.5556-.18246-.848-.18249h-5.4375v-1.6875c0-.94483-.3753-1.85097-1.0434-2.51907s-1.5743-1.04343-2.5191-1.04343c-.1046-.00003-.207.02908-.296.08406-.0889.05497-.1607.13365-.2074.22719l-3.59441 7.18875h-4.15219c-.3481 0-.68194.13828-.92808.38442s-.38442.57998-.38442.92808v8.25c0 .3481.13828.6819.38442.9281.24614.2461.57998.3844.92808.3844h16.125c.5027 0 .9881-.1836 1.3649-.5162.3769-.3327.6193-.7916.6817-1.2904l1.125-8.99996c.0362-.29024.0103-.58486-.076-.86433-.0863-.27946-.2311-.53737-.4247-.75661zm-18.9834 11.115v-8.25c0-.0497.01975-.0974.05492-.1326.03516-.0351.08285-.0549.13258-.0549h3.9375v8.625h-3.9375c-.04973 0-.09742-.0198-.13258-.0549-.03517-.0352-.05492-.0829-.05492-.1326zm18.3675-9.63375-1.125 9.00005c-.0283.2266-.1385.4352-.3097.5864-.1713.1512-.3918.2347-.6203.2348h-11.0625v-9.05437l3.5231-7.04719c.5827.081 1.1164.37 1.5027.81368s.5991 1.01209.5992 1.60038v2.25c0 .14918.0593.29226.1648.39775.1054.10549.2485.16475.3977.16475h6c.1329.00004.2643.02833.3854.08301.1212.05468.2293.13449.3172.23414.088.09965.1537.21685.1929.34385.0392.12699.051.26087.0345.39275z" fill="#fff"/></svg>
