<svg fill="currentColor" height="24" viewBox="0 0 24 24" width="24" xmlns="http://www.w3.org/2000/svg"><path d="m22.2966 14.7441-1.125-9.00004c-.0624-.4988-.3048-.95764-.6817-1.29031-.3768-.33267-.8622-.51625-1.3649-.51625h-16.125c-.3481 0-.68194.13828-.92808.38442s-.38442.57998-.38442.92808v8.25c0 .3481.13828.6819.38442.9281.24614.2461.57998.3844.92808.3844h4.15219l3.59441 7.1887c.0467.0936.1185.1723.2074.2272.089.055.1914.0841.296.0841.9448 0 1.851-.3753 2.5191-1.0434s1.0434-1.5743 1.0434-2.5191v-1.6875h5.4375c.2925 0 .5816-.0622.8482-.1825.2665-.1202.5045-.2958.6981-.5151.1935-.2192.3382-.4771.4245-.7566.0862-.2794.1121-.574.0758-.8642zm-15.3591-1.0566h-3.9375c-.04973 0-.09742-.0198-.13258-.0549-.03517-.0352-.05492-.0829-.05492-.1326v-8.25c0-.04973.01975-.09742.05492-.13258.03516-.03517.08285-.05492.13258-.05492h3.9375zm14.0156 1.9331c-.0876.1002-.1957.1804-.317.235-.1214.0547-.253.0826-.3861.0819h-6c-.1492 0-.2923.0593-.3977.1648-.1055.1054-.1648.2485-.1648.3977v2.25c-.0001.5883-.2129 1.1567-.5992 1.6004s-.92.7327-1.5027.8137l-3.5231-7.0472v-9.0544h11.0625c.2285.00006.449.08355.6203.23478.1712.15122.2814.35977.3097.58647l1.125 8.99995c.0173.132.0059.266-.0332.3932-.0392.1271-.1052.2444-.1937.3437z" fill="#fff"/></svg>
