<svg width="24" height="24" viewBox="0 0 24 24" fill="currentColor" xmlns="http://www.w3.org/2000/svg"><path d="M20.25 4.688h-3.937V3.75a2.06 2.06 0 0 0-2.063-2.062h-4.5A2.063 2.063 0 0 0 7.688 3.75v.938H3.75a.563.563 0 1 0 0 1.125h.938V19.5A1.313 1.313 0 0 0 6 20.813h12a1.313 1.313 0 0 0 1.313-1.313V5.813h.937a.562.562 0 1 0 0-1.125M8.813 3.75a.937.937 0 0 1 .937-.937h4.5a.937.937 0 0 1 .938.937v.938H8.811zm9.375 15.75a.19.19 0 0 1-.188.188H6a.19.19 0 0 1-.187-.188V5.813h12.375zm-7.875-9.75v6a.562.562 0 1 1-1.126 0v-6a.563.563 0 1 1 1.126 0m4.5 0v6a.562.562 0 1 1-1.126 0v-6a.563.563 0 0 1 1.126 0"/></svg>
