<svg fill="currentColor" height="24" viewBox="0 0 24 24" width="24" xmlns="http://www.w3.org/2000/svg"><path d="m20.8125 14.25v5.25c0 .3481-.1383.6819-.3844.9281-.2462.2461-.58.3844-.9281.3844h-15c-.3481 0-.68194-.1383-.92808-.3844-.24614-.2462-.38442-.58-.38442-.9281v-5.25c0-.1492.05926-.2923.16475-.3978.10549-.1054.24857-.1647.39775-.1647s.29226.0593.39775.1647c.10549.1055.16475.2486.16475.3978v5.25c0 .0497.01975.0974.05492.1326.03516.0351.08285.0549.13258.0549h15c.0497 0 .0974-.0198.1326-.0549.0351-.0352.0549-.0829.0549-.1326v-5.25c0-.1492.0593-.2923.1648-.3978.1054-.1054.2485-.1647.3977-.1647s.2923.0593.3977.1647c.1055.1055.1648.2486.1648.3978zm-12.165-6.35251 2.79-2.78906v9.14157c0 .1492.0593.2923.1648.3977.1054.1055.2485.1648.3977.1648s.2923-.0593.3977-.1648c.1055-.1054.1648-.2485.1648-.3977v-9.14157l2.79 2.78906c.1066.09936.2477.15346.3934.15088.1457-.00257.2848-.0616.3878-.16466.1031-.10306.1621-.2421.1647-.38783.0026-.14572-.0515-.28676-.1509-.39339l-3.75-3.75c-.1055-.10533-.2484-.1645-.3975-.1645s-.292.05917-.3975.1645l-3.75 3.75c-.09936.10663-.15345.24767-.15088.39339.00257.14573.0616.28477.16466.38783s.2421.16209.38783.16466c.14572.00258.28676-.05152.39339-.15088z" fill="#fff"/></svg>
