<svg width="20" height="20" viewBox="0 0 20 20" fill="none" xmlns="http://www.w3.org/2000/svg">
<circle cx="10" cy="10" r="10" fill="#009393"/>
<g clip-path="url(#clip0_998_104504)">
<path d="M10.01 10.0432C11.4447 10.0432 12.6439 9.79753 12.9374 9.46941C12.6885 9.19116 11.7883 8.97218 10.6455 8.91205V9.60519C10.4407 9.61597 10.2281 9.62165 10.01 9.62165C9.79191 9.62165 9.57928 9.61597 9.37444 9.60519V8.91205C8.23162 8.97218 7.33143 9.19116 7.08257 9.46941C7.37605 9.79753 8.57524 10.0432 10.01 10.0432Z" fill="white"/>
<path fill-rule="evenodd" clip-rule="evenodd" d="M6.70751 5.2605H13.4274C13.5877 5.2605 13.7359 5.34618 13.8158 5.48518L15.7736 8.8883C15.8751 9.06478 15.845 9.28754 15.7002 9.43065L10.3113 14.7561C10.1368 14.9286 9.85594 14.9286 9.68137 14.7561L4.29983 9.43784C4.15164 9.2914 4.1239 9.06215 4.23286 8.88458L6.32557 5.47426C6.40707 5.34144 6.5517 5.2605 6.70751 5.2605ZM12.5597 6.77987V7.73474H10.6455V8.39678C11.9899 8.46753 12.9986 8.7581 13.0061 9.10638L13.0061 9.83244C12.9986 10.1807 11.9899 10.4713 10.6455 10.542V12.1668H9.37444V10.542C8.03002 10.4713 7.02135 10.1807 7.01387 9.83244L7.01391 9.10638C7.02139 8.7581 8.03002 8.46753 9.37444 8.39678V7.73474H7.46022V6.77987H12.5597Z" fill="white"/>
</g>
<defs>
<clipPath id="clip0_998_104504">
<rect width="11.6667" height="11.6667" fill="white" transform="translate(4.16666 4.16675)"/>
</clipPath>
</defs>
</svg>
