<svg width="61" height="60" viewBox="0 0 61 60" fill="none" xmlns="http://www.w3.org/2000/svg">
<rect x="0.5" width="60" height="60" rx="30" fill="#8E4268"/>
<path d="M42.3618 28.3813C42.0907 27.5612 41.7362 26.9421 41.3002 26.5004C40.7078 25.9004 39.9217 25.584 38.8519 25.584C37.77 25.584 36.8298 25.908 36.165 26.5168C35.5066 27.1198 35.0719 28.0443 35.0719 29.3426C35.0719 30.5774 35.6498 31.3822 36.4005 32.3388L36.5063 32.4733C37.2277 33.3895 38.0618 34.4489 38.3711 36.0675C38.6012 37.2717 38.4376 38.7852 38.1126 40.1638C38.0587 40.3922 38 40.6188 37.9372 40.8416M42.75 31.3791C42.75 28.9812 42.0274 26.751 40.7869 24.8923C38.6957 21.7532 35.2131 19.6482 31.0606 19.6336C31.0196 19.6332 30.9786 19.633 30.9375 19.633C30.9187 19.633 30.9 19.633 30.8813 19.6331C24.5936 19.5944 19.5996 16.8871 19.5996 16.8871C19.4856 16.8332 19.3736 16.9711 19.4517 17.0697L21.9183 20.1847C21.9734 20.2542 21.9342 20.357 21.8466 20.3729L19.6796 20.7647C19.5827 20.7822 19.5486 20.903 19.6222 20.968L21.4244 22.5609C21.49 22.6189 21.4713 22.7253 21.3897 22.7577L19.9959 23.3121C19.9092 23.3466 19.8951 23.4628 19.9711 23.5168L21.2629 24.4343C21.3147 24.4711 21.3276 24.5417 21.2936 24.5944C21.2926 24.596 21.2916 24.5975 21.2905 24.599C19.9266 26.5143 19.125 28.8537 19.125 31.3792C19.125 37.8662 24.4136 43.125 30.9375 43.125C33.0248 43.125 34.9856 42.5867 36.6873 41.642C40.3041 39.6342 42.75 35.7907 42.75 31.3791ZM30.1607 30.3782C30.0407 30.5607 29.8056 30.615 29.5927 30.5619C29.2238 30.47 28.7843 30.4167 28.3125 30.4167C27.8407 30.4167 27.4012 30.47 27.0323 30.5619C26.8193 30.615 26.5843 30.5607 26.4643 30.3782C26.1424 29.8888 25.95 29.2685 25.95 28.5938C25.95 27.0117 27.0077 25.7291 28.3125 25.7291C29.6173 25.7291 30.675 27.0117 30.675 28.5938C30.675 29.2685 30.4826 29.8888 30.1607 30.3782Z" stroke="white"/>
</svg>
