<svg width="20" height="21" viewBox="0 0 20 21" fill="none" xmlns="http://www.w3.org/2000/svg">
<path fill-rule="evenodd" clip-rule="evenodd" d="M17.047 1.57943C16.9798 1.42969 16.831 1.33334 16.6669 1.33334C16.5028 1.33334 16.3539 1.42969 16.2867 1.57943L15.4702 3.39923L13.8854 2.85587C13.7391 2.80571 13.577 2.84071 13.4645 2.94677C13.3519 3.05283 13.3074 3.21252 13.3488 3.36153L14.321 6.86153C14.3711 7.04187 14.5353 7.16668 14.7225 7.16668H18.6113C18.7985 7.16668 18.9627 7.04187 19.0128 6.86153L19.985 3.36153C20.0264 3.21252 19.9819 3.05283 19.8693 2.94677C19.7567 2.84071 19.5947 2.80571 19.4484 2.85587L17.8636 3.39923L17.047 1.57943ZM16.0748 4.08726L16.6669 2.76778L17.259 4.08726C17.3471 4.28375 17.5705 4.38067 17.7742 4.31082L18.9704 3.90073L18.2946 6.33334H15.0392L14.3634 3.90073L15.5595 4.31082C15.7633 4.38067 15.9867 4.28375 16.0748 4.08726ZM17.0151 8.97786C17.0871 8.87663 17.1965 8.80816 17.319 8.78751C17.4416 8.76693 17.5673 8.79587 17.6685 8.86794C17.7697 8.94002 17.8382 9.04935 17.8588 9.17189C18.0782 10.4753 17.9699 11.8128 17.5438 13.064C17.1176 14.3151 16.3869 15.4406 15.4174 16.3391C15.3659 16.5039 15.2854 16.6102 15.2346 16.5039C14.2217 17.3873 13.0017 18.0002 11.6882 18.2854C10.3748 18.5706 9.01053 18.519 7.72239 18.1354C6.43424 17.7517 5.26407 17.0485 4.32074 16.091C3.3774 15.1336 2.69156 13.9532 2.32702 12.6595C1.96247 11.3658 1.93108 10.0009 2.23575 8.69184C2.54042 7.38276 3.17125 6.17201 4.06956 5.17223C4.96788 4.17245 6.10448 3.41614 7.37362 2.97365C8.64276 2.53116 10.0032 2.41687 11.3284 2.64142C11.39 2.65064 11.4491 2.67206 11.5024 2.70441C11.5556 2.73676 11.6019 2.77941 11.6385 2.82984C11.675 2.88028 11.7012 2.9375 11.7154 2.99816C11.7296 3.05883 11.7315 3.12171 11.7212 3.18314C11.7108 3.24456 11.6882 3.30331 11.6549 3.35593C11.6215 3.40855 11.578 3.454 11.5269 3.48961C11.4758 3.52522 11.4181 3.55029 11.3572 3.56334C11.2963 3.5764 11.2334 3.57718 11.1721 3.56564C10.7848 3.50127 10.3929 3.46887 10.0003 3.46876C8.62794 3.46834 7.28553 3.86974 6.1387 4.62341C4.99187 5.37708 4.09081 6.45004 3.54671 7.70989C3.00261 8.96973 2.83929 10.3613 3.07691 11.7129C3.31453 13.0645 3.94268 14.3169 4.88385 15.3156C5.62035 14.1704 6.72124 13.3068 8.00885 12.8641C7.36679 12.4364 6.87939 11.8135 6.6187 11.0875C6.35801 10.3614 6.33787 9.57075 6.56126 8.83237C6.78466 8.09398 7.23972 7.44708 7.85918 6.98731C8.47864 6.52754 9.2296 6.2793 10.001 6.2793C10.7725 6.2793 11.5234 6.52754 12.1429 6.98731C12.7623 7.44708 13.2174 8.09398 13.4408 8.83237C13.6642 9.57075 13.6441 10.3614 13.3834 11.0875C13.1227 11.8135 12.6353 12.4364 11.9932 12.8641C13.2808 13.3068 14.3817 14.1704 15.1182 15.3156C16.3482 14.0141 17.0328 12.2908 17.0315 10.5C17.0314 10.1071 16.999 9.71492 16.9346 9.32735C16.9141 9.2048 16.943 9.07909 17.0151 8.97786ZM7.79166 8.39928C7.49979 8.83609 7.344 9.34965 7.344 9.87501C7.344 10.5795 7.62386 11.2551 8.122 11.7533C8.62014 12.2514 9.29577 12.5313 10.0003 12.5313C10.5256 12.5313 11.0392 12.3755 11.476 12.0836C11.9128 11.7917 12.2533 11.3769 12.4543 10.8915C12.6554 10.4061 12.708 9.87206 12.6055 9.3568C12.503 8.84154 12.25 8.36824 11.8785 7.99676C11.507 7.62527 11.0337 7.37229 10.5185 7.2698C10.0032 7.16731 9.46912 7.21991 8.98375 7.42096C8.49838 7.622 8.08353 7.96246 7.79166 8.39928ZM7.46206 14.1379C6.68777 14.5757 6.03993 15.2065 5.5815 15.9688C6.83122 16.9822 8.39129 17.5352 10.0003 17.5352C11.6092 17.5352 13.1693 16.9822 14.419 15.9688C13.9606 15.2065 13.3127 14.5757 12.5385 14.1379C11.7642 13.7 10.8898 13.4699 10.0003 13.4699C9.11073 13.4699 8.23634 13.7 7.46206 14.1379Z" fill="white"/>
</svg>
