<svg width="20" height="20" viewBox="0 0 20 20" fill="none" xmlns="http://www.w3.org/2000/svg">
<path d="M13.2808 4.37501C13.2808 4.25069 13.3302 4.13146 13.4181 4.04355C13.506 3.95564 13.6252 3.90626 13.7495 3.90626H17.4995C17.6239 3.90626 17.7431 3.95564 17.831 4.04355C17.9189 4.13146 17.9683 4.25069 17.9683 4.37501C17.9683 4.49933 17.9189 4.61856 17.831 4.70646C17.7431 4.79437 17.6239 4.84376 17.4995 4.84376H13.7495C13.6252 4.84376 13.506 4.79437 13.4181 4.70646C13.3302 4.61856 13.2808 4.49933 13.2808 4.37501ZM17.5144 7.34376C18.0953 8.99071 18.1186 10.783 17.5806 12.4445C17.0426 14.106 15.9732 15.5444 14.5371 16.5382C13.1011 17.5321 11.378 18.0261 9.63356 17.9442C7.88907 17.8623 6.21991 17.2091 4.88326 16.0851C3.5466 14.9611 2.61664 13.4288 2.23664 11.7242C1.85665 10.0196 2.04771 8.23741 2.78039 6.65213C3.51307 5.06684 4.74671 3.76647 6.29123 2.95136C7.83576 2.13626 9.60546 1.85166 11.3277 2.14141C11.3893 2.15064 11.4484 2.17206 11.5017 2.20441C11.5549 2.23676 11.6012 2.2794 11.6377 2.32984C11.6743 2.38028 11.7005 2.4375 11.7147 2.49816C11.7289 2.55882 11.7308 2.62171 11.7204 2.68313C11.7101 2.74456 11.6875 2.8033 11.6542 2.85593C11.6208 2.90855 11.5773 2.95399 11.5262 2.98961C11.4751 3.02522 11.4174 3.05029 11.3565 3.06334C11.2956 3.07639 11.2326 3.07717 11.1714 3.06563C10.7841 3.00127 10.3922 2.96887 9.99955 2.96876C8.6271 2.96803 7.28448 3.36921 6.13741 4.12276C4.99034 4.87631 4.08904 5.94926 3.54475 7.20916C3.00046 8.46907 2.83701 9.86077 3.07457 11.2125C3.31214 12.5642 3.94032 13.8168 4.88158 14.8156C5.61808 13.6704 6.71897 12.8068 8.00658 12.3641C7.36452 11.9364 6.87712 11.3135 6.61643 10.5875C6.35574 9.86142 6.3356 9.07074 6.55899 8.33236C6.78239 7.59398 7.23745 6.94708 7.85691 6.4873C8.47636 6.02753 9.22733 5.7793 9.99876 5.7793C10.7702 5.7793 11.5212 6.02753 12.1406 6.4873C12.7601 6.94708 13.2151 7.59398 13.4385 8.33236C13.6619 9.07074 13.6418 9.86142 13.3811 10.5875C13.1204 11.3135 12.633 11.9364 11.991 12.3641C13.2786 12.8068 14.3794 13.6704 15.116 14.8156C16.0013 13.8763 16.611 12.7114 16.8782 11.4485C17.1454 10.1857 17.0598 8.87368 16.6308 7.65626C16.6085 7.59785 16.5982 7.53557 16.6004 7.4731C16.6025 7.41063 16.6172 7.34922 16.6434 7.29249C16.6697 7.23576 16.707 7.18485 16.7532 7.14276C16.7994 7.10068 16.8536 7.06826 16.9125 7.04741C16.9715 7.02657 17.034 7.01773 17.0964 7.0214C17.1588 7.02507 17.2198 7.04119 17.2759 7.0688C17.332 7.09641 17.382 7.13496 17.4229 7.18218C17.4639 7.2294 17.495 7.28434 17.5144 7.34376ZM9.99955 12.0313C10.5249 12.0313 11.0385 11.8755 11.4753 11.5836C11.9121 11.2917 12.2526 10.8769 12.4536 10.3915C12.6546 9.90614 12.7072 9.37206 12.6048 8.8568C12.5023 8.34154 12.2493 7.86824 11.8778 7.49675C11.5063 7.12527 11.033 6.87229 10.5178 6.7698C10.0025 6.6673 9.46841 6.71991 8.98304 6.92095C8.49768 7.122 8.08283 7.46246 7.79095 7.89927C7.49908 8.33609 7.3433 8.84965 7.3433 9.37501C7.3433 10.0795 7.62315 10.7551 8.12129 11.2533C8.61944 11.7514 9.29506 12.0313 9.99955 12.0313ZM9.99955 17.0313C11.6083 17.0338 13.1687 16.482 14.4183 15.4688C13.9599 14.7065 13.312 14.0757 12.5377 13.6379C11.7635 13.2 10.8891 12.9699 9.99955 12.9699C9.11002 12.9699 8.23563 13.2 7.46135 13.6379C6.68706 14.0757 6.03923 14.7065 5.5808 15.4688C6.83035 16.482 8.39082 17.0338 9.99955 17.0313Z" fill="#FF6D6D"/>
</svg>
