<svg fill="currentColor" height="13" viewBox="0 0 15 13" width="15" xmlns="http://www.w3.org/2000/svg"><path d="m3.375.5c.65625 0 1.26562.375 1.61719.9375.32812.58594.32812 1.3125 0 1.875-.35157.58594-.96094.9375-1.61719.9375-.67969 0-1.28906-.35156-1.64062-.9375-.32813-.5625-.32813-1.28906 0-1.875.35156-.5625.96093-.9375 1.64062-.9375zm8.625 0c.6562 0 1.2656.375 1.6172.9375.3281.58594.3281 1.3125 0 1.875-.3516.58594-.961.9375-1.6172.9375-.6797 0-1.2891-.35156-1.6406-.9375-.3282-.5625-.3282-1.28906 0-1.875.3515-.5625.9609-.9375 1.6406-.9375zm-12 7.00781c0-1.38281 1.10156-2.50781 2.48438-2.50781h1.00781c.375 0 .72656.09375 1.05469.23438-.04688.16406-.04688.35156-.04688.51562 0 .91406.375 1.71094 1.00781 2.25 0 0 0 0-.02343 0h-4.992192c-.28125 0-.492188-.21094-.492188-.49219zm9.49219.49219h-.02344c.63285-.53906 1.00785-1.33594 1.00785-2.25 0-.16406 0-.35156-.0235-.51562.3047-.14063.6563-.23438 1.0313-.23438h1.0078c1.3828 0 2.5078 1.125 2.5078 2.50781 0 .28125-.2344.49219-.5156.49219zm-4.24219-2.25c0-.79688.42188-1.52344 1.125-1.94531.67969-.39844 1.54688-.39844 2.25 0 .67969.42187 1.125 1.14843 1.125 1.94531 0 .82031-.44531 1.54688-1.125 1.96875-.70312.39844-1.57031.39844-2.25 0-.70312-.42187-1.125-1.14844-1.125-1.96875zm-2.25 6.1406c0-1.7344 1.38281-3.1406 3.11719-3.1406h2.74219c1.73442 0 3.14062 1.4062 3.14062 3.1406 0 .3282-.2812.6094-.6328.6094h-7.75782c-.32813 0-.60938-.2578-.60938-.6094z"/></svg>
