<svg width="32" height="32" viewBox="0 0 32 32" xmlns="http://www.w3.org/2000/svg">
  <path d="M30.45 18.6C30.3712 18.6591 30.2815 18.7021 30.1861 18.7265C30.0907 18.751 29.9914 18.7564 29.8939 18.7425C29.7964 18.7285 29.7026 18.6955 29.6179 18.6454C29.5331 18.5952 29.4591 18.5288 29.4 18.45C28.7741 17.6086 27.9594 16.926 27.0215 16.457C26.0836 15.9881 25.0486 15.7459 24 15.75C23.8011 15.75 23.6103 15.671 23.4697 15.5303C23.329 15.3897 23.25 15.1989 23.25 15C23.25 14.8011 23.329 14.6103 23.4697 14.4697C23.6103 14.329 23.8011 14.25 24 14.25C24.6078 14.2499 25.2034 14.0793 25.7192 13.7576C26.2349 13.436 26.6501 12.9761 26.9176 12.4303C27.1851 11.8845 27.2942 11.2746 27.2325 10.67C27.1708 10.0653 26.9407 9.49 26.5684 9.00951C26.1962 8.52902 25.6966 8.16256 25.1265 7.95174C24.5564 7.74092 23.9386 7.69421 23.3433 7.81689C22.748 7.93958 22.199 8.22676 21.7587 8.6458C21.3184 9.06485 21.0045 9.59897 20.8525 10.1875C20.8028 10.3801 20.6786 10.5451 20.5072 10.6461C20.3358 10.7472 20.1314 10.776 19.9387 10.7263C19.7461 10.6765 19.5812 10.5523 19.4801 10.381C19.3791 10.2096 19.3503 10.0051 19.4 9.8125C19.5885 9.07929 19.9496 8.40176 20.453 7.83638C20.9565 7.27101 21.5879 6.83416 22.2944 6.56227C23.0009 6.29037 23.7623 6.19129 24.5149 6.27329C25.2675 6.35529 25.9896 6.61599 26.621 7.03367C27.2524 7.45134 27.7748 8.01389 28.1447 8.67443C28.5147 9.33497 28.7213 10.0744 28.7475 10.831C28.7737 11.5876 28.6187 12.3395 28.2954 13.024C27.972 13.7086 27.4898 14.3059 26.8888 14.7662C28.3677 15.3181 29.6562 16.2846 30.6 17.55C30.6591 17.6288 30.7021 17.7185 30.7265 17.8139C30.751 17.9093 30.7564 18.0086 30.7425 18.1061C30.7285 18.2036 30.6955 18.2974 30.6454 18.3821C30.5952 18.4669 30.5288 18.5409 30.45 18.6ZM23.6488 26.625C23.6981 26.7103 23.7302 26.8044 23.7431 26.9021C23.7561 26.9998 23.7497 27.099 23.7242 27.1942C23.6988 27.2894 23.6549 27.3786 23.595 27.4569C23.535 27.5351 23.4603 27.6007 23.375 27.65C23.2613 27.7167 23.1318 27.7516 23 27.7512C22.8683 27.7513 22.7388 27.7167 22.6247 27.6509C22.5106 27.5851 22.4159 27.4903 22.35 27.3762C21.6981 26.2717 20.7694 25.3563 19.6556 24.7203C18.5417 24.0844 17.2813 23.7499 15.9987 23.7499C14.7162 23.7499 13.4558 24.0844 12.3419 24.7203C11.2281 25.3563 10.2994 26.2717 9.6475 27.3762C9.60061 27.4659 9.53608 27.5451 9.45779 27.6091C9.37949 27.6732 9.28905 27.7207 9.1919 27.7489C9.09476 27.7771 8.99291 27.7853 8.8925 27.7731C8.79209 27.7609 8.69518 27.7286 8.6076 27.6779C8.52003 27.6273 8.4436 27.5595 8.38291 27.4786C8.32223 27.3976 8.27854 27.3053 8.25447 27.207C8.23041 27.1088 8.22646 27.0067 8.24288 26.9069C8.2593 26.8071 8.29573 26.7116 8.35 26.6262C9.37154 24.8711 10.971 23.5252 12.875 22.8188C11.8349 22.1435 11.0411 21.15 10.6118 19.9866C10.1825 18.8233 10.1408 17.5523 10.493 16.3633C10.8451 15.1743 11.5722 14.131 12.5658 13.389C13.5594 12.647 14.7662 12.2461 16.0063 12.2461C17.2463 12.2461 18.4531 12.647 19.4467 13.389C20.4403 14.131 21.1674 15.1743 21.5195 16.3633C21.8717 17.5523 21.83 18.8233 21.4007 19.9866C20.9714 21.15 20.1776 22.1435 19.1375 22.8188C21.0362 23.5276 22.6304 24.8727 23.6488 26.625ZM16 22.25C16.8406 22.25 17.6623 22.0007 18.3612 21.5337C19.0601 21.0668 19.6048 20.403 19.9265 19.6264C20.2482 18.8498 20.3323 17.9953 20.1683 17.1709C20.0043 16.3464 19.5996 15.5892 19.0052 14.9948C18.4108 14.4004 17.6536 13.9956 16.8291 13.8317C16.0047 13.6677 15.1502 13.7518 14.3736 14.0735C13.597 14.3952 12.9333 14.9399 12.4663 15.6388C11.9993 16.3377 11.75 17.1594 11.75 18C11.75 19.1272 12.1978 20.2082 12.9948 21.0052C13.7918 21.8022 14.8728 22.25 16 22.25ZM8.75 15C8.75 14.8011 8.67098 14.6103 8.53033 14.4697C8.38968 14.329 8.19891 14.25 8 14.25C7.39224 14.2498 6.79671 14.0792 6.28104 13.7576C5.76536 13.4359 5.35021 12.9761 5.08272 12.4304C4.81523 11.8847 4.70613 11.2749 4.7678 10.6702C4.82947 10.0656 5.05944 9.49039 5.43159 9.0099C5.80375 8.5294 6.30318 8.16289 6.87317 7.95198C7.44316 7.74106 8.06087 7.6942 8.65616 7.81672C9.25144 7.93923 9.80045 8.2262 10.2408 8.64505C10.6812 9.06391 10.9953 9.59785 11.1475 10.1862C11.1721 10.2816 11.2153 10.3712 11.2745 10.4499C11.3338 10.5286 11.4079 10.5948 11.4928 10.6449C11.5776 10.6949 11.6715 10.7277 11.7691 10.7415C11.8666 10.7552 11.9659 10.7496 12.0612 10.725C12.1566 10.7004 12.2462 10.6572 12.3249 10.598C12.4036 10.5387 12.4698 10.4646 12.5199 10.3797C12.5699 10.2949 12.6027 10.201 12.6165 10.1034C12.6302 10.0059 12.6246 9.90662 12.6 9.81125C12.4115 9.07804 12.0504 8.40051 11.547 7.83513C11.0435 7.26976 10.4122 6.83291 9.7056 6.56102C8.99905 6.28912 8.23775 6.19004 7.48514 6.27204C6.73254 6.35404 6.01043 6.61474 5.37901 7.03242C4.7476 7.45009 4.22516 8.01264 3.85525 8.67318C3.48534 9.33372 3.27868 10.0731 3.25248 10.8297C3.22628 11.5863 3.3813 12.3382 3.70464 13.0228C4.02797 13.7073 4.51024 14.3046 5.11125 14.765C3.63215 15.3172 2.34361 16.2842 1.4 17.55C1.34091 17.6288 1.29791 17.7185 1.27346 17.8139C1.24902 17.9093 1.24361 18.0086 1.25754 18.1061C1.27147 18.2036 1.30446 18.2974 1.35464 18.3821C1.40482 18.4669 1.47121 18.5409 1.55 18.6C1.62879 18.6591 1.71845 18.7021 1.81386 18.7265C1.90927 18.751 2.00856 18.7564 2.10607 18.7425C2.20357 18.7285 2.29737 18.6955 2.38212 18.6454C2.46687 18.5952 2.54091 18.5288 2.6 18.45C3.22588 17.6086 4.04059 16.926 4.97851 16.457C5.91644 15.9881 6.95138 15.7459 8 15.75C8.19891 15.75 8.38968 15.671 8.53033 15.5303C8.67098 15.3897 8.75 15.1989 8.75 15Z" fill="currentColor" />
</svg>