<svg width="16" height="16" viewBox="0 0 16 16" fill="none" xmlns="http://www.w3.org/2000/svg"><path d="M7.038 9.902a3.625 3.625 0 1 0-3.575 0 5.86 5.86 0 0 0-3.137 2.393.375.375 0 0 0 .628.41 5.125 5.125 0 0 1 8.592 0 .375.375 0 0 0 .625-.41 5.87 5.87 0 0 0-3.133-2.393M2.375 6.75a2.875 2.875 0 1 1 5.75 0 2.875 2.875 0 0 1-5.75 0m13.188 6.063a.375.375 0 0 1-.52-.11 5.11 5.11 0 0 0-4.293-2.328.375.375 0 0 1 0-.75 2.875 2.875 0 1 0-1.067-5.546.375.375 0 1 1-.28-.696 3.625 3.625 0 0 1 3.134 6.519 5.86 5.86 0 0 1 3.137 2.393.376.376 0 0 1-.111.518" fill="currentColor"/></svg>