<svg width="20" height="20" viewBox="0 0 20 20" fill="none" xmlns="http://www.w3.org/2000/svg">
<path fill-rule="evenodd" clip-rule="evenodd" d="M7.85065 12.8138C9.05783 12.8138 10.2159 13.0802 11.2728 13.5881C11.3683 13.2858 11.4974 12.9983 11.6557 12.7302C11.2096 12.5173 10.7474 12.3428 10.2725 12.2083C11.2881 11.668 12.0938 10.8036 12.5615 9.75258C13.0292 8.70158 13.132 7.52436 12.8536 6.4082C12.5751 5.29204 11.9314 4.30105 11.0249 3.59287C10.1183 2.88469 9.00101 2.5 7.85065 2.5C6.70028 2.5 5.58295 2.88469 4.6764 3.59287C3.76985 4.30105 3.12616 5.29204 2.84772 6.4082C2.56928 7.52436 2.67208 8.70158 3.13977 9.75258C3.60747 10.8036 4.41319 11.668 5.42877 12.2083C3.71002 12.695 2.15846 13.7052 0.929551 15.1685C0.85393 15.2641 0.818519 15.3854 0.830828 15.5066C0.843136 15.6279 0.902197 15.7396 0.995484 15.8181C1.08877 15.8965 1.20895 15.9355 1.33053 15.9269C1.45211 15.9182 1.56553 15.8625 1.64674 15.7716C3.24986 13.8646 5.45299 12.8138 7.85065 12.8138ZM7.85065 11.8763C8.68504 11.8763 9.50069 11.6289 10.1945 11.1653C10.8882 10.7017 11.429 10.0429 11.7483 9.272C12.0676 8.50112 12.1511 7.65287 11.9883 6.83451C11.8256 6.01615 11.4238 5.26445 10.8338 4.67444C10.2437 4.08444 9.49204 3.68264 8.67368 3.51986C7.85532 3.35708 7.00708 3.44063 6.2362 3.75993C5.46532 4.07924 4.80644 4.61997 4.34288 5.31374C3.87932 6.00751 3.63189 6.82316 3.63189 7.65755C3.63314 8.77605 4.07801 9.84839 4.86891 10.6393C5.65981 11.4302 6.73214 11.8751 7.85065 11.8763ZM15.8936 17.2599C16.2276 17.1704 16.5275 17.0173 16.784 16.8172L13.2747 13.308C12.8101 13.905 12.6208 14.705 12.8317 15.4921C13.1891 16.8258 14.5599 17.6172 15.8936 17.2599ZM13.8897 12.7445L17.3467 16.2014C17.7162 15.6288 17.8516 14.9081 17.6614 14.198C17.304 12.8643 15.9332 12.0729 14.5995 12.4302C14.3411 12.4995 14.103 12.6068 13.8897 12.7445ZM16.1093 18.0648C17.8875 17.5883 18.9428 15.7605 18.4663 13.9823C17.9898 12.2041 16.162 11.1488 14.3838 11.6253C12.6056 12.1018 11.5503 13.9296 12.0268 15.7078C12.5033 17.486 14.3311 18.5413 16.1093 18.0648Z" fill="white"/>
</svg>
