<svg xmlns="http://www.w3.org/2000/svg" width="24" height="24" viewBox="0 0 24 24" fill="currentColor"><path d="M22.838 13.95a.56.56 0 0 1-.788-.112A5.02 5.02 0 0 0 18 11.813a.563.563 0 0 1 0-1.126 2.437 2.437 0 1 0-2.36-3.046.563.563 0 0 1-1.09-.282 3.563 3.563 0 1 1 5.617 3.716 6.16 6.16 0 0 1 2.783 2.088.56.56 0 0 1-.113.787m-5.101 6.019a.562.562 0 1 1-.974.563 5.532 5.532 0 0 0-9.527 0 .564.564 0 0 1-1.054-.352.6.6 0 0 1 .08-.21 6.57 6.57 0 0 1 3.394-2.856 4.313 4.313 0 1 1 4.697 0 6.57 6.57 0 0 1 3.384 2.855M12 16.687a3.187 3.187 0 1 0 0-6.374 3.187 3.187 0 0 0 0 6.374M6.563 11.25A.56.56 0 0 0 6 10.688 2.437 2.437 0 1 1 8.36 7.64a.562.562 0 1 0 1.09-.282 3.562 3.562 0 1 0-5.617 3.716 6.16 6.16 0 0 0-2.783 2.089.562.562 0 1 0 .9.675A5.02 5.02 0 0 1 6 11.813a.563.563 0 0 0 .563-.563"/></svg>
