<svg width="20" height="20" viewBox="0 0 20 20" xmlns="http://www.w3.org/2000/svg">
<path d="M19.6503 17.8756C18.2225 15.4072 16.0222 13.6372 13.4544 12.7981C14.7246 12.042 15.7114 10.8898 16.2634 9.51853C16.8153 8.14726 16.9019 6.63272 16.5098 5.20749C16.1177 3.78226 15.2685 2.52515 14.0928 1.62921C12.9171 0.733275 11.4798 0.248047 10.0016 0.248047C8.52341 0.248047 7.08609 0.733275 5.91037 1.62921C4.73465 2.52515 3.88553 3.78226 3.49342 5.20749C3.1013 6.63272 3.18787 8.14726 3.73983 9.51853C4.2918 10.8898 5.27863 12.042 6.54878 12.7981C3.98097 13.6362 1.78066 15.4062 0.352847 17.8756C0.300486 17.961 0.265756 18.056 0.250705 18.155C0.235654 18.254 0.240587 18.355 0.265213 18.4521C0.289839 18.5492 0.33366 18.6404 0.394089 18.7202C0.454518 18.8001 0.530332 18.867 0.617057 18.9171C0.703783 18.9672 0.799663 18.9995 0.899041 19.0119C0.99842 19.0243 1.09928 19.0167 1.19568 18.9896C1.29208 18.9624 1.38205 18.9162 1.4603 18.8537C1.53855 18.7912 1.60349 18.7136 1.65128 18.6256C3.41753 15.5731 6.53941 13.7506 10.0016 13.7506C13.4638 13.7506 16.5857 15.5731 18.3519 18.6256C18.3997 18.7136 18.4646 18.7912 18.5429 18.8537C18.6211 18.9162 18.7111 18.9624 18.8075 18.9896C18.9039 19.0167 19.0048 19.0243 19.1042 19.0119C19.2035 18.9995 19.2994 18.9672 19.3861 18.9171C19.4729 18.867 19.5487 18.8001 19.6091 18.7202C19.6695 18.6404 19.7134 18.5492 19.738 18.4521C19.7626 18.355 19.7675 18.254 19.7525 18.155C19.7374 18.056 19.7027 17.961 19.6503 17.8756ZM4.7516 7.0006C4.7516 5.96225 5.0595 4.94721 5.63638 4.08385C6.21326 3.2205 7.0332 2.54759 7.99251 2.15023C8.95182 1.75287 10.0074 1.6489 11.0258 1.85147C12.0442 2.05405 12.9797 2.55406 13.7139 3.28829C14.4481 4.02251 14.9481 4.95797 15.1507 5.97637C15.3533 6.99477 15.2493 8.05037 14.852 9.00969C14.4546 9.969 13.7817 10.7889 12.9183 11.3658C12.055 11.9427 11.0399 12.2506 10.0016 12.2506C8.60967 12.2491 7.27517 11.6955 6.29093 10.7113C5.30669 9.72702 4.75309 8.39253 4.7516 7.0006Z"/>
</svg>
