<svg width="24" height="24" viewBox="0 0 24 24" fill="currentColor" xmlns="http://www.w3.org/2000/svg"><path d="M23.813 12.75a.563.563 0 0 1-.563.563h-1.687V15a.563.563 0 1 1-1.125 0v-1.687H18.75a.563.563 0 0 1 0-1.126h1.688V10.5a.562.562 0 1 1 1.125 0v1.688h1.687a.563.563 0 0 1 .563.562m-5.383 5.638a.562.562 0 1 1-.86.724c-1.923-2.289-4.568-3.55-7.445-3.55s-5.52 1.261-7.445 3.55a.562.562 0 0 1-.86-.724c1.474-1.756 3.336-2.968 5.399-3.552a6.187 6.187 0 1 1 5.812 0c2.063.584 3.925 1.796 5.4 3.552m-8.305-3.95a5.062 5.062 0 1 0 0-10.125 5.062 5.062 0 0 0 0 10.125" fill="#fff"/></svg>
