<svg width="24" height="24" viewBox="0 0 24 24" fill="currentColor" xmlns="http://www.w3.org/2000/svg"><path d="M23.515 7.004a.56.56 0 0 0-.577.028L19.313 9.45v-2.7A1.313 1.313 0 0 0 18 5.438H3A1.313 1.313 0 0 0 1.688 6.75v10.5A1.313 1.313 0 0 0 3 18.563h15a1.313 1.313 0 0 0 1.313-1.313v-2.7l3.625 2.419a.563.563 0 0 0 .875-.469v-9a.56.56 0 0 0-.298-.496M18.187 17.25a.19.19 0 0 1-.187.188H3a.19.19 0 0 1-.187-.188V6.75A.187.187 0 0 1 3 6.563h15a.19.19 0 0 1 .188.187zm4.5-1.8-3.375-2.25v-2.4l3.375-2.25z" /></svg>
