<svg width="24" height="24" viewBox="0 0 24 24" fill="currentColor" xmlns="http://www.w3.org/2000/svg"><path d="M20.055 19.746a.751.751 0 1 1-1.11 1.008l-1.823-2.004H3a1.5 1.5 0 0 1-1.5-1.5V6.75A1.5 1.5 0 0 1 3 5.25h1.85l-.905-.996a.75.75 0 1 1 1.11-1.008zm3.548-12.902a.75.75 0 0 0-.77.036l-3 2a.75.75 0 0 0-.333.624v5.001a.75.75 0 0 0 .334.623l3 2.001a.75.75 0 0 0 .416.121.75.75 0 0 0 .75-.75v-9a.75.75 0 0 0-.397-.656m-6.908 6.98A.75.75 0 0 0 18 13.313V6.75a1.5 1.5 0 0 0-1.5-1.5h-5.9a.75.75 0 0 0-.556 1.254z" /></svg>
