<svg width="24" height="24" viewBox="0 0 24 24" fill="currentColor" xmlns="http://www.w3.org/2000/svg"><path d="M14.498 2.495a.56.56 0 0 0-.593.06L7.307 7.689H3A1.313 1.313 0 0 0 1.688 9v6A1.313 1.313 0 0 0 3 16.313h4.307l6.598 5.131a.563.563 0 0 0 .908-.444V3a.56.56 0 0 0-.316-.505M2.813 15V9A.187.187 0 0 1 3 8.813h3.938v6.374H3A.19.19 0 0 1 2.813 15m10.875 4.85-5.626-4.376V8.526l5.626-4.376zm9.21-6a.561.561 0 1 1-.796.795l-1.852-1.85-1.852 1.853a.562.562 0 0 1-.796-.796L19.456 12l-1.852-1.852a.562.562 0 0 1 .794-.796l1.853 1.853 1.852-1.853a.563.563 0 0 1 .796.796L21.045 12z" /></svg>
