<svg width="24" height="24" viewBox="0 0 24 24" fill="currentColor" xmlns="http://www.w3.org/2000/svg"><path d="M14.498 2.495a.56.56 0 0 0-.593.06L7.307 7.689H3A1.313 1.313 0 0 0 1.688 9v6A1.313 1.313 0 0 0 3 16.313h4.307l6.598 5.131a.563.563 0 0 0 .908-.444V3a.56.56 0 0 0-.316-.505M2.813 15V9A.187.187 0 0 1 3 8.813h3.938v6.374H3A.19.19 0 0 1 2.813 15m10.875 4.85-5.626-4.375v-6.95l5.626-4.375zm4.737-10.205a3.56 3.56 0 0 1 0 4.71.563.563 0 0 1-.844-.744 2.44 2.44 0 0 0 0-3.223.563.563 0 0 1 .844-.743M23.062 12a7.3 7.3 0 0 1-1.861 4.875.562.562 0 1 1-.838-.75 6.187 6.187 0 0 0 0-8.25.562.562 0 1 1 .838-.75A7.3 7.3 0 0 1 23.062 12" /></svg>
