<svg width="61" height="60" viewBox="0 0 61 60" fill="none" xmlns="http://www.w3.org/2000/svg">
<path d="M51.125 17.3438H13.625C13.0034 17.3438 12.4073 17.0968 11.9677 16.6573C11.5282 16.2177 11.2812 15.6216 11.2812 15C11.2812 14.3784 11.5282 13.7823 11.9677 13.3427C12.4073 12.9032 13.0034 12.6562 13.625 12.6562H45.5C45.873 12.6562 46.2306 12.5081 46.4944 12.2444C46.7581 11.9806 46.9062 11.623 46.9062 11.25C46.9062 10.877 46.7581 10.5194 46.4944 10.2556C46.2306 9.99191 45.873 9.84375 45.5 9.84375H13.625C12.2575 9.84375 10.946 10.387 9.97898 11.354C9.012 12.321 8.46875 13.6325 8.46875 15V45C8.46875 46.3675 9.012 47.679 9.97898 48.646C10.946 49.613 12.2575 50.1562 13.625 50.1562H51.125C51.9952 50.1562 52.8298 49.8105 53.4452 49.1952C54.0605 48.5798 54.4062 47.7452 54.4062 46.875V20.625C54.4062 19.7548 54.0605 18.9202 53.4452 18.3048C52.8298 17.6895 51.9952 17.3438 51.125 17.3438ZM51.5938 46.875C51.5938 46.9993 51.5444 47.1185 51.4565 47.2065C51.3685 47.2944 51.2493 47.3438 51.125 47.3438H13.625C13.0034 47.3438 12.4073 47.0968 11.9677 46.6573C11.5282 46.2177 11.2812 45.6216 11.2812 45V19.5914C12.0064 19.9636 12.8099 20.1573 13.625 20.1562H51.125C51.2493 20.1562 51.3685 20.2056 51.4565 20.2935C51.5444 20.3815 51.5938 20.5007 51.5938 20.625V46.875ZM45.0312 32.8125C45.0312 33.2761 44.8938 33.7292 44.6363 34.1146C44.3787 34.5 44.0127 34.8005 43.5844 34.9778C43.1561 35.1552 42.6849 35.2016 42.2303 35.1112C41.7756 35.0208 41.358 34.7976 41.0302 34.4698C40.7024 34.142 40.4792 33.7244 40.3888 33.2697C40.2984 32.8151 40.3448 32.3439 40.5222 31.9156C40.6996 31.4873 41 31.1213 41.3854 30.8637C41.7708 30.6062 42.2239 30.4688 42.6875 30.4688C43.3091 30.4688 43.9052 30.7157 44.3448 31.1552C44.7843 31.5948 45.0312 32.1909 45.0312 32.8125Z" fill="url(#paint0_linear_903_82222)"/>
<defs>
<linearGradient id="paint0_linear_903_82222" x1="8.46875" y1="9.84375" x2="48.4398" y2="55.3921" gradientUnits="userSpaceOnUse">
<stop stop-color="#A55282"/>
<stop offset="1" stop-color="#F27C34"/>
</linearGradient>
</defs>
</svg>
