<svg fill="currentColor" height="24" width="24" viewBox="0 0 24 24" xmlns="http://www.w3.org/2000/svg"><path d="M11.438 12.75V7.5a.562.562 0 0 1 1.125 0v5.25a.563.563 0 0 1-1.125 0m10.125-4.167v6.834a1.3 1.3 0 0 1-.384.928l-4.833 4.833a1.3 1.3 0 0 1-.928.384H8.583a1.3 1.3 0 0 1-.928-.384l-4.833-4.833a1.3 1.3 0 0 1-.384-.928V8.583a1.3 1.3 0 0 1 .384-.928l4.833-4.833a1.3 1.3 0 0 1 .928-.385h6.835a1.3 1.3 0 0 1 .928.385l4.833 4.833a1.3 1.3 0 0 1 .384.928m-1.125 0a.2.2 0 0 0-.055-.133L15.55 3.618a.2.2 0 0 0-.133-.056H8.583c-.05 0-.097.02-.132.056L3.617 8.45a.2.2 0 0 0-.054.133v6.834a.2.2 0 0 0 .055.133l4.832 4.832a.2.2 0 0 0 .133.055h6.835c.05 0 .097-.02.132-.055l4.834-4.832a.2.2 0 0 0 .054-.133zm-8.437 6.604a.937.937 0 1 0 0 1.875.937.937 0 0 0 0-1.875"/></svg>