<svg fill="currentColor" height="24" viewBox="0 0 24 24" width="24" xmlns="http://www.w3.org/2000/svg"><path d="m22.0378 17.7272-8.1994-14.23782c-.1883-.32021-.457-.58567-.7794-.77012-.3225-.18444-.6875-.28147-1.059-.28147s-.7365.09703-1.059.28147c-.3224.18445-.5911.44991-.7794.77012l-8.19942 14.23782c-.18048.3089-.2756.6603-.2756 1.0181s.09512.7092.2756 1.0181c.1858.3225.45414.5897.77741.774.32328.1844.68983.2794 1.06196.2751h16.39685c.3718.0039.738-.0912 1.0609-.2755.3229-.1844.591-.4514.7766-.7736.1808-.3087.2762-.66.2766-1.0178.0003-.3578-.0945-.7093-.2747-1.0184zm-.9759 1.4728c-.0877.1507-.2138.2752-.3656.3609s-.3236.1294-.4979.1266h-16.39685c-.17426.0028-.34611-.0409-.49787-.1266s-.27795-.2102-.36557-.3609c-.08195-.1378-.12521-.2952-.12521-.4556s.04326-.3178.12521-.4556l8.19849-14.23786c.0896-.14889.2162-.27207.3675-.35758.1513-.08552.3221-.13046.4959-.13046s.3446.04494.4959.13046c.1513.08551.2779.20869.3675.35758l8.1994 14.23786c.0818.1379.1249.2953.1247.4557-.0001.1604-.0435.3177-.1256.4555zm-9.6244-5.7v-3.74999c0-.14919.0593-.29226.1647-.39775.1055-.10549.2486-.16475.3978-.16475s.2922.05926.3977.16475.1648.24856.1648.39775v3.74999c0 .1492-.0593.2923-.1648.3978-.1055.1054-.2485.1647-.3977.1647s-.2923-.0593-.3978-.1647c-.1054-.1055-.1647-.2486-.1647-.3978zm1.5 3.375c0 .1854-.055.3667-.158.5209-.103.1541-.2494.2743-.4207.3452-.1714.071-.3599.0896-.5417.0534-.1819-.0362-.3489-.1255-.48-.2566s-.2204-.2981-.2566-.48-.0176-.3704.0534-.5417c.0709-.1713.1911-.3177.3452-.4207.1542-.103.3355-.158.5209-.158.2486 0 .4871.0988.6629.2746s.2746.4143.2746.6629z"/></svg>
