<svg height="24" viewBox="0 0 24 24" width="24" xmlns="http://www.w3.org/2000/svg"><path d="m12 2.4375c-1.8913 0-3.74009.56083-5.31264 1.61157-1.57254 1.05074-2.79819 2.5442-3.52195 4.29152-.72377 1.74731-.91314 3.67001-.54416 5.52501.36897 1.8549 1.27971 3.5588 2.61705 4.8961s3.04121 2.2481 4.8962 2.6171c1.8549.3689 3.7776.1796 5.5249-.5442s3.2408-1.9494 4.2915-3.522c1.0508-1.5725 1.6116-3.4213 1.6116-5.3126-.003-2.53522-1.0114-4.96575-2.8041-6.75842-1.7926-1.79267-4.2232-2.8011-6.7584-2.80408zm0 18c-1.6688 0-3.30008-.4949-4.68762-1.422s-2.469-2.2449-3.10761-3.7866c-.63861-1.5418-.8057-3.2383-.48014-4.875.32556-1.63669 1.12916-3.14011 2.30916-4.32011 1.18001-1.18001 2.68343-1.9836 4.32011-2.30917 1.6367-.32556 3.3332-.15847 4.875.48015 1.5417.63861 2.8595 1.72007 3.7866 3.10761.9272 1.38754 1.422 3.01882 1.422 4.68762-.0025 2.237-.8922 4.3817-2.474 5.9635s-3.7265 2.4715-5.9635 2.474zm-.5625-7.6875v-5.25c0-.14918.0593-.29226.1648-.39775.1054-.10549.2485-.16475.3977-.16475s.2923.05926.3978.16475c.1054.10549.1647.24857.1647.39775v5.25c0 .1492-.0593.2923-.1647.3977-.1055.1055-.2486.1648-.3978.1648s-.2923-.0593-.3977-.1648c-.1055-.1054-.1648-.2485-.1648-.3977zm1.5 3.375c0 .1854-.055.3667-.158.5208-.103.1542-.2494.2744-.4207.3453-.1713.071-.3598.0896-.5417.0534-.1818-.0362-.3489-.1255-.48-.2566s-.2204-.2981-.2566-.48-.0176-.3704.0534-.5417c.0709-.1713.1911-.3177.3453-.4207.1541-.103.3354-.158.5208-.158.2486 0 .4871.0988.6629.2746s.2746.4143.2746.6629z"/></svg>
