<svg fill="currentColor" height="24" viewBox="0 0 24 24" width="24" xmlns="http://www.w3.org/2000/svg"><path d="m20.6436 9.37503-1.6875-2.92313c-.2213-.38377-.5361-.70529-.9151-.93463s-.8099-.35904-1.2525-.37701c-.4427-.01796-.8827.07638-1.279.27425s-.7362.49282-.9878.85739l-1.4381-2.49281c-.2275-.39395-.5535-.72202-.946-.95203-.3925-.23002-.838-.35408-1.2929-.36004s-.90348.10641-1.30185.32607-.73282.53908-.97055.92694c-.46429-.41801-1.06245-.65672-1.68697-.67323-.62452-.01652-1.23445.19024-1.72019.58312-.48574.39289-.81543.94613-.92982 1.5603-.11439.61418-.00599 1.24902.30573 1.79043l.31313.54281c-.44162.03549-.86707.18218-1.23672.4264s-.67148.57803-.87736.97033-.30912.83032-.3001 1.27331c.00902.4429.13.8764.35168 1.26l3.5625 6.1706c.53947.9399 1.25993 1.7636 2.11971 2.4233.85978.6598 1.84181 1.1426 2.88931 1.4204.7009.1873 1.4233.2818 2.1488.2813 1.4469-.0024 2.8678-.3853 4.12-1.1103s2.2917-1.7665 3.0142-3.0202c.7225-1.2536 1.1026-2.6752 1.1021-4.1221s-.3814-2.8683-1.1047-4.12147zm-.6254 5.87157c-.3454 1.2895-1.0656 2.4477-2.0692 3.328-1.0037.8803-2.2459 1.4431-3.5695 1.6174-1.3236.1744-2.6692-.0478-3.8666-.6382-1.19733-.5904-2.19273-1.5226-2.86029-2.6788l-3.5625-6.1706c-.07386-.128-.1218-.2692-.14107-.4158-.01927-.1465-.0095-.29532.02876-.43805.07727-.28825.26588-.53399.52435-.68318.25846-.14918.5656-.18958.85385-.11231.14272.03826.27652.10426.39374.19422.11722.08997.21557.20214.28944.33012l2.0625 3.5719c.04779.088.11273.1655.19098.2281.07825.0625.16823.1087.26462.1358.0964.0272.19726.0348.29664.0224.09938-.0125.19526-.0447.28198-.0948.08673-.0501.16254-.117.22297-.1969s.10425-.171.12888-.2681c.02462-.0971.02956-.1981.01451-.2971s-.04978-.194-.10215-.2794l-3.5625-6.16971c-.11124-.19271-.16283-.41407-.14826-.6361.01457-.22204.09465-.43476.23013-.61128.13547-.17651.32024-.30889.53095-.38039s.43789-.07891.65281-.02129c.14296.03771.277.10345.39433.19342.11732.08997.2156.20236.28911.33064l3.18752 5.52091c.1022.1667.2654.2868.4549.3349s.3903.0202.5595-.0775c.1693-.0978.2937-.2578.3468-.446.053-.1881.0305-.3896-.0628-.56137l-2.43748-4.21875c-.14276-.25795-.17855-.56163-.09968-.8457s.26606-.52583.52136-.67326.5583-.18875.8438-.11508c.2854.07368.5306.25647.6826.50904l3.2166 5.57062c-.8188.6784-1.3715 1.6245-1.5602 2.671s-.0013 2.126.529 3.0478c.0994.1723.2632.298.4554.3495s.3969.0246.5692-.0749c.1723-.0994.2981-.2632.3496-.4554s.0246-.3969-.0749-.5692c-.3977-.689-.5055-1.5078-.2997-2.2763.2059-.7685.7086-1.4237 1.3975-1.8216.0854-.0492.1602-.1148.2202-.1929.0599-.0781.104-.1673.1295-.2625s.032-.1944.0191-.2921c-.0128-.0977-.0448-.1918-.0941-.27715l-.9375-1.62375c-.1427-.25795-.1785-.56163-.0996-.8457.0788-.28406.2661-.52582.5214-.67325.2553-.14744.5582-.18876.8437-.11508.2855.07367.5306.25646.6827.50903l1.6875 2.9231c.4463.7662.7363 1.6132.8529 2.4922.1167.879.0578 1.7724-.1733 2.6285zm-2.7431-12.44064c.0255-.09518.0694-.18441.1294-.2626.06-.07818.1347-.14379.22-.19307.0854-.04927.1796-.08126.2772-.09412.0977-.01286.197-.00635.2922.01917 1.4915.40031 2.7187 1.32281 3.4556 2.59969.0994.1723.1264.37706.0749.56923s-.1773.356-.3496.45545c-.1723.09946-.3771.12639-.5692.07488-.1922-.05151-.356-.17726-.4555-.34956-.5362-.93-1.44-1.605-2.5444-1.90032-.0951-.02545-.1844-.06942-.2626-.12938-.0781-.05995-.1438-.13473-.193-.22005-.0493-.08532-.0813-.17951-.0942-.2772-.0128-.09769-.0063-.19695.0192-.29212zm-9.68999 19.41284c-.06097.0774-.13661.142-.22258.1902s-.18059.0789-.27845.0905-.19705.0037-.29188-.023c-.09484-.0268-.18347-.072-.26084-.133-1.03125-.8147-1.88531-1.8357-2.68125-3.2138-.09945-.1723-.12639-.3771-.07487-.5692.05151-.1922.17725-.356.34956-.4555.17231-.0994.37707-.1264.56924-.0748.19216.0515.35599.1772.45545.3495.6975 1.2075 1.43156 2.0925 2.31094 2.7863.15606.1231.25686.3032.28024.5006s-.03257.396-.15556.5522z" fill="#fff"/></svg>
