<svg height="24" viewBox="0 0 24 24" width="24"
  xmlns="http://www.w3.org/2000/svg">
  <path d="m15.3975 9.3975-2.6025 2.6025 2.6025 2.6025c.0553.0515.0996.1136.1303.1826.0308.069.0473.1435.0486.219.0014.0755-.0125.1506-.0408.2206s-.0704.1337-.1238.1871-.1171.0955-.1871.1238-.1451.0422-.2206.0408c-.0755-.0013-.15-.0178-.219-.0486-.069-.0307-.1311-.075-.1826-.1303l-2.6025-2.6025-2.6025 2.6025c-.10663.0994-.24766.1535-.39339.1509-.14572-.0026-.28476-.0616-.38782-.1647-.10306-.103-.1621-.2421-.16467-.3878s.05152-.2868.15088-.3934l2.6025-2.6025-2.6025-2.6025c-.09936-.10663-.15345-.24767-.15088-.39339.00257-.14573.06161-.28477.16467-.38783s.2421-.16209.38782-.16466c.14573-.00257.28676.05152.39339.15088l2.6025 2.6025 2.6025-2.6025c.1066-.09936.2477-.15345.3934-.15088s.2848.0616.3878.16466c.1031.10306.1621.2421.1647.38783.0026.14572-.0515.28676-.1509.39339zm6.165 2.6025c0 1.8913-.5608 3.7401-1.6116 5.3126-1.0507 1.5726-2.5442 2.7982-4.2915 3.522s-3.67.9131-5.5249.5442c-1.85499-.369-3.55886-1.2798-4.8962-2.6171s-2.24808-3.0412-2.61705-4.8961c-.36898-1.855-.17961-3.7777.54416-5.52501.72376-1.74732 1.94941-3.24078 3.52195-4.29152 1.57255-1.05074 3.42134-1.61157 5.31264-1.61157 2.5352.00298 4.9658 1.01141 6.7584 2.80408 1.7927 1.79267 2.8011 4.2232 2.8041 6.75842zm-1.125 0c0-1.6688-.4948-3.30008-1.422-4.68762-.9271-1.38754-2.2449-2.469-3.7866-3.10761-1.5418-.63862-3.2383-.80571-4.875-.48015-1.63668.32557-3.1401 1.12916-4.32011 2.30917-1.18 1.18-1.9836 2.68342-2.30916 4.32011-.32556 1.6367-.15847 3.3332.48014 4.875.63861 1.5417 1.72007 2.8595 3.10761 3.7866s3.01882 1.422 4.68762 1.422c2.237-.0025 4.3817-.8922 5.9635-2.474s2.4715-3.7265 2.474-5.9635z"/>
</svg>
