<svg fill="currentColor" height="24" viewBox="0 0 24 24" width="24" xmlns="http://www.w3.org/2000/svg"><path d="m19.5 3.1875h-15c-.3481 0-.68194.13828-.92808.38442s-.38442.57998-.38442.92808v15c0 .3481.13828.6819.38442.9281.24614.2461.57998.3844.92808.3844h15c.3481 0 .6819-.1383.9281-.3844.2461-.2462.3844-.58.3844-.9281v-15c0-.3481-.1383-.68194-.3844-.92808-.2462-.24614-.58-.38442-.9281-.38442zm.1875 16.3125c0 .0497-.0198.0974-.0549.1326-.0352.0351-.0829.0549-.1326.0549h-15c-.04973 0-.09742-.0198-.13258-.0549-.03517-.0352-.05492-.0829-.05492-.1326v-15c0-.04973.01975-.09742.05492-.13258.03516-.03517.08285-.05492.13258-.05492h15c.0497 0 .0974.01975.1326.05492.0351.03516.0549.08285.0549.13258zm-4.29-10.1025-2.6025 2.6025 2.6025 2.6025c.0553.0515.0996.1136.1303.1826.0308.069.0473.1435.0486.219.0014.0755-.0125.1506-.0408.2206s-.0704.1337-.1238.1871-.1171.0955-.1871.1238-.1451.0422-.2206.0408c-.0755-.0013-.15-.0178-.219-.0486-.069-.0307-.1311-.075-.1826-.1303l-2.6025-2.6025-2.6025 2.6025c-.10663.0994-.24767.1535-.39339.1509-.14573-.0026-.28477-.0616-.38783-.1647-.10306-.103-.16209-.2421-.16466-.3878s.05152-.2868.15088-.3934l2.6025-2.6025-2.6025-2.6025c-.09936-.10663-.15345-.24767-.15088-.39339.00257-.14573.0616-.28477.16466-.38783s.2421-.16209.38783-.16466c.14572-.00257.28676.05152.39339.15088l2.6025 2.6025 2.6025-2.6025c.1066-.09936.2477-.15345.3934-.15088s.2848.0616.3878.16466c.1031.10306.1621.2421.1647.38783.0026.14572-.0515.28676-.1509.39339z" fill="#fff"/></svg>
