<svg fill="currentColor" height="24" viewBox="0 0 24 24" width="24" xmlns="http://www.w3.org/2000/svg"><path d="m19.1475 18.3525c.0553.0515.0996.1136.1303.1826.0308.069.0473.1435.0487.219.0013.0755-.0126.1506-.0409.2206s-.0704.1337-.1238.1871-.1171.0955-.1871.1238-.1451.0422-.2206.0408c-.0755-.0013-.15-.0178-.219-.0486-.069-.0307-.1311-.075-.1826-.1303l-6.3525-6.3516-6.35249 6.3516c-.10663.0994-.24767.1535-.3934.1509-.14572-.0026-.28476-.0616-.38782-.1647-.10306-.103-.16209-.2421-.16466-.3878-.00258-.1457.05152-.2868.15088-.3934l6.35159-6.3525-6.35159-6.3525c-.09936-.10663-.15346-.24767-.15088-.39339.00257-.14573.0616-.28477.16466-.38783s.2421-.16209.38782-.16466c.14573-.00257.28677.05152.3934.15088l6.35249 6.3516 6.3525-6.3516c.1066-.09936.2477-.15345.3934-.15088s.2848.0616.3878.16466c.1031.10306.1621.2421.1647.38783.0026.14572-.0515.28676-.1509.39339l-6.3516 6.3525z" fill="#fff"/></svg>
