<svg fill="currentColor" height="24" viewBox="0 0 24 24" width="24" xmlns="http://www.w3.org/2000/svg"><path d="m14.0625 10.5c0 .1492-.0593.2923-.1647.3977-.1055.1055-.2486.1648-.3978.1648h-6c-.14918 0-.29225-.0593-.39774-.1648-.10549-.1054-.16476-.2485-.16476-.3977s.05927-.2923.16476-.3977c.10549-.10554.24856-.1648.39774-.1648h6c.1492 0 .2923.05926.3978.1648.1054.1054.1647.2485.1647.3977zm7.335 10.8975c-.1055.1053-.2484.1645-.3975.1645s-.292-.0592-.3975-.1645l-4.8169-4.8169c-1.5796 1.3736-3.6309 2.0802-5.7214 1.9709-2.09046-.1093-4.05684-1.026-5.48461-2.5569-1.42777-1.5308-2.20539-3.5562-2.16894-5.6493.03645-2.09299.88413-4.0901 2.36435-5.57031 1.48021-1.48022 3.47732-2.32789 5.5703-2.36435 2.0931-.03645 4.1185.74117 5.6493 2.16894 1.5309 1.42777 2.4476 3.39415 2.5569 5.48462.1093 2.0905-.5973 4.1418-1.9709 5.7214l4.8169 4.8169c.1053.1055.1645.2484.1645.3975s-.0592.292-.1645.3975zm-10.8975-3.96c1.3721 0 2.7134-.4069 3.8543-1.1692 1.1408-.7623 2.03-1.8458 2.5551-3.1134.5251-1.2677.6625-2.6626.3948-4.00834-.2677-1.34575-.9284-2.58189-1.8986-3.55212-.9703-.97022-2.2064-1.63096-3.5522-1.89864-1.3457-.26769-2.7406-.1303-4.00826.39478-1.26766.52509-2.35115 1.41428-3.11346 2.55515-.7623 1.14086-1.16918 2.48216-1.16918 3.85427.00224 1.8393.73387 3.6025 2.03442 4.9031 1.30055 1.3005 3.06383 2.0322 4.90308 2.0344z" fill="#fff"/></svg>
