<svg width="128" height="128" viewBox="0 0 128 128" fill="none" xmlns="http://www.w3.org/2000/svg">
<path d="M0 51.2C0 33.2783 0 24.3175 3.48779 17.4723C6.55574 11.4511 11.4511 6.55574 17.4723 3.48779C24.3175 0 33.2783 0 51.2 0H76.8C94.7217 0 103.683 0 110.528 3.48779C116.549 6.55574 121.444 11.4511 124.512 17.4723C128 24.3175 128 33.2783 128 51.2V76.8C128 94.7217 128 103.683 124.512 110.528C121.444 116.549 116.549 121.444 110.528 124.512C103.683 128 94.7217 128 76.8 128H51.2C33.2783 128 24.3175 128 17.4723 124.512C11.4511 121.444 6.55574 116.549 3.48779 110.528C0 103.683 0 94.7217 0 76.8V51.2Z" fill="#292E3A"/>
<path fill-rule="evenodd" clip-rule="evenodd" d="M31.0768 19.4802C31.0639 18.6623 31.0581 18.2912 31.1677 18.2532C31.2587 18.2216 31.4293 18.4198 31.7417 18.7826C33.5754 20.9125 40.2938 28.7157 64.4628 29.0071C64.7052 29.0023 64.9482 28.9999 65.1918 28.9999C76.3944 28.9999 86.4082 34.0897 93.0468 42.083C89.8015 41.098 86.318 41.4142 83.224 42.684C77.6358 44.9774 73 50.4914 73 57.4151C73 59.8965 73.3162 61.8937 73.927 63.6061C74.5421 65.3308 75.4211 66.6682 76.4176 67.8591C77.1148 68.6925 77.921 69.5082 78.7094 70.3059L78.7094 70.306L78.7095 70.3061L78.71 70.3065C78.9935 70.5935 79.2748 70.8781 79.5478 71.1603C80.621 72.2696 81.7273 73.4955 82.8321 75.0867C84.8503 77.9932 85.8182 80.383 85.9849 83.0009C86.1554 85.6786 85.5038 88.8204 83.838 93.2578C83.4619 94.2599 83.6203 95.2709 84.1103 96.0512C78.6054 99.4332 72.1263 101.384 65.1918 101.384C45.2036 101.384 29 85.1799 29 65.1917C29 57.131 31.6352 49.6858 36.0911 43.6705C32.9126 41.9038 30.3665 41.4661 28.7402 41.1866C27.4601 40.9665 26.75 40.8445 26.75 40.2493C26.75 38.3703 37.2269 36.7019 37.2269 36.7019C37.2269 36.7019 31.0887 34.2944 31.0887 32.4155C31.0887 30.5366 38.1123 31.233 38.1123 31.233C38.1123 31.233 31.0887 29.4593 31.0887 20.7387C31.0887 20.2367 31.0821 19.8199 31.0768 19.4802Z" fill="#73BED0"/>
<path fill-rule="evenodd" clip-rule="evenodd" d="M60.2631 59.7613C60.8999 59.9862 61.2183 60.0986 61.4674 60.0598C61.6834 60.0262 61.8899 59.9176 62.0401 59.7588C62.2133 59.5756 62.2743 59.3492 62.3964 58.8966C62.595 58.1602 62.7032 57.3663 62.7032 56.5387C62.7032 52.6899 60.3631 49.5699 57.4766 49.5699C54.59 49.5699 52.25 52.6899 52.25 56.5387C52.25 57.3013 52.3419 58.0353 52.5117 58.722C52.6232 59.1732 52.679 59.3988 52.8453 59.5844C52.9898 59.7456 53.1898 59.8585 53.4024 59.8991C53.6472 59.9459 53.966 59.8473 54.6037 59.6502C55.4449 59.3901 56.3388 59.25 57.2654 59.25C58.3165 59.25 59.3254 59.4302 60.2631 59.7613Z" fill="#292E3A"/>
<path d="M84.4749 73.9459C79.7124 67.0871 75 66.6611 75 57.4151C75 45.4498 91.0716 37.9732 98.652 48.5893C101.907 53.1474 103 60.1798 103 65.6803C103 77.963 96.7912 88.8044 87.3131 95.3012C86.4089 95.9209 85.3257 94.9854 85.7105 93.9606C89.1146 84.8925 88.7726 80.1354 84.4749 73.9459Z" fill="#CE6469"/>
</svg>
