<svg width="127" height="127" viewBox="0 0 127 127" fill="none" xmlns="http://www.w3.org/2000/svg">
<rect width="127" height="127" fill="#333333"/>
<path fill-rule="evenodd" clip-rule="evenodd" d="M30.834 19.328C30.8212 18.5165 30.8155 18.1483 30.9242 18.1106C31.0145 18.0792 31.1838 18.2759 31.4937 18.6359C33.3131 20.7491 39.979 28.4914 63.9592 28.7805C64.1997 28.7757 64.4408 28.7733 64.6825 28.7733C75.7976 28.7733 85.7331 33.8234 92.3199 41.7542C89.0999 40.7769 85.6436 41.0907 82.5738 42.3505C77.0293 44.626 72.4297 50.0969 72.4297 56.9665C72.4297 59.4286 72.7434 61.4102 73.3494 63.1092C73.9597 64.8204 74.8319 66.1474 75.8206 67.329C76.5123 68.1558 77.3122 68.9652 78.0945 69.7566C78.3758 70.0414 78.6555 70.3244 78.9263 70.6044C79.9911 71.705 81.0888 72.9213 82.185 74.5001C84.1874 77.3839 85.1477 79.755 85.3131 82.3525C85.4823 85.0092 84.8358 88.1265 83.183 92.5292C82.8099 93.5235 82.967 94.5266 83.4532 95.3008C77.9913 98.6564 71.5628 100.592 64.6825 100.592C44.8505 100.592 28.7734 84.5144 28.7734 64.6824C28.7734 56.6847 31.388 49.2976 35.8091 43.3293C32.6555 41.5764 30.1293 41.1421 28.5157 40.8648C27.2456 40.6465 26.541 40.5254 26.541 39.9349C26.541 38.0705 36.9361 36.4152 36.9361 36.4152C36.9361 36.4152 30.8458 34.0265 30.8458 32.1623C30.8458 30.298 37.8145 30.989 37.8145 30.989C37.8145 30.989 30.8458 29.2292 30.8458 20.5767C30.8458 20.0786 30.8393 19.6651 30.834 19.328Z" fill="#6DFF8C"/>
<path fill-rule="evenodd" clip-rule="evenodd" d="M59.7923 59.2944C60.4241 59.5176 60.74 59.6291 60.9872 59.5906C61.2015 59.5572 61.4064 59.4495 61.5554 59.2919C61.7273 59.1102 61.7878 58.8855 61.9089 58.4365C62.106 57.7058 62.2133 56.9181 62.2133 56.097C62.2133 52.2783 59.8915 49.1826 57.0276 49.1826C54.1635 49.1826 51.8418 52.2783 51.8418 56.097C51.8418 56.8536 51.933 57.5819 52.1015 58.2632C52.2121 58.7109 52.2674 58.9347 52.4324 59.1189C52.5758 59.2788 52.7743 59.3909 52.9852 59.4311C53.2281 59.4776 53.5444 59.3797 54.1771 59.1842C55.0117 58.9261 55.8987 58.7871 56.818 58.7871C57.8609 58.7871 58.8619 58.9659 59.7923 59.2944Z" fill="#292E3A"/>
<path d="M83.8149 73.3682C79.0896 66.563 74.4141 66.1403 74.4141 56.9665C74.4141 45.0947 90.3601 37.6765 97.8813 48.2097C101.111 52.7322 102.195 59.7096 102.195 65.1672C102.195 77.3539 96.035 88.1106 86.631 94.5567C85.7338 95.1715 84.6591 94.2433 85.0409 93.2265C88.4184 84.2293 88.0791 79.5093 83.8149 73.3682Z" fill="#CE6469"/>
</svg>
