<svg width="375" height="404" viewBox="0 0 375 404" fill="none" xmlns="http://www.w3.org/2000/svg">
<path d="M0 0H375V372C375 389.673 360.673 404 343 404H32C14.3269 404 0 389.673 0 372V0Z" fill="url(#paint0_linear_2851_27199)" fill-opacity="0.3"/>
<path d="M56 132C56 127.582 52.4183 124 48 124H36C31.5817 124 28 127.582 28 132V144C28 148.418 31.5817 152 36 152H48C52.4183 152 56 148.418 56 144V132Z" fill="#455468"/>
<rect x="68" y="124" width="135" height="8" rx="2" fill="#455468"/>
<rect x="211" y="124" width="24" height="8" rx="2" fill="#455468"/>
<rect x="68" y="140" width="185" height="14" rx="2" fill="#455468"/>
<path d="M56 155.5C58.1328 155.5 60.1016 154.375 61.1797 152.5C62.2578 150.648 62.2578 148.375 61.1797 146.5C60.1016 144.648 58.1328 143.5 56 143.5C53.8438 143.5 51.875 144.648 50.7969 146.5C49.7188 148.375 49.7188 150.648 50.7969 152.5C51.875 154.375 53.8438 155.5 56 155.5ZM58.6484 148.398L55.6484 151.398C55.4141 151.633 55.0625 151.633 54.8516 151.398L53.3516 149.898C53.1172 149.688 53.1172 149.336 53.3516 149.125C53.5625 148.891 53.9141 148.891 54.1484 149.125L55.25 150.227L57.8516 147.602C58.0625 147.391 58.4141 147.391 58.625 147.602C58.8594 147.836 58.8594 148.188 58.625 148.398H58.6484Z" fill="#5494ED"/>
<rect x="17" y="113" width="247" height="52" rx="15" stroke="#0047AB" stroke-opacity="0.2" stroke-width="2"/>
<path d="M150 223C150 218.582 146.418 215 142 215H130C125.582 215 122 218.582 122 223V235C122 239.418 125.582 243 130 243H142C146.418 243 150 239.418 150 235V223Z" fill="#455468"/>
<path d="M144 240.5C144 237.195 146.672 234.5 150 234.5C153.305 234.5 156 237.195 156 240.5C156 243.828 153.305 246.5 150 246.5C146.672 246.5 144 243.828 144 240.5ZM148.102 239.398L149.203 240.5L148.102 241.602C147.867 241.836 147.867 242.188 148.102 242.398C148.312 242.633 148.664 242.633 148.875 242.398L149.977 241.297L151.102 242.398C151.312 242.633 151.664 242.633 151.875 242.398C152.109 242.188 152.109 241.836 151.875 241.602L150.773 240.5L151.875 239.398C152.109 239.188 152.109 238.836 151.875 238.602C151.664 238.391 151.312 238.391 151.102 238.602L149.977 239.727L148.875 238.602C148.664 238.391 148.312 238.391 148.102 238.602C147.867 238.836 147.867 239.188 148.102 239.398Z" fill="#FFBF00"/>
<rect x="162" y="215" width="135" height="8" rx="2" fill="#455468"/>
<rect x="305" y="215" width="24" height="8" rx="2" fill="#455468"/>
<rect x="162" y="231" width="185" height="14" rx="2" fill="#455468"/>
<rect x="111" y="204" width="247" height="52" rx="15" stroke="#FFBF00" stroke-opacity="0.2" stroke-width="2"/>
<path d="M104 339C104 334.582 100.418 331 96 331H84C79.5817 331 76 334.582 76 339V351C76 355.418 79.5817 359 84 359H96C100.418 359 104 355.418 104 351V339Z" fill="#455468"/>
<path d="M104 362.5C106.133 362.5 108.102 361.375 109.18 359.5C110.258 357.648 110.258 355.375 109.18 353.5C108.102 351.648 106.133 350.5 104 350.5C101.844 350.5 99.875 351.648 98.7969 353.5C97.7188 355.375 97.7188 357.648 98.7969 359.5C99.875 361.375 101.844 362.5 104 362.5ZM106.648 355.398L103.648 358.398C103.414 358.633 103.062 358.633 102.852 358.398L101.352 356.898C101.117 356.688 101.117 356.336 101.352 356.125C101.562 355.891 101.914 355.891 102.148 356.125L103.25 357.227L105.852 354.602C106.062 354.391 106.414 354.391 106.625 354.602C106.859 354.836 106.859 355.188 106.625 355.398H106.648Z" fill="#0047AB" fill-opacity="0.2"/>
<rect x="116" y="331" width="135" height="8" rx="2" fill="#455468"/>
<rect x="259" y="331" width="24" height="8" rx="2" fill="#455468"/>
<rect x="116" y="347" width="185" height="14" rx="2" fill="#455468"/>
<rect x="65" y="320" width="247" height="52" rx="15" stroke="#0047AB" stroke-opacity="0.2" stroke-width="2"/>
<path d="M151 284L150.826 283.015L151 284ZM124.5 313C124.5 313.552 124.948 314 125.5 314C126.052 314 126.5 313.552 126.5 313H124.5ZM126.603 311.36C126.658 310.81 126.256 310.321 125.707 310.266C125.157 310.212 124.667 310.613 124.613 311.163L126.603 311.36ZM126.072 304.117C125.906 304.644 126.198 305.205 126.725 305.372C127.251 305.538 127.813 305.246 127.979 304.719L126.072 304.117ZM129.17 301.539C129.391 301.033 129.16 300.443 128.653 300.222C128.147 300.001 127.558 300.232 127.337 300.738L129.17 301.539ZM130.969 294.495C130.636 294.936 130.723 295.563 131.164 295.896C131.604 296.229 132.231 296.142 132.565 295.701L130.969 294.495ZM134.762 293.149C135.148 292.755 135.141 292.122 134.747 291.735C134.352 291.349 133.719 291.355 133.333 291.75L134.762 293.149ZM139.017 287.274C138.543 287.558 138.39 288.172 138.674 288.646C138.958 289.119 139.572 289.273 140.046 288.989L139.017 287.274ZM143.048 287.425C143.552 287.199 143.777 286.608 143.551 286.104C143.325 285.6 142.733 285.375 142.229 285.601L143.048 287.425ZM149.055 283.367C148.516 283.487 148.176 284.021 148.295 284.56C148.415 285.099 148.949 285.44 149.488 285.32L149.055 283.367ZM153.225 284.579C153.765 284.46 154.106 283.926 153.987 283.387C153.868 282.848 153.335 282.507 152.795 282.626L153.225 284.579ZM160.328 280.143C159.827 280.376 159.61 280.971 159.843 281.472C160.076 281.972 160.671 282.19 161.172 281.957L160.328 280.143ZM164.867 279.906C165.328 279.602 165.456 278.982 165.152 278.521C164.848 278.059 164.228 277.932 163.767 278.236L164.867 279.906ZM169.389 272.9C169.068 273.349 169.172 273.974 169.621 274.295C170.07 274.617 170.695 274.513 171.016 274.064L169.389 272.9ZM173.145 270.351C173.371 269.847 173.145 269.255 172.641 269.03C172.136 268.804 171.545 269.03 171.319 269.534L173.145 270.351ZM173.058 261.998C173.04 262.55 173.473 263.012 174.025 263.03C174.577 263.048 175.039 262.615 175.057 262.063L173.058 261.998ZM125.5 313C126.5 313 126.5 313 126.5 313C126.5 313 126.5 313 126.5 313C126.5 313 126.5 313 126.5 313.001C126.5 313.001 126.5 313.001 126.5 313.001C126.5 313.001 126.5 313.001 126.5 313.001C126.5 313 126.5 312.999 126.5 312.998C126.5 312.995 126.5 312.989 126.5 312.981C126.5 312.965 126.501 312.939 126.501 312.904C126.503 312.835 126.506 312.728 126.512 312.587C126.525 312.306 126.551 311.889 126.603 311.36L124.613 311.163C124.557 311.73 124.529 312.182 124.514 312.496C124.507 312.653 124.504 312.776 124.502 312.861C124.501 312.903 124.5 312.936 124.5 312.96C124.5 312.971 124.5 312.98 124.5 312.987C124.5 312.991 124.5 312.993 124.5 312.995C124.5 312.997 124.5 312.997 124.5 312.998C124.5 312.999 124.5 312.999 124.5 312.999C124.5 312.999 124.5 313 124.5 313C124.5 313 124.5 313 124.5 313C124.5 313 124.5 313 125.5 313ZM127.979 304.719C128.302 303.699 128.693 302.63 129.17 301.539L127.337 300.738C126.83 301.9 126.414 303.035 126.072 304.117L127.979 304.719ZM132.565 295.701C133.223 294.83 133.953 293.975 134.762 293.149L133.333 291.75C132.462 292.64 131.677 293.56 130.969 294.495L132.565 295.701ZM140.046 288.989C140.979 288.429 141.978 287.905 143.048 287.425L142.229 285.601C141.088 286.113 140.018 286.673 139.017 287.274L140.046 288.989ZM149.488 285.32C150.037 285.198 150.598 285.086 151.173 284.985L150.826 283.015C150.222 283.122 149.632 283.239 149.055 283.367L149.488 285.32ZM151.173 284.985C151.877 284.861 152.561 284.725 153.225 284.579L152.795 282.626C152.159 282.766 151.503 282.896 150.826 283.015L151.173 284.985ZM161.172 281.957C162.528 281.326 163.756 280.638 164.867 279.906L163.767 278.236C162.74 278.912 161.598 279.553 160.328 280.143L161.172 281.957ZM171.016 274.064C171.903 272.824 172.599 271.571 173.145 270.351L171.319 269.534C170.824 270.641 170.193 271.776 169.389 272.9L171.016 274.064ZM175.057 262.063C175.078 261.399 175.064 260.862 175.043 260.486C175.032 260.298 175.02 260.15 175.011 260.046C175.006 259.995 175.002 259.954 174.998 259.925C174.997 259.91 174.995 259.899 174.994 259.89C174.994 259.886 174.993 259.882 174.993 259.879C174.993 259.878 174.993 259.877 174.993 259.875C174.993 259.875 174.992 259.874 174.992 259.874C174.992 259.874 174.992 259.874 174.992 259.873C174.992 259.873 174.992 259.873 174.992 259.873C174.992 259.873 174.992 259.873 174 260C173.008 260.127 173.008 260.127 173.008 260.127C173.008 260.127 173.008 260.127 173.008 260.127C173.008 260.126 173.008 260.126 173.008 260.126C173.008 260.126 173.008 260.126 173.008 260.126C173.008 260.125 173.008 260.125 173.008 260.125C173.008 260.125 173.008 260.126 173.009 260.128C173.009 260.131 173.01 260.137 173.011 260.146C173.013 260.164 173.016 260.193 173.019 260.233C173.027 260.312 173.037 260.435 173.046 260.597C173.064 260.92 173.077 261.398 173.058 261.998L175.057 262.063Z" fill="#FFBF00"/>
<path d="M116.5 313.5C116.5 313.5 114.5 264 83.9997 236.5C53.4997 209 58.0001 171.5 58.0001 171.5" stroke="#5494ED" stroke-width="2" stroke-linejoin="round" stroke-dasharray="4 8"/>
<defs>
<linearGradient id="paint0_linear_2851_27199" x1="187.5" y1="0" x2="187.5" y2="404" gradientUnits="userSpaceOnUse">
<stop stop-color="#0047AB"/>
<stop offset="1" stop-color="#5494ED"/>
</linearGradient>
</defs>
</svg>
