<svg width="375" height="404" viewBox="0 0 375 404" fill="none" xmlns="http://www.w3.org/2000/svg">
<g clip-path="url(#clip0_2858_35769)">
<path d="M0 0H375V372C375 389.673 360.673 404 343 404H32C14.3269 404 0 389.673 0 372V0Z" fill="url(#paint0_linear_2858_35769)" fill-opacity="0.3"/>
<path d="M89 143C89 121.461 106.461 104 128 104H246C267.539 104 285 121.461 285 143V169H89V143Z" fill="#0047AB"/>
<rect x="89" y="169" width="196" height="66" fill="white"/>
<path d="M89 235H285V261C285 282.539 267.539 300 246 300H128C106.461 300 89 282.539 89 261V235Z" fill="#0047AB"/>
<rect x="113" y="128" width="148" height="148" rx="39" fill="#000814"/>
<path fill-rule="evenodd" clip-rule="evenodd" d="M155.971 165.112L155.971 165.124C155.977 165.435 155.982 165.815 155.982 166.274C155.982 174.248 162.431 175.869 162.431 175.869C162.431 175.869 155.982 175.231 155.982 176.95C155.982 178.667 161.617 180.868 161.617 180.868C161.617 180.868 152 182.393 152 184.112C152 184.655 152.652 184.766 153.827 184.967L153.827 184.967L153.828 184.968C155.321 185.224 157.658 185.624 160.574 187.238C156.486 192.738 154.066 199.543 154.066 206.914C154.066 225.186 168.941 240 187.291 240C193.822 240 199.912 238.124 205.048 234.882C204.669 234.284 204.546 233.506 204.838 232.732C206.377 228.653 207.001 225.709 206.838 223.166C206.678 220.663 205.745 218.398 203.862 215.699C202.828 214.216 201.794 213.075 200.801 212.051C200.544 211.788 200.281 211.523 200.02 211.259L200.015 211.254C199.295 210.53 198.575 209.804 197.949 209.058C197.059 208 196.284 206.824 195.742 205.31C195.203 203.805 194.918 202.034 194.918 199.803C194.918 193.689 199.033 188.798 204.019 186.759C206.988 185.547 210.345 185.317 213.402 186.452C207.319 178.764 197.883 173.827 187.291 173.827C187.067 173.827 186.845 173.829 186.621 173.834C164.435 173.567 158.267 166.434 156.583 164.486L156.583 164.486C156.296 164.155 156.138 163.974 156.056 164.003C155.955 164.038 155.96 164.373 155.971 165.112ZM215.174 188.913V188.911C207.688 183.748 196.295 190.191 196.295 199.803V199.805C196.295 190.193 207.688 183.748 215.174 188.913ZM206.127 233.213C207.354 229.958 208.051 227.311 208.206 224.954C208.051 227.311 207.356 229.958 206.127 233.213ZM183.872 202.222C183.643 202.257 183.351 202.154 182.767 201.948C181.906 201.646 180.979 201.481 180.015 201.481C179.165 201.481 178.342 201.609 177.571 201.847L177.539 201.857C176.975 202.029 176.689 202.117 176.467 202.074C176.273 202.037 176.089 201.935 175.957 201.787C175.805 201.617 175.753 201.411 175.651 201.001L175.65 200.999C175.494 200.37 175.41 199.699 175.41 199.002C175.41 195.484 177.558 192.632 180.207 192.632C182.859 192.632 185.007 195.484 185.007 199.002C185.007 199.759 184.908 200.485 184.724 201.158L184.72 201.173C184.611 201.576 184.555 201.781 184.397 201.946C184.26 202.092 184.071 202.191 183.872 202.222Z" fill="#73BED0"/>
<path d="M204.993 214.916C200.621 208.645 196.295 208.257 196.295 199.805C196.295 188.866 211.05 182.031 218.008 191.736C220.996 195.903 222 202.332 222 207.36C222 218.59 216.301 228.5 207.6 234.44C206.768 235.005 205.775 234.151 206.127 233.213C209.252 224.923 208.938 220.575 204.993 214.916Z" fill="#CE6469"/>
</g>
<defs>
<linearGradient id="paint0_linear_2858_35769" x1="187.5" y1="0" x2="187.5" y2="404" gradientUnits="userSpaceOnUse">
<stop stop-color="#0047AB"/>
<stop offset="1" stop-color="#5494ED"/>
</linearGradient>
<clipPath id="clip0_2858_35769">
<path d="M0 0H375V372C375 389.673 360.673 404 343 404H32C14.3269 404 0 389.673 0 372V0Z" fill="red"/>
</clipPath>
</defs>
</svg>